<svg width="16" height="16" viewBox="0 0 22 33" fill="none" xmlns="http://www.w3.org/2000/svg">
<g clip-path="url(#clip0_14619_18)">
<path fill-rule="evenodd" clip-rule="evenodd" d="M4.91353 0.983874L4.91284 3.47176L16.8208 3.44087L16.8179 0.955627L4.91353 0.983874Z" fill="#333333"/>
<path fill-rule="evenodd" clip-rule="evenodd" d="M17.139 0.960938L17.1357 3.43845C17.4973 3.34506 20.4715 2.27838 20.5829 2.19283L17.139 0.960938Z" fill="#CFB793"/>
<path fill-rule="evenodd" clip-rule="evenodd" d="M19.8331 1.93784C19.6853 1.88492 19.7022 2.53079 19.8548 2.47245C19.9707 2.4238 20.4637 2.24648 20.5794 2.19782C20.5802 2.19748 20.5794 2.18722 20.5785 2.18699C20.4626 2.14548 19.9491 1.97923 19.8331 1.93784Z" fill="black" stroke="black" stroke-width="0.230584" stroke-miterlimit="22.9256" stroke-linecap="round" stroke-linejoin="round"/>
<path d="M6.1788 1.92303L5.53167 2.17748L6.1788 2.43032V2.49695L5.43286 2.20261V2.15246L6.1788 1.85651V1.92303Z" fill="white"/>
<path d="M7.50136 1.9881H7.11697V2.215H7.50136C7.52926 2.215 7.54828 2.21015 7.55843 2.20035C7.56869 2.19055 7.57365 2.17338 7.57365 2.14905V2.05474C7.57365 2.0303 7.56846 2.01312 7.55808 2.00309C7.54771 1.99306 7.5288 1.9881 7.50136 1.9881ZM7.00537 2.55096V1.90405H7.54505C7.59521 1.90405 7.63129 1.91397 7.65343 1.9338C7.67545 1.95363 7.68652 1.98556 7.68652 2.02972V2.17407C7.68652 2.21776 7.67545 2.24947 7.65343 2.2693C7.63129 2.28913 7.59521 2.29893 7.54505 2.29893H7.44671L7.75246 2.55096H7.58633L7.31389 2.29893H7.11697V2.55096H7.00537Z" fill="white"/>
<path d="M7.88196 2.55097L8.19982 2.01947H8.29482L8.62017 2.55097H8.50753L8.43594 2.4268H8.05605L7.98584 2.55097H7.88196ZM8.09975 2.35047H8.39167L8.24547 2.09729L8.09975 2.35047Z" fill="white"/>
<path d="M8.86804 2.11805C8.86804 2.12577 8.86851 2.13649 8.86931 2.14975C8.87024 2.172 8.87058 2.18595 8.87058 2.19206V2.55097H8.78503V2.01947H8.87058L9.1444 2.36408L9.39608 2.01947H9.49212V2.55097H9.39608V2.19206C9.39608 2.17915 9.39654 2.16624 9.39758 2.15413C9.39862 2.14191 9.40035 2.12992 9.40231 2.11874C9.39654 2.13545 9.39043 2.15021 9.38398 2.16289C9.37775 2.17592 9.37187 2.18561 9.36622 2.19206L9.15455 2.46692H9.12734L8.90805 2.19448C8.90044 2.18515 8.89329 2.17408 8.88638 2.16151C8.87969 2.14883 8.87369 2.1343 8.86804 2.11805Z" fill="white"/>
<path d="M9.83874 2.47072H10.2979V2.09845H9.83874V2.47072ZM9.73486 2.14572C9.73486 2.09706 9.74443 2.06374 9.76346 2.04599C9.78248 2.02812 9.81776 2.01947 9.86987 2.01947H10.2668C10.3189 2.01947 10.3542 2.02812 10.3732 2.04599C10.3923 2.06374 10.4017 2.09706 10.4017 2.14572V2.42541C10.4017 2.47407 10.3925 2.50704 10.3736 2.52468C10.3548 2.54209 10.3192 2.55097 10.2668 2.55097H9.86987C9.81707 2.55097 9.78133 2.54209 9.76276 2.52491C9.7442 2.5075 9.73486 2.47453 9.73486 2.42541V2.14572Z" fill="white"/>
<path d="M10.7316 2.126C10.7342 2.14145 10.7359 2.15713 10.7373 2.17315C10.7385 2.18918 10.7392 2.20498 10.7392 2.22089V2.55097H10.6432V2.01947H10.7223L11.126 2.36673C11.1377 2.37653 11.149 2.38714 11.1597 2.39913C11.1705 2.41089 11.1811 2.42426 11.1917 2.43948C11.1888 2.42345 11.1866 2.40743 11.1851 2.39106C11.1836 2.3748 11.1829 2.35785 11.1829 2.34033V2.01947H11.2789V2.55097H11.208L10.7961 2.19898C10.7818 2.18584 10.7694 2.17339 10.7591 2.16174C10.7487 2.15021 10.7396 2.13834 10.7316 2.126Z" fill="white"/>
<path d="M12.4179 1.99179H12.1768V2.46068H12.4179C12.5264 2.46068 12.6031 2.44235 12.6479 2.40557C12.6927 2.36891 12.7152 2.30815 12.7152 2.22307C12.7152 2.14121 12.6923 2.08206 12.6466 2.04598C12.6009 2.00978 12.5246 1.99179 12.4179 1.99179ZM12.4337 1.90405C12.4952 1.90405 12.5465 1.90809 12.5871 1.91604C12.6278 1.924 12.6624 1.93668 12.6908 1.95432C12.7338 1.98164 12.7675 2.01923 12.7923 2.06685C12.817 2.11469 12.8293 2.16692 12.8293 2.22353C12.8293 2.28394 12.8172 2.33824 12.793 2.38667C12.7686 2.43497 12.7346 2.4729 12.6908 2.50081C12.6633 2.51798 12.6291 2.53044 12.588 2.53851C12.5471 2.54669 12.4957 2.55096 12.4337 2.55096H12.0652V1.90405H12.4337Z" fill="white"/>
<path d="M13.0669 2.55097V2.01947H13.6209V2.09845H13.1707V2.23507H13.4418V2.31404H13.1707V2.47314H13.6261V2.55097H13.0669Z" fill="white"/>
<path d="M14.0389 2.55097L13.7222 2.01947H13.8337L14.08 2.44686L14.3163 2.01947H14.4188L14.1181 2.55097H14.0389Z" fill="white"/>
<path d="M14.9585 2.571L15.2941 1.88397H15.3606L15.0219 2.571H14.9585Z" fill="white"/>
<path d="M16.3001 2.15246V2.20261L15.5542 2.49695V2.43032L16.2013 2.17748L15.5542 1.92303V1.85651L16.3001 2.15246Z" fill="white"/>
<path fill-rule="evenodd" clip-rule="evenodd" d="M4.51015 1.02334C2.86862 0.979878 2.07011 0.820083 2.0708 2.22561C2.07138 3.57119 2.18782 3.54732 4.52618 3.45267L4.51015 1.02334Z" fill="#E25858"/>
<path fill-rule="evenodd" clip-rule="evenodd" d="M17.1357 3.43845L20.5601 2.20575L17.1389 0.960938C12.1284 0.968547 7.66998 1.07842 2.65949 1.08603C1.8144 1.60911 1.61863 2.71038 2.66168 3.4509L17.1357 3.43845Z" stroke="black" stroke-width="0.813502" stroke-miterlimit="22.9256" stroke-linecap="round" stroke-linejoin="round"/>
<path d="M2.81641 30.9638C19.7328 30.9638 19.541 30.9638 19.541 30.9638" stroke="#65A30D" stroke-width="1.62689" stroke-miterlimit="22.9256" stroke-linecap="round" stroke-linejoin="round"/>
<path fill-rule="evenodd" clip-rule="evenodd" d="M14.0888 24.1085C14.425 24.1085 17.7246 24.0831 17.8937 24.1259C18.2581 24.2183 18.2603 24.7361 17.9248 24.8379C17.544 24.9535 13.5931 24.8679 12.8609 24.8679C12.5028 24.8679 9.25758 24.8985 9.06262 24.8481C8.71813 24.7591 8.69046 24.2563 9.02976 24.1402C9.31223 24.0435 13.4126 24.1085 14.0888 24.1085ZM6.85362 23.4164C6.95381 23.3343 7.00558 23.3102 7.09447 23.2186C7.296 23.0108 7.62458 22.6393 7.93357 22.9029C8.3191 23.2316 7.79983 23.6033 7.6443 23.7261L6.48192 24.7977C6.27451 24.9771 5.69667 25.5699 5.48222 25.595C5.19284 25.6288 4.86898 25.253 4.68394 25.0594C4.59251 24.9638 4.02262 24.6369 4.37288 24.2683C4.57948 24.0508 4.83901 24.1767 4.99281 24.3122L5.43023 24.7117L6.85362 23.4164ZM8.9132 20.1777C8.24324 20.1793 8.21811 19.8045 8.36107 19.5766C8.51971 19.3234 9.17111 19.4171 9.52817 19.4171L16.8955 19.4173C17.22 19.4173 17.5639 19.3604 17.6617 19.6704C17.7622 19.9894 17.5476 20.1766 17.2463 20.1766H12.8609L8.9132 20.1777ZM6.13201 19.4043C6.22044 19.3233 6.2571 19.2637 6.34784 19.1838L7.05469 18.5731C7.14174 18.4901 7.18071 18.4302 7.27006 18.3517C7.94798 17.7558 8.26907 18.4881 7.89183 18.8406L6.48446 20.1074C6.38853 20.1936 6.32685 20.2233 6.23704 20.3019C6.15126 20.3768 6.10745 20.4475 6.02306 20.523C5.75477 20.7631 5.5039 21.067 5.18984 20.8266L4.70665 20.3882C4.58594 20.2657 4.05087 19.9808 4.34913 19.5973C4.52922 19.3656 4.80488 19.4663 4.96721 19.6008L5.42008 20.0191L6.13201 19.4043ZM9.39662 15.4867C9.06723 15.4867 8.83123 15.47 8.79733 15.1602C8.76217 14.8389 8.95586 14.7256 9.26508 14.7256L17.7287 14.7258C18.3073 14.7258 18.3653 15.4867 17.6847 15.4867H9.39662ZM5.418 15.3295C5.50171 15.2567 5.58529 15.2105 5.67073 15.1284L6.81062 14.0768C7.23847 13.7186 7.58769 13.2295 7.93184 13.5225C8.41387 13.9329 7.4249 14.4988 6.96696 14.9771C6.85189 15.0973 5.62622 16.1881 5.52142 16.2112C5.23146 16.275 4.7945 15.8009 4.46096 15.502C3.99103 15.081 4.47019 14.502 4.96583 14.9096L5.418 15.3295ZM9.06758 10.0577C9.20351 10.02 17.6979 9.99454 17.9257 10.0636C18.2493 10.1618 18.2687 10.6842 17.894 10.7776C17.7184 10.8214 9.20155 10.828 9.02008 10.7686C8.7217 10.6711 8.68884 10.1627 9.06758 10.0577ZM5.4112 10.6392C5.69966 10.4399 6.58592 9.56254 6.81512 9.38787C7.22106 9.07842 7.56913 8.53275 7.9293 8.83262C8.14686 9.01374 8.03583 9.32538 7.89344 9.45774C7.40576 9.91106 6.50463 10.6621 6.02479 11.1403C5.30905 11.8537 5.24046 11.47 4.70446 11.007C4.54686 10.871 4.05975 10.5882 4.3444 10.2082C4.66884 9.77513 5.24633 10.4933 5.4112 10.6392ZM15.5878 5.56708C15.5831 5.89601 15.6375 6.81478 15.5325 7.05309C15.3503 7.46652 14.8086 7.36507 14.3081 7.36507L8.16876 7.3653C6.58776 7.3653 6.90562 7.32702 6.85651 5.56501C6.29676 5.55071 2.46756 5.50586 2.25715 5.62046C1.95924 5.78257 2.00466 6.0829 2.00513 6.4885L2.0027 9.99673C1.96016 13.0973 2.00501 16.2325 2.00501 19.3374C2.00501 20.3605 1.91716 28.302 2.06669 28.5595C2.2198 28.8229 2.60695 28.787 2.9941 28.7868L18.1671 28.7872C18.6524 28.7872 20.1186 28.9136 20.3372 28.6111C20.5264 28.3494 20.4327 26.8635 20.4327 26.3977L20.4322 6.57624C20.4323 6.16257 20.4944 5.81058 20.2064 5.63326C19.9927 5.50171 16.1432 5.54426 15.5878 5.56708Z" fill="white"/>
<mask id="mask0_14619_18" style="mask-type:luminance" maskUnits="userSpaceOnUse" x="7" y="0" width="9" height="7">
<path d="M9.47641 4.68467C9.35754 4.03189 10.2652 4.20045 11.096 4.20045C11.45 4.20045 11.8042 4.2016 12.1581 4.20022C12.5342 4.19883 12.8889 4.14269 12.9484 4.50689C13.0537 5.1508 12.1734 4.98835 11.3268 4.98409C10.9731 4.98224 10.6187 4.98363 10.2648 4.98501C9.89273 4.98651 9.5397 5.0324 9.47641 4.68467ZM7.41914 3.59378L7.41199 6.65156L15.0057 6.65928L15.0131 3.59182C13.5444 3.50962 13.1749 3.87302 13.2256 2.93016C13.3502 0.611285 10.0797 -0.0447275 9.31189 2.16024C9.14045 2.65253 9.34267 3.38418 9.02204 3.53498C8.80333 3.63794 7.7491 3.57095 7.41914 3.59378Z" fill="white"/>
</mask>
<g mask="url(#mask0_14619_18)">
<path fill-rule="evenodd" clip-rule="evenodd" d="M11.2125 4.66956L11.3167 10.2482L11.1827 10.2488L11.2125 4.66956Z" fill="#827F7F"/>
<path fill-rule="evenodd" clip-rule="evenodd" d="M11.2125 4.66956L11.2051 10.2487L11.0935 10.248L11.2125 4.66956Z" fill="#827F7F"/>
<path fill-rule="evenodd" clip-rule="evenodd" d="M11.2125 4.66956L11.1158 10.2482L11.0043 10.2465L11.2125 4.66956Z" fill="#827F7F"/>
<path fill-rule="evenodd" clip-rule="evenodd" d="M11.2125 4.66956L11.0265 10.2468L10.915 10.244L11.2125 4.66956Z" fill="#838080"/>
<path fill-rule="evenodd" clip-rule="evenodd" d="M11.2125 4.66956L10.9373 10.2446L10.8258 10.2408L11.2125 4.66956Z" fill="#838080"/>
<path fill-rule="evenodd" clip-rule="evenodd" d="M11.2125 4.66956L10.8482 10.2416L10.7367 10.2368L11.2125 4.66956Z" fill="#848181"/>
<path fill-rule="evenodd" clip-rule="evenodd" d="M11.2125 4.66956L10.7591 10.2377L10.6477 10.2318L11.2125 4.66956Z" fill="#848181"/>
<path fill-rule="evenodd" clip-rule="evenodd" d="M11.2124 4.66956L10.6699 10.233L10.5586 10.2261L11.2124 4.66956Z" fill="#858282"/>
<path fill-rule="evenodd" clip-rule="evenodd" d="M11.2124 4.66956L10.5809 10.2274L10.4698 10.2194L11.2124 4.66956Z" fill="#858282"/>
<path fill-rule="evenodd" clip-rule="evenodd" d="M11.2125 4.66956L10.492 10.221L10.3811 10.2119L11.2125 4.66956Z" fill="#868383"/>
<path fill-rule="evenodd" clip-rule="evenodd" d="M11.2125 4.66956L10.4033 10.2137L10.2925 10.2036L11.2125 4.66956Z" fill="#868383"/>
<path fill-rule="evenodd" clip-rule="evenodd" d="M11.2124 4.66956L10.3145 10.2057L10.204 10.1945L11.2124 4.66956Z" fill="#878484"/>
<path fill-rule="evenodd" clip-rule="evenodd" d="M11.2125 4.66956L10.2262 10.1967L10.1157 10.1844L11.2125 4.66956Z" fill="#888585"/>
<path fill-rule="evenodd" clip-rule="evenodd" d="M11.2124 4.66956L10.1377 10.187L10.0275 10.1737L11.2124 4.66956Z" fill="#888585"/>
<path fill-rule="evenodd" clip-rule="evenodd" d="M11.2125 4.66956L10.0496 10.1764L9.93958 10.162L11.2125 4.66956Z" fill="#898686"/>
<path fill-rule="evenodd" clip-rule="evenodd" d="M11.2125 4.66956L9.96156 10.1648L9.85168 10.1495L11.2125 4.66956Z" fill="#8A8787"/>
<path fill-rule="evenodd" clip-rule="evenodd" d="M11.2125 4.66956L9.87369 10.1526L9.76416 10.1363L11.2125 4.66956Z" fill="#8A8787"/>
<path fill-rule="evenodd" clip-rule="evenodd" d="M11.2125 4.66956L9.78606 10.1395L9.67676 10.1221L11.2125 4.66956Z" fill="#8B8888"/>
<path fill-rule="evenodd" clip-rule="evenodd" d="M11.2125 4.66956L9.69855 10.1255L9.5896 10.1071L11.2125 4.66956Z" fill="#8C8989"/>
<path fill-rule="evenodd" clip-rule="evenodd" d="M11.2125 4.66956L9.61141 10.1108L9.50269 10.0913L11.2125 4.66956Z" fill="#8D8989"/>
<path fill-rule="evenodd" clip-rule="evenodd" d="M11.2125 4.66956L9.52451 10.0952L9.41614 10.0747L11.2125 4.66956Z" fill="#8D8A8A"/>
<path fill-rule="evenodd" clip-rule="evenodd" d="M11.2124 4.66956L9.43774 10.0787L9.32971 10.0572L11.2124 4.66956Z" fill="#8E8B8B"/>
<path fill-rule="evenodd" clip-rule="evenodd" d="M11.2125 4.66956L9.35134 10.0615L9.24377 10.0389L11.2125 4.66956Z" fill="#8F8B8B"/>
<path fill-rule="evenodd" clip-rule="evenodd" d="M11.2125 4.66956L9.26518 10.0434L9.15796 10.0198L11.2125 4.66956Z" fill="#8F8C8C"/>
<path fill-rule="evenodd" clip-rule="evenodd" d="M11.2124 4.66956L9.17938 10.0245L9.07239 9.99998L11.2124 4.66956Z" fill="#908D8D"/>
<path fill-rule="evenodd" clip-rule="evenodd" d="M11.2124 4.66956L9.09383 10.0048L8.9873 9.97922L11.2124 4.66956Z" fill="#918D8D"/>
<path fill-rule="evenodd" clip-rule="evenodd" d="M11.2125 4.66956L9.00866 9.98441L8.90259 9.95778L11.2125 4.66956Z" fill="#918E8E"/>
<path fill-rule="evenodd" clip-rule="evenodd" d="M11.2125 4.66956L8.92384 9.96308L8.81812 9.93541L11.2125 4.66956Z" fill="#928F8F"/>
<path fill-rule="evenodd" clip-rule="evenodd" d="M11.2124 4.66956L8.83916 9.94095L8.73401 9.91235L11.2124 4.66956Z" fill="#938F8F"/>
<path fill-rule="evenodd" clip-rule="evenodd" d="M11.2124 4.66956L8.75495 9.918L8.65027 9.88837L11.2124 4.66956Z" fill="#939090"/>
<path fill-rule="evenodd" clip-rule="evenodd" d="M11.2125 4.66956L8.67136 9.89437L8.56702 9.8637L11.2125 4.66956Z" fill="#949191"/>
<path fill-rule="evenodd" clip-rule="evenodd" d="M11.2125 4.66956L8.58789 9.86981L8.48413 9.83822L11.2125 4.66956Z" fill="#959191"/>
<path fill-rule="evenodd" clip-rule="evenodd" d="M11.2124 4.66956L8.50479 9.84456L8.40149 9.81193L11.2124 4.66956Z" fill="#959292"/>
<path fill-rule="evenodd" clip-rule="evenodd" d="M11.2125 4.66956L8.42231 9.81851L8.31958 9.78484L11.2125 4.66956Z" fill="#969292"/>
<path fill-rule="evenodd" clip-rule="evenodd" d="M11.2125 4.66956L8.34006 9.79164L8.23792 9.75705L11.2125 4.66956Z" fill="#969393"/>
<path fill-rule="evenodd" clip-rule="evenodd" d="M11.2124 4.66956L8.2583 9.76397L8.15662 9.72846L11.2124 4.66956Z" fill="#979494"/>
<path fill-rule="evenodd" clip-rule="evenodd" d="M11.2125 4.66956L8.17704 9.73561L8.07593 9.69906L11.2125 4.66956Z" fill="#989494"/>
<path fill-rule="evenodd" clip-rule="evenodd" d="M11.2125 4.66956L8.09626 9.70644L7.99573 9.66897L11.2125 4.66956Z" fill="#989595"/>
<path fill-rule="evenodd" clip-rule="evenodd" d="M11.2125 4.66956L8.01586 9.67647L7.91602 9.63807L11.2125 4.66956Z" fill="#999595"/>
<path fill-rule="evenodd" clip-rule="evenodd" d="M11.2124 4.66956L7.93594 9.6458L7.83667 9.60648L11.2124 4.66956Z" fill="#999696"/>
<path fill-rule="evenodd" clip-rule="evenodd" d="M11.2124 4.66956L7.85651 9.61432L7.75793 9.57409L11.2124 4.66956Z" fill="#9A9696"/>
<path fill-rule="evenodd" clip-rule="evenodd" d="M11.2125 4.66956L7.77769 9.58204L7.67981 9.54088L11.2125 4.66956Z" fill="#9A9797"/>
<path fill-rule="evenodd" clip-rule="evenodd" d="M11.2124 4.66956L7.69936 9.54918L7.60205 9.50699L11.2124 4.66956Z" fill="#9B9797"/>
<path fill-rule="evenodd" clip-rule="evenodd" d="M11.2124 4.66956L7.62152 9.5154L7.5249 9.4724L11.2124 4.66956Z" fill="#9B9898"/>
<path fill-rule="evenodd" clip-rule="evenodd" d="M11.2124 4.66956L7.54417 9.48105L7.44836 9.43712L11.2124 4.66956Z" fill="#9C9898"/>
<path fill-rule="evenodd" clip-rule="evenodd" d="M11.2125 4.66956L7.46755 9.44588L7.37244 9.40103L11.2125 4.66956Z" fill="#9C9999"/>
<path fill-rule="evenodd" clip-rule="evenodd" d="M11.2124 4.66956L7.39141 9.41003L7.29688 9.36425L11.2124 4.66956Z" fill="#9D9999"/>
<path fill-rule="evenodd" clip-rule="evenodd" d="M11.2124 4.66956L7.31578 9.37336L7.22205 9.32678L11.2124 4.66956Z" fill="#9D9A9A"/>
<path fill-rule="evenodd" clip-rule="evenodd" d="M11.2125 4.66956L7.24087 9.33601L7.14795 9.28851L11.2125 4.66956Z" fill="#9E9A9A"/>
<path fill-rule="evenodd" clip-rule="evenodd" d="M11.2124 4.66956L7.16645 9.29808L7.07422 9.24965L11.2124 4.66956Z" fill="#9E9B9B"/>
<path fill-rule="evenodd" clip-rule="evenodd" d="M11.2125 4.66956L7.09277 9.25934L7.00134 9.20999L11.2125 4.66956Z" fill="#9F9B9B"/>
<path fill-rule="evenodd" clip-rule="evenodd" d="M11.2124 4.66956L7.01957 9.21991L6.92896 9.16976L11.2124 4.66956Z" fill="#9F9C9C"/>
<path fill-rule="evenodd" clip-rule="evenodd" d="M11.2125 4.66956L6.94711 9.17979L6.8573 9.12883L11.2125 4.66956Z" fill="#A09C9C"/>
<path fill-rule="evenodd" clip-rule="evenodd" d="M11.2124 4.66956L6.87526 9.13897L6.78625 9.08709L11.2124 4.66956Z" fill="#A19D9D"/>
<path fill-rule="evenodd" clip-rule="evenodd" d="M11.2125 4.66956L6.80403 9.09747L6.71594 9.04478L11.2125 4.66956Z" fill="#A19E9E"/>
<path fill-rule="evenodd" clip-rule="evenodd" d="M11.2125 4.66956L6.73364 9.05539L6.64636 9.00178L11.2125 4.66956Z" fill="#A29E9E"/>
<path fill-rule="evenodd" clip-rule="evenodd" d="M11.2125 4.66956L6.66374 9.0125L6.57727 8.9582L11.2125 4.66956Z" fill="#A39F9F"/>
<path fill-rule="evenodd" clip-rule="evenodd" d="M11.2125 4.66956L6.59458 8.96903L6.50903 8.91392L11.2125 4.66956Z" fill="#A3A0A0"/>
<path fill-rule="evenodd" clip-rule="evenodd" d="M11.2124 4.66956L6.52615 8.92488L6.44141 8.86896L11.2124 4.66956Z" fill="#A4A0A0"/>
<path fill-rule="evenodd" clip-rule="evenodd" d="M11.2125 4.66956L6.45845 8.88014L6.37463 8.82342L11.2125 4.66956Z" fill="#A5A1A1"/>
<path fill-rule="evenodd" clip-rule="evenodd" d="M11.2124 4.66956L6.39137 8.83472L6.30847 8.77719L11.2124 4.66956Z" fill="#A5A2A2"/>
<path fill-rule="evenodd" clip-rule="evenodd" d="M11.2125 4.66956L6.32514 8.78872L6.24316 8.73038L11.2125 4.66956Z" fill="#A6A3A3"/>
<path fill-rule="evenodd" clip-rule="evenodd" d="M11.2125 4.66956L6.25952 8.74202L6.17859 8.68288L11.2125 4.66956Z" fill="#A7A3A3"/>
<path fill-rule="evenodd" clip-rule="evenodd" d="M11.2125 4.66956L6.19476 8.69475L6.11475 8.63492L11.2125 4.66956Z" fill="#A8A4A4"/>
<path fill-rule="evenodd" clip-rule="evenodd" d="M11.2125 4.66956L6.13073 8.64679L6.05164 8.58626L11.2125 4.66956Z" fill="#A9A5A5"/>
<path fill-rule="evenodd" clip-rule="evenodd" d="M11.2125 4.66956L6.06743 8.59837L5.98938 8.53692L11.2125 4.66956Z" fill="#AAA6A6"/>
<path fill-rule="evenodd" clip-rule="evenodd" d="M11.2125 4.66956L6.00511 8.54925L5.92798 8.48711L11.2125 4.66956Z" fill="#ABA7A7"/>
<path fill-rule="evenodd" clip-rule="evenodd" d="M11.2125 4.66956L5.9434 8.49956L5.86719 8.43673L11.2125 4.66956Z" fill="#ACA8A8"/>
<path fill-rule="evenodd" clip-rule="evenodd" d="M11.2125 4.66956L5.88243 8.4493L5.80737 8.38577L11.2125 4.66956Z" fill="#ADA9A9"/>
<path fill-rule="evenodd" clip-rule="evenodd" d="M11.2124 4.66956L5.82231 8.39845L5.74829 8.33423L11.2124 4.66956Z" fill="#AEAAAA"/>
<path fill-rule="evenodd" clip-rule="evenodd" d="M11.2124 4.66956L5.76304 8.34703L5.69006 8.28212L11.2124 4.66956Z" fill="#AFABAB"/>
<path fill-rule="evenodd" clip-rule="evenodd" d="M11.2125 4.66956L5.70475 8.29503L5.63269 8.22943L11.2125 4.66956Z" fill="#B0ACAC"/>
<path fill-rule="evenodd" clip-rule="evenodd" d="M11.2125 4.66956L5.64708 8.24258L5.57617 8.17628L11.2125 4.66956Z" fill="#B1ADAD"/>
<path fill-rule="evenodd" clip-rule="evenodd" d="M11.2125 4.66956L5.59037 8.18954L5.52051 8.12256L11.2125 4.66956Z" fill="#B2AEAE"/>
<path fill-rule="evenodd" clip-rule="evenodd" d="M11.2124 4.66956L5.53441 8.13593L5.46558 8.06825L11.2124 4.66956Z" fill="#B3AFAF"/>
<path fill-rule="evenodd" clip-rule="evenodd" d="M11.2124 4.66956L5.47941 8.08174L5.41162 8.01349L11.2124 4.66956Z" fill="#B4B0B0"/>
<path fill-rule="evenodd" clip-rule="evenodd" d="M11.2125 4.66956L5.42528 8.0271L5.35864 7.95827L11.2125 4.66956Z" fill="#B5B1B1"/>
<path fill-rule="evenodd" clip-rule="evenodd" d="M11.2125 4.66956L5.372 7.97199L5.3064 7.90246L11.2125 4.66956Z" fill="#B6B2B2"/>
<path fill-rule="evenodd" clip-rule="evenodd" d="M11.2125 4.66956L5.31958 7.9163L5.25525 7.8462L11.2125 4.66956Z" fill="#B7B3B3"/>
<path fill-rule="evenodd" clip-rule="evenodd" d="M11.2125 4.66956L5.26801 7.86027L5.20483 7.78948L11.2125 4.66956Z" fill="#B8B4B4"/>
<path fill-rule="evenodd" clip-rule="evenodd" d="M11.2125 4.66956L5.21742 7.80354L5.1554 7.73218L11.2125 4.66956Z" fill="#B8B4B4"/>
<path fill-rule="evenodd" clip-rule="evenodd" d="M11.2124 4.66956L5.16768 7.74647L5.10669 7.67453L11.2124 4.66956Z" fill="#B8B4B4"/>
<path fill-rule="evenodd" clip-rule="evenodd" d="M11.2125 4.66956L5.11892 7.68894L5.05908 7.61642L11.2125 4.66956Z" fill="#B8B4B4"/>
<path fill-rule="evenodd" clip-rule="evenodd" d="M11.2124 4.66956L5.07102 7.63095L5.01245 7.55786L11.2124 4.66956Z" fill="#B7B3B3"/>
<path fill-rule="evenodd" clip-rule="evenodd" d="M11.2125 4.66956L5.02421 7.57238L4.9668 7.49883L11.2125 4.66956Z" fill="#B7B3B3"/>
<path fill-rule="evenodd" clip-rule="evenodd" d="M11.2124 4.66956L4.97814 7.51347L4.92188 7.43934L11.2124 4.66956Z" fill="#B6B2B2"/>
<path fill-rule="evenodd" clip-rule="evenodd" d="M11.2124 4.66956L4.93316 7.45421L4.87805 7.3795L11.2124 4.66956Z" fill="#B5B2B2"/>
<path fill-rule="evenodd" clip-rule="evenodd" d="M11.2125 4.66956L4.88905 7.39437L4.83521 7.3192L11.2125 4.66956Z" fill="#B5B1B1"/>
<path fill-rule="evenodd" clip-rule="evenodd" d="M11.2125 4.66956L4.8459 7.33419L4.79321 7.25844L11.2125 4.66956Z" fill="#B4B0B0"/>
<path fill-rule="evenodd" clip-rule="evenodd" d="M11.2125 4.66956L4.80385 7.27366L4.75232 7.19734L11.2125 4.66956Z" fill="#B3AFAF"/>
<path fill-rule="evenodd" clip-rule="evenodd" d="M11.2125 4.66956L4.76267 7.21267L4.7124 7.13589L11.2125 4.66956Z" fill="#B2AEAE"/>
<path fill-rule="evenodd" clip-rule="evenodd" d="M11.2125 4.66956L4.72246 7.15122L4.67346 7.07409L11.2125 4.66956Z" fill="#B1ADAD"/>
<path fill-rule="evenodd" clip-rule="evenodd" d="M11.2124 4.66956L4.68322 7.08954L4.63538 7.01183L11.2124 4.66956Z" fill="#B0ACAC"/>
<path fill-rule="evenodd" clip-rule="evenodd" d="M11.2125 4.66956L4.64497 7.0274L4.59851 6.94934L11.2125 4.66956Z" fill="#AFABAB"/>
<path fill-rule="evenodd" clip-rule="evenodd" d="M11.2124 4.66956L4.60769 6.96491L4.56238 6.88639L11.2124 4.66956Z" fill="#AEAAAA"/>
<path fill-rule="evenodd" clip-rule="evenodd" d="M11.2125 4.66956L4.57151 6.90207L4.52747 6.82321L11.2125 4.66956Z" fill="#ADA9A9"/>
<path fill-rule="evenodd" clip-rule="evenodd" d="M11.2124 4.66956L4.5363 6.83901L4.49353 6.75957L11.2124 4.66956Z" fill="#ACA8A8"/>
<path fill-rule="evenodd" clip-rule="evenodd" d="M11.2124 4.66956L4.50208 6.77548L4.46057 6.6957L11.2124 4.66956Z" fill="#AAA7A7"/>
<path fill-rule="evenodd" clip-rule="evenodd" d="M11.2125 4.66956L4.46895 6.71161L4.42871 6.63148L11.2125 4.66956Z" fill="#A9A6A6"/>
<path fill-rule="evenodd" clip-rule="evenodd" d="M11.2125 4.66956L4.4368 6.64751L4.39783 6.56703L11.2125 4.66956Z" fill="#A8A5A5"/>
<path fill-rule="evenodd" clip-rule="evenodd" d="M11.2125 4.66956L4.40563 6.58318L4.36804 6.50224L11.2125 4.66956Z" fill="#A7A4A4"/>
<path fill-rule="evenodd" clip-rule="evenodd" d="M11.2125 4.66956L4.37555 6.51838L4.33923 6.43722L11.2125 4.66956Z" fill="#A6A3A3"/>
<path fill-rule="evenodd" clip-rule="evenodd" d="M11.2124 4.66956L4.34645 6.45347L4.3114 6.37185L11.2124 4.66956Z" fill="#A5A2A2"/>
<path fill-rule="evenodd" clip-rule="evenodd" d="M11.2125 4.66956L4.31845 6.38822L4.28467 6.30624L11.2125 4.66956Z" fill="#A4A1A1"/>
<path fill-rule="evenodd" clip-rule="evenodd" d="M11.2125 4.66956L4.29155 6.32262L4.25916 6.24041L11.2125 4.66956Z" fill="#A3A1A1"/>
<path fill-rule="evenodd" clip-rule="evenodd" d="M11.2124 4.66956L4.2655 6.2569L4.23438 6.17435L11.2124 4.66956Z" fill="#A3A0A0"/>
<path fill-rule="evenodd" clip-rule="evenodd" d="M11.2124 4.66956L4.24056 6.19084L4.21082 6.10806L11.2124 4.66956Z" fill="#A29F9F"/>
<path fill-rule="evenodd" clip-rule="evenodd" d="M11.2125 4.66956L4.21695 6.12466L4.18848 6.04153L11.2125 4.66956Z" fill="#A19E9E"/>
<path fill-rule="evenodd" clip-rule="evenodd" d="M11.2125 4.66956L4.19409 6.05814L4.16699 5.97478L11.2125 4.66956Z" fill="#A09D9D"/>
<path fill-rule="evenodd" clip-rule="evenodd" d="M11.2125 4.66956L4.17244 5.9915L4.14673 5.90791L11.2125 4.66956Z" fill="#9F9C9C"/>
<path fill-rule="evenodd" clip-rule="evenodd" d="M11.2125 4.66956L4.15176 5.92463L4.12732 5.84081L11.2125 4.66956Z" fill="#9E9B9B"/>
<path fill-rule="evenodd" clip-rule="evenodd" d="M11.2124 4.66956L4.13218 5.85753L4.10901 5.77348L11.2124 4.66956Z" fill="#9D9B9B"/>
<path fill-rule="evenodd" clip-rule="evenodd" d="M11.2125 4.66956L4.11383 5.79031L4.09204 5.70603L11.2125 4.66956Z" fill="#9C9A9A"/>
<path fill-rule="evenodd" clip-rule="evenodd" d="M11.2125 4.66956L4.09646 5.72287L4.07605 5.63836L11.2125 4.66956Z" fill="#9C9999"/>
<path fill-rule="evenodd" clip-rule="evenodd" d="M11.2125 4.66956L4.08006 5.6553L4.06104 5.57068L11.2125 4.66956Z" fill="#9B9898"/>
<path fill-rule="evenodd" clip-rule="evenodd" d="M11.2125 4.66956L4.06488 5.58763L4.04724 5.50277L11.2125 4.66956Z" fill="#9A9898"/>
<path fill-rule="evenodd" clip-rule="evenodd" d="M11.2125 4.66956L4.05068 5.51972L4.03442 5.43475L11.2125 4.66956Z" fill="#999797"/>
<path fill-rule="evenodd" clip-rule="evenodd" d="M11.2124 4.66956L4.03757 5.4517L4.02258 5.36661L11.2124 4.66956Z" fill="#999696"/>
<path fill-rule="evenodd" clip-rule="evenodd" d="M11.2124 4.66956L4.02557 5.38356L4.01196 5.29836L11.2124 4.66956Z" fill="#989696"/>
<path fill-rule="evenodd" clip-rule="evenodd" d="M11.2125 4.66956L4.01478 5.31542L4.00256 5.22999L11.2125 4.66956Z" fill="#979595"/>
<path fill-rule="evenodd" clip-rule="evenodd" d="M11.2125 4.66956L4.00498 5.24705L3.99414 5.16151L11.2125 4.66956Z" fill="#979494"/>
<path fill-rule="evenodd" clip-rule="evenodd" d="M11.2124 4.66956L3.99626 5.17869L3.98669 5.09302L11.2124 4.66956Z" fill="#969494"/>
<path fill-rule="evenodd" clip-rule="evenodd" d="M11.2124 4.66956L3.98865 5.1102L3.98047 5.02454L11.2124 4.66956Z" fill="#959393"/>
<path fill-rule="evenodd" clip-rule="evenodd" d="M11.2125 4.66956L3.98215 5.0416L3.97546 4.95583L11.2125 4.66956Z" fill="#959292"/>
<path fill-rule="evenodd" clip-rule="evenodd" d="M11.2125 4.66956L3.97674 4.973L3.97144 4.88723L11.2125 4.66956Z" fill="#949292"/>
<path fill-rule="evenodd" clip-rule="evenodd" d="M11.2124 4.66956L3.97242 4.90441L3.96838 4.81851L11.2124 4.66956Z" fill="#939191"/>
<path fill-rule="evenodd" clip-rule="evenodd" d="M11.2124 4.66956L3.9692 4.83569L3.96655 4.7498L11.2124 4.66956Z" fill="#939191"/>
<path fill-rule="evenodd" clip-rule="evenodd" d="M11.2125 4.66956L3.96721 4.76698L3.96594 4.68108L11.2125 4.66956Z" fill="#929090"/>
<path fill-rule="evenodd" clip-rule="evenodd" d="M11.2124 4.66955L3.96606 4.69826L3.96618 4.61237L11.2124 4.66955Z" fill="#929090"/>
<path fill-rule="evenodd" clip-rule="evenodd" d="M11.2124 4.66953L3.96619 4.62953L3.96769 4.54352L11.2124 4.66953Z" fill="#918F8F"/>
<path fill-rule="evenodd" clip-rule="evenodd" d="M11.2125 4.66959L3.96741 4.56075L3.97029 4.47498L11.2125 4.66959Z" fill="#908F8F"/>
<path fill-rule="evenodd" clip-rule="evenodd" d="M11.2125 4.66958L3.96973 4.49214L3.97399 4.40625L11.2125 4.66958Z" fill="#908E8E"/>
<path fill-rule="evenodd" clip-rule="evenodd" d="M11.2125 4.66957L3.97314 4.42342L3.97868 4.33765L11.2125 4.66957Z" fill="#8F8D8D"/>
<path fill-rule="evenodd" clip-rule="evenodd" d="M11.2125 4.66957L3.97766 4.3547L3.98458 4.26904L11.2125 4.66957Z" fill="#8E8D8D"/>
<path fill-rule="evenodd" clip-rule="evenodd" d="M11.2124 4.66956L3.98315 4.2861L3.99145 4.20044L11.2124 4.66956Z" fill="#8E8C8C"/>
<path fill-rule="evenodd" clip-rule="evenodd" d="M11.2125 4.66957L3.98987 4.21762L3.99955 4.13196L11.2125 4.66957Z" fill="#8D8B8B"/>
<path fill-rule="evenodd" clip-rule="evenodd" d="M11.2124 4.66957L3.99756 4.14915L4.00874 4.0636L11.2124 4.66957Z" fill="#8C8B8B"/>
<path fill-rule="evenodd" clip-rule="evenodd" d="M11.2125 4.66953L4.00647 4.08073L4.01904 3.9953L11.2125 4.66953Z" fill="#8C8A8A"/>
<path fill-rule="evenodd" clip-rule="evenodd" d="M11.2124 4.66955L4.01648 4.01239L4.03031 3.92719L11.2124 4.66955Z" fill="#8B8989"/>
<path fill-rule="evenodd" clip-rule="evenodd" d="M11.2125 4.66957L4.02759 3.94427L4.04281 3.85907L11.2125 4.66957Z" fill="#8A8989"/>
<path fill-rule="evenodd" clip-rule="evenodd" d="M11.2125 4.66955L4.03967 3.87611L4.05627 3.79114L11.2125 4.66955Z" fill="#898888"/>
<path fill-rule="evenodd" clip-rule="evenodd" d="M11.2125 4.66959L4.05298 3.80824L4.07085 3.72339L11.2125 4.66959Z" fill="#898787"/>
<path fill-rule="evenodd" clip-rule="evenodd" d="M11.2125 4.66958L4.06726 3.74033L4.08663 3.6557L11.2125 4.66958Z" fill="#888686"/>
<path fill-rule="evenodd" clip-rule="evenodd" d="M11.2124 4.66958L4.08264 3.67265L4.10328 3.58826L11.2124 4.66958Z" fill="#878686"/>
<path fill-rule="evenodd" clip-rule="evenodd" d="M11.2124 4.66952L4.09912 3.60503L4.12114 3.52075L11.2124 4.66952Z" fill="#868585"/>
<path fill-rule="evenodd" clip-rule="evenodd" d="M11.2125 4.66955L4.11682 3.53772L4.14011 3.45367L11.2125 4.66955Z" fill="#858484"/>
<path fill-rule="evenodd" clip-rule="evenodd" d="M11.2125 4.66957L4.13538 3.47054L4.16005 3.38672L11.2125 4.66957Z" fill="#848383"/>
<path fill-rule="evenodd" clip-rule="evenodd" d="M11.2125 4.66955L4.15515 3.40341L4.18121 3.31982L11.2125 4.66955Z" fill="#838282"/>
<path fill-rule="evenodd" clip-rule="evenodd" d="M11.2124 4.66955L4.1759 3.33654L4.20323 3.2533L11.2124 4.66955Z" fill="#828181"/>
<path fill-rule="evenodd" clip-rule="evenodd" d="M11.2125 4.66955L4.19775 3.2699L4.22646 3.18689L11.2125 4.66955Z" fill="#828080"/>
<path fill-rule="evenodd" clip-rule="evenodd" d="M11.2125 4.66956L4.2207 3.20351L4.25068 3.12073L11.2125 4.66956Z" fill="#818080"/>
<path fill-rule="evenodd" clip-rule="evenodd" d="M11.2124 4.66954L4.24463 3.1373L4.27599 3.05487L11.2124 4.66954Z" fill="#807F7F"/>
<path fill-rule="evenodd" clip-rule="evenodd" d="M11.2124 4.66958L4.26978 3.0714L4.3024 2.9892L11.2124 4.66958Z" fill="#7F7E7E"/>
<path fill-rule="evenodd" clip-rule="evenodd" d="M11.2125 4.66952L4.2959 3.00562L4.32979 2.92377L11.2125 4.66952Z" fill="#7E7D7D"/>
<path fill-rule="evenodd" clip-rule="evenodd" d="M11.2125 4.66954L4.32312 2.94015L4.35828 2.85864L11.2125 4.66954Z" fill="#7D7C7C"/>
<path fill-rule="evenodd" clip-rule="evenodd" d="M11.2125 4.66957L4.3512 2.87493L4.38774 2.79376L11.2125 4.66957Z" fill="#7C7B7B"/>
<path fill-rule="evenodd" clip-rule="evenodd" d="M11.2125 4.66955L4.38049 2.81001L4.41831 2.72919L11.2125 4.66955Z" fill="#7B7A7A"/>
<path fill-rule="evenodd" clip-rule="evenodd" d="M11.2124 4.66956L4.41064 2.74533L4.44984 2.66486L11.2124 4.66956Z" fill="#797979"/>
<path fill-rule="evenodd" clip-rule="evenodd" d="M11.2124 4.66958L4.44202 2.68102L4.48237 2.60089L11.2124 4.66958Z" fill="#787878"/>
<path fill-rule="evenodd" clip-rule="evenodd" d="M11.2125 4.66956L4.47437 2.6169L4.5161 2.53723L11.2125 4.66956Z" fill="#777777"/>
<path fill-rule="evenodd" clip-rule="evenodd" d="M11.2125 4.66956L4.50781 2.55314L4.5507 2.47382L11.2125 4.66956Z" fill="#767676"/>
<path fill-rule="evenodd" clip-rule="evenodd" d="M11.2125 4.66958L4.54211 2.48975L4.58639 2.41089L11.2125 4.66958Z" fill="#757575"/>
<path fill-rule="evenodd" clip-rule="evenodd" d="M11.2125 4.66955L4.57751 2.42654L4.62294 2.34814L11.2125 4.66955Z" fill="#747474"/>
<path fill-rule="evenodd" clip-rule="evenodd" d="M11.2125 4.66955L4.61389 2.36382L4.6607 2.28577L11.2125 4.66955Z" fill="#737373"/>
<path fill-rule="evenodd" clip-rule="evenodd" d="M11.2125 4.66957L4.65137 2.30147L4.69933 2.22388L11.2125 4.66957Z" fill="#727272"/>
<path fill-rule="evenodd" clip-rule="evenodd" d="M11.2125 4.66955L4.6897 2.23931L4.73893 2.16229L11.2125 4.66955Z" fill="#717171"/>
<path fill-rule="evenodd" clip-rule="evenodd" d="M11.2125 4.66955L4.729 2.17763L4.7795 2.10107L11.2125 4.66955Z" fill="#707070"/>
<path fill-rule="evenodd" clip-rule="evenodd" d="M11.2124 4.66958L4.76941 2.11643L4.82106 2.04022L11.2124 4.66958Z" fill="#706F6F"/>
<path fill-rule="evenodd" clip-rule="evenodd" d="M11.2125 4.66956L4.81079 2.05543L4.86371 1.9798L11.2125 4.66956Z" fill="#6F6F6F"/>
<path fill-rule="evenodd" clip-rule="evenodd" d="M11.2124 4.66958L4.85303 1.99492L4.9071 1.91986L11.2124 4.66958Z" fill="#6E6E6E"/>
<path fill-rule="evenodd" clip-rule="evenodd" d="M11.2124 4.66955L4.89636 1.93482L4.95159 1.86023L11.2124 4.66955Z" fill="#6E6E6E"/>
<path fill-rule="evenodd" clip-rule="evenodd" d="M11.2124 4.66955L4.94055 1.8751L4.99704 1.80096L11.2124 4.66955Z" fill="#6D6D6D"/>
<path fill-rule="evenodd" clip-rule="evenodd" d="M11.2124 4.66958L4.98572 1.81587L5.04348 1.74231L11.2124 4.66958Z" fill="#6D6D6D"/>
<path fill-rule="evenodd" clip-rule="evenodd" d="M11.2125 4.66957L5.03198 1.75706L5.09078 1.68396L11.2125 4.66957Z" fill="#6E6E6E"/>
<path fill-rule="evenodd" clip-rule="evenodd" d="M11.2125 4.66953L5.0791 1.69856L5.13905 1.62616L11.2125 4.66953Z" fill="#737373"/>
<path fill-rule="evenodd" clip-rule="evenodd" d="M11.2124 4.66957L5.12695 1.64061L5.18817 1.56879L11.2124 4.66957Z" fill="#797979"/>
<path fill-rule="evenodd" clip-rule="evenodd" d="M11.2125 4.66959L5.17603 1.58321L5.23828 1.51196L11.2125 4.66959Z" fill="#7F7F7F"/>
<path fill-rule="evenodd" clip-rule="evenodd" d="M11.2125 4.66956L5.22583 1.52612L5.28924 1.45544L11.2125 4.66956Z" fill="#858585"/>
<path fill-rule="evenodd" clip-rule="evenodd" d="M11.2124 4.66957L5.27649 1.46963L5.34105 1.39954L11.2124 4.66957Z" fill="#8B8B8B"/>
<path fill-rule="evenodd" clip-rule="evenodd" d="M11.2125 4.66954L5.32825 1.41346L5.39396 1.34406L11.2125 4.66954Z" fill="#909090"/>
<path fill-rule="evenodd" clip-rule="evenodd" d="M11.2124 4.66955L5.38074 1.35801L5.44749 1.28918L11.2124 4.66955Z" fill="#959595"/>
<path fill-rule="evenodd" clip-rule="evenodd" d="M11.2124 4.66958L5.43408 1.30293L5.50199 1.23468L11.2124 4.66958Z" fill="#9A9A9A"/>
<path fill-rule="evenodd" clip-rule="evenodd" d="M11.2124 4.66953L5.48853 1.24835L5.55747 1.18079L11.2124 4.66953Z" fill="#9E9E9E"/>
<path fill-rule="evenodd" clip-rule="evenodd" d="M11.2125 4.66956L5.5437 1.19431L5.6138 1.12744L11.2125 4.66956Z" fill="#A1A1A1"/>
<path fill-rule="evenodd" clip-rule="evenodd" d="M11.2125 4.66957L5.59973 1.14082L5.67087 1.07465L11.2125 4.66957Z" fill="#A5A5A5"/>
<path fill-rule="evenodd" clip-rule="evenodd" d="M11.2124 4.66955L5.65662 1.08788L5.72879 1.02228L11.2124 4.66955Z" fill="#A8A8A8"/>
<path fill-rule="evenodd" clip-rule="evenodd" d="M11.2125 4.66956L5.71436 1.03543L5.78768 0.97052L11.2125 4.66956Z" fill="#ABABAB"/>
<path fill-rule="evenodd" clip-rule="evenodd" d="M11.2124 4.66954L5.77295 0.983536L5.84708 0.919434L11.2124 4.66954Z" fill="#ADADAD"/>
<path fill-rule="evenodd" clip-rule="evenodd" d="M11.2125 4.66956L5.8324 0.932246L5.90768 0.868835L11.2125 4.66956Z" fill="#B0B0B0"/>
<path fill-rule="evenodd" clip-rule="evenodd" d="M11.2125 4.66955L5.89258 0.881506L5.9689 0.818787L11.2125 4.66955Z" fill="#B2B2B2"/>
<path fill-rule="evenodd" clip-rule="evenodd" d="M11.2124 4.66957L5.95349 0.831375L6.03074 0.769348L11.2124 4.66957Z" fill="#B4B4B4"/>
<path fill-rule="evenodd" clip-rule="evenodd" d="M11.2125 4.66956L6.01538 0.781679L6.09366 0.720459L11.2125 4.66956Z" fill="#B6B6B6"/>
<path fill-rule="evenodd" clip-rule="evenodd" d="M11.2124 4.66954L6.07788 0.732654L6.1572 0.672241L11.2124 4.66954Z" fill="#B7B7B7"/>
<path fill-rule="evenodd" clip-rule="evenodd" d="M11.2125 4.66954L6.14136 0.684348L6.2216 0.624512L11.2125 4.66954Z" fill="#B9B9B9"/>
<path fill-rule="evenodd" clip-rule="evenodd" d="M11.2125 4.66958L6.20557 0.636544L6.28662 0.577515L11.2125 4.66958Z" fill="#BBBBBB"/>
<path fill-rule="evenodd" clip-rule="evenodd" d="M11.2125 4.66954L6.27051 0.58935L6.3526 0.531128L11.2125 4.66954Z" fill="#BDBDBD"/>
<path fill-rule="evenodd" clip-rule="evenodd" d="M11.2125 4.66954L6.33606 0.542767L6.41907 0.485352L11.2125 4.66954Z" fill="#BFBFBF"/>
<path fill-rule="evenodd" clip-rule="evenodd" d="M11.2125 4.66956L6.40247 0.496794L6.4864 0.440186L11.2125 4.66956Z" fill="#C0C0C0"/>
<path fill-rule="evenodd" clip-rule="evenodd" d="M11.2125 4.66957L6.46973 0.451492L6.55447 0.395691L11.2125 4.66957Z" fill="#C2C2C2"/>
<path fill-rule="evenodd" clip-rule="evenodd" d="M11.2125 4.66956L6.53748 0.406862L6.62325 0.351868L11.2125 4.66956Z" fill="#C4C4C4"/>
<path fill-rule="evenodd" clip-rule="evenodd" d="M11.2125 4.66958L6.60608 0.362842L6.69266 0.308655L11.2125 4.66958Z" fill="#C6C6C6"/>
<path fill-rule="evenodd" clip-rule="evenodd" d="M11.2125 4.66958L6.67542 0.319494L6.76281 0.266113L11.2125 4.66958Z" fill="#C7C7C7"/>
<path fill-rule="evenodd" clip-rule="evenodd" d="M11.2125 4.66956L6.74524 0.276816L6.83355 0.224243L11.2125 4.66956Z" fill="#C9C9C9"/>
<path fill-rule="evenodd" clip-rule="evenodd" d="M11.2125 4.66953L6.81592 0.234695L6.90504 0.183044L11.2125 4.66953Z" fill="#CBCBCB"/>
<path fill-rule="evenodd" clip-rule="evenodd" d="M11.2125 4.66958L6.88721 0.193361L6.97725 0.142517L11.2125 4.66958Z" fill="#CCCCCC"/>
<path fill-rule="evenodd" clip-rule="evenodd" d="M11.2125 4.66956L6.95923 0.152644L7.04996 0.102722L11.2125 4.66956Z" fill="#CECECE"/>
<path fill-rule="evenodd" clip-rule="evenodd" d="M11.2125 4.66958L7.03174 0.112767L7.12328 0.0635376L11.2125 4.66958Z" fill="#D0D0D0"/>
<path fill-rule="evenodd" clip-rule="evenodd" d="M11.2125 4.66958L7.10498 0.0734539L7.19733 0.0251465L11.2125 4.66958Z" fill="#D1D1D1"/>
<path fill-rule="evenodd" clip-rule="evenodd" d="M11.2124 4.66956L7.17883 0.0348119L7.27187 -0.0125732L11.2124 4.66956Z" fill="#D3D3D3"/>
<path fill-rule="evenodd" clip-rule="evenodd" d="M11.2124 4.66958L7.2533 -0.00309778L7.34714 -0.0495605L11.2124 4.66958Z" fill="#D5D5D5"/>
<path fill-rule="evenodd" clip-rule="evenodd" d="M11.2124 4.66958L7.32837 -0.040336L7.42291 -0.0858765L11.2124 4.66958Z" fill="#D6D6D6"/>
<path fill-rule="evenodd" clip-rule="evenodd" d="M11.2125 4.66956L7.40405 -0.0767876L7.4994 -0.121521L11.2125 4.66956Z" fill="#D8D8D8"/>
<path fill-rule="evenodd" clip-rule="evenodd" d="M11.2125 4.66959L7.48035 -0.1125L7.57627 -0.156311L11.2125 4.66959Z" fill="#D9D9D9"/>
<path fill-rule="evenodd" clip-rule="evenodd" d="M11.2125 4.66954L7.55713 -0.147602L7.65386 -0.190491L11.2125 4.66954Z" fill="#DBDBDB"/>
<path fill-rule="evenodd" clip-rule="evenodd" d="M11.2125 4.66959L7.63452 -0.181911L7.73183 -0.223877L11.2125 4.66959Z" fill="#DDDDDD"/>
<path fill-rule="evenodd" clip-rule="evenodd" d="M11.2124 4.66956L7.7124 -0.215487L7.8104 -0.256531L11.2124 4.66956Z" fill="#DEDEDE"/>
<path fill-rule="evenodd" clip-rule="evenodd" d="M11.2124 4.66957L7.79077 -0.24833L7.88946 -0.288452L11.2124 4.66957Z" fill="#E0E0E0"/>
<path fill-rule="evenodd" clip-rule="evenodd" d="M11.2124 4.66957L7.86975 -0.280381L7.96902 -0.31958L11.2124 4.66957Z" fill="#E1E1E1"/>
<path fill-rule="evenodd" clip-rule="evenodd" d="M11.2124 4.66956L7.94922 -0.311753L8.04918 -0.349915L11.2124 4.66956Z" fill="#E2E2E2"/>
<path fill-rule="evenodd" clip-rule="evenodd" d="M11.2125 4.66953L8.02917 -0.342338L8.12982 -0.379578L11.2125 4.66953Z" fill="#E4E4E4"/>
<path fill-rule="evenodd" clip-rule="evenodd" d="M11.2125 4.66954L8.10962 -0.372184L8.21073 -0.408386L11.2125 4.66954Z" fill="#E5E5E5"/>
<path fill-rule="evenodd" clip-rule="evenodd" d="M11.2125 4.66954L8.19055 -0.401129L8.29224 -0.436523L11.2125 4.66954Z" fill="#E7E7E7"/>
<path fill-rule="evenodd" clip-rule="evenodd" d="M11.2125 4.66958L8.27197 -0.429449L8.37424 -0.463806L11.2125 4.66958Z" fill="#E8E8E8"/>
<path fill-rule="evenodd" clip-rule="evenodd" d="M11.2124 4.66955L8.35364 -0.456922L8.45648 -0.490356L11.2124 4.66955Z" fill="#E9E9E9"/>
<path fill-rule="evenodd" clip-rule="evenodd" d="M11.2125 4.66956L8.43604 -0.483655L8.53934 -0.516052L11.2125 4.66956Z" fill="#EAEAEA"/>
<path fill-rule="evenodd" clip-rule="evenodd" d="M11.2125 4.66955L8.51868 -0.509602L8.62255 -0.541077L11.2125 4.66955Z" fill="#ECECEC"/>
<path fill-rule="evenodd" clip-rule="evenodd" d="M11.2125 4.66953L8.60168 -0.534755L8.70602 -0.565308L11.2125 4.66953Z" fill="#EDEDED"/>
<path fill-rule="evenodd" clip-rule="evenodd" d="M11.2125 4.66957L8.68518 -0.559163L8.7901 -0.588562L11.2125 4.66957Z" fill="#EEEEEE"/>
<path fill-rule="evenodd" clip-rule="evenodd" d="M11.2124 4.66958L8.76904 -0.582668L8.8743 -0.611145L11.2124 4.66958Z" fill="#EFEFEF"/>
<path fill-rule="evenodd" clip-rule="evenodd" d="M11.2125 4.66958L8.85327 -0.605495L8.95911 -0.632935L11.2125 4.66958Z" fill="#F0F0F0"/>
<path fill-rule="evenodd" clip-rule="evenodd" d="M11.2125 4.66957L8.93787 -0.627413L9.04405 -0.653931L11.2125 4.66957Z" fill="#F1F1F1"/>
<path fill-rule="evenodd" clip-rule="evenodd" d="M11.2125 4.66955L9.02283 -0.648654L9.12936 -0.674133L11.2125 4.66955Z" fill="#F2F2F2"/>
<path fill-rule="evenodd" clip-rule="evenodd" d="M11.2125 4.66957L9.10803 -0.669039L9.21502 -0.693481L11.2125 4.66957Z" fill="#F3F3F3"/>
<path fill-rule="evenodd" clip-rule="evenodd" d="M11.2125 4.66958L9.19373 -0.68851L9.30106 -0.711914L11.2125 4.66958Z" fill="#F4F4F4"/>
<path fill-rule="evenodd" clip-rule="evenodd" d="M11.2124 4.66957L9.27954 -0.707309L9.38722 -0.729675L11.2124 4.66957Z" fill="#F5F5F5"/>
<path fill-rule="evenodd" clip-rule="evenodd" d="M11.2125 4.66955L9.36572 -0.725199L9.47387 -0.746643L11.2125 4.66955Z" fill="#F6F6F6"/>
<path fill-rule="evenodd" clip-rule="evenodd" d="M11.2124 4.66953L9.45215 -0.742404L9.56064 -0.762695L11.2124 4.66953Z" fill="#F7F7F7"/>
<path fill-rule="evenodd" clip-rule="evenodd" d="M11.2125 4.66954L9.53906 -0.758646L9.64778 -0.778015L11.2125 4.66954Z" fill="#F8F8F8"/>
<path fill-rule="evenodd" clip-rule="evenodd" d="M11.2125 4.66955L9.62598 -0.774088L9.73504 -0.792419L11.2125 4.66955Z" fill="#F9F9F9"/>
<path fill-rule="evenodd" clip-rule="evenodd" d="M11.2125 4.66954L9.71326 -0.788736L9.82255 -0.80603L11.2125 4.66954Z" fill="#F9F9F9"/>
<path fill-rule="evenodd" clip-rule="evenodd" d="M11.2125 4.66959L9.80066 -0.802524L9.9103 -0.818665L11.2125 4.66959Z" fill="#FAFAFA"/>
<path fill-rule="evenodd" clip-rule="evenodd" d="M11.2124 4.66956L9.88831 -0.81547L9.99806 -0.830688L11.2124 4.66956Z" fill="#FBFBFB"/>
<path fill-rule="evenodd" clip-rule="evenodd" d="M11.2125 4.66958L9.9762 -0.82767L10.0862 -0.841736L11.2125 4.66958Z" fill="#FBFBFB"/>
<path fill-rule="evenodd" clip-rule="evenodd" d="M11.2125 4.66958L10.0643 -0.838962L10.1746 -0.85199L11.2125 4.66958Z" fill="#FCFCFC"/>
<path fill-rule="evenodd" clip-rule="evenodd" d="M11.2125 4.66958L10.1525 -0.84946L10.2629 -0.86145L11.2125 4.66958Z" fill="#FCFCFC"/>
<path fill-rule="evenodd" clip-rule="evenodd" d="M11.2124 4.66956L10.2408 -0.859049L10.3514 -0.870117L11.2124 4.66956Z" fill="#FDFDFD"/>
<path fill-rule="evenodd" clip-rule="evenodd" d="M11.2125 4.66953L10.3293 -0.867838L10.4403 -0.877869L11.2125 4.66953Z" fill="#FDFDFD"/>
<path fill-rule="evenodd" clip-rule="evenodd" d="M11.2125 4.66955L10.4181 -0.875773L10.529 -0.884766L11.2125 4.66955Z" fill="#FEFEFE"/>
<path fill-rule="evenodd" clip-rule="evenodd" d="M11.2124 4.66957L10.5068 -0.882907L10.618 -0.890747L11.2124 4.66957Z" fill="#FEFEFE"/>
<path fill-rule="evenodd" clip-rule="evenodd" d="M11.2124 4.66957L10.5957 -0.889248L10.707 -0.895935L11.2124 4.66957Z" fill="#FEFEFE"/>
<path fill-rule="evenodd" clip-rule="evenodd" d="M11.2125 4.66955L10.6848 -0.89468L10.7962 -0.90033L11.2125 4.66955Z" fill="white"/>
<path fill-rule="evenodd" clip-rule="evenodd" d="M11.2125 4.66953L10.7738 -0.899204L10.8853 -0.903931L11.2125 4.66953Z" fill="white"/>
<path fill-rule="evenodd" clip-rule="evenodd" d="M11.2125 4.66955L10.863 -0.902981L10.9745 -0.906555L11.2125 4.66955Z" fill="white"/>
<path fill-rule="evenodd" clip-rule="evenodd" d="M11.2125 4.66957L10.9521 -0.90585L11.0638 -0.908386L11.2125 4.66957Z" fill="white"/>
<path fill-rule="evenodd" clip-rule="evenodd" d="M11.2125 4.66957L11.0414 -0.907925L11.153 -0.909424L11.2125 4.66957Z" fill="white"/>
<path fill-rule="evenodd" clip-rule="evenodd" d="M11.2125 4.66956L11.1307 -0.909085L11.2422 -0.909546L11.2125 4.66956Z" fill="white"/>
<path fill-rule="evenodd" clip-rule="evenodd" d="M11.2125 4.66957L11.22 -0.909424L11.3316 -0.908847L11.2125 4.66957Z" fill="white"/>
<path fill-rule="evenodd" clip-rule="evenodd" d="M11.2125 4.66953L11.3093 -0.908997L11.4209 -0.907267L11.2125 4.66953Z" fill="white"/>
<path fill-rule="evenodd" clip-rule="evenodd" d="M11.2125 4.66955L11.3985 -0.907593L11.5101 -0.904826L11.2125 4.66955Z" fill="white"/>
<path fill-rule="evenodd" clip-rule="evenodd" d="M11.2125 4.66956L11.4877 -0.905396L11.5992 -0.901591L11.2125 4.66956Z" fill="#FEFEFE"/>
<path fill-rule="evenodd" clip-rule="evenodd" d="M11.2125 4.66955L11.577 -0.902405L11.6883 -0.897563L11.2125 4.66955Z" fill="#FEFEFE"/>
<path fill-rule="evenodd" clip-rule="evenodd" d="M11.2125 4.66954L11.6661 -0.898499L11.7775 -0.892619L11.2125 4.66954Z" fill="#FEFEFE"/>
<path fill-rule="evenodd" clip-rule="evenodd" d="M11.2125 4.66957L11.7552 -0.893738L11.8663 -0.88682L11.2125 4.66957Z" fill="#FDFDFD"/>
<path fill-rule="evenodd" clip-rule="evenodd" d="M11.2125 4.66959L11.8441 -0.888184L11.9552 -0.880113L11.2125 4.66959Z" fill="#FDFDFD"/>
<path fill-rule="evenodd" clip-rule="evenodd" d="M11.2125 4.66954L11.933 -0.881775L12.044 -0.872782L11.2125 4.66954Z" fill="#FCFCFC"/>
<path fill-rule="evenodd" clip-rule="evenodd" d="M11.2125 4.66954L12.0218 -0.874512L12.1327 -0.864481L11.2125 4.66954Z" fill="#FCFCFC"/>
<path fill-rule="evenodd" clip-rule="evenodd" d="M11.2125 4.66953L12.1104 -0.866455L12.2211 -0.855272L11.2125 4.66953Z" fill="#FBFBFB"/>
<path fill-rule="evenodd" clip-rule="evenodd" d="M11.2125 4.66956L12.199 -0.857544L12.3094 -0.845323L11.2125 4.66956Z" fill="#FBFBFB"/>
<path fill-rule="evenodd" clip-rule="evenodd" d="M11.2125 4.66953L12.2874 -0.847778L12.3976 -0.83452L11.2125 4.66953Z" fill="#FAFAFA"/>
<path fill-rule="evenodd" clip-rule="evenodd" d="M11.2125 4.66954L12.3756 -0.837158L12.4856 -0.822862L11.2125 4.66954Z" fill="#F9F9F9"/>
<path fill-rule="evenodd" clip-rule="evenodd" d="M11.2125 4.66954L12.4636 -0.825745L12.5733 -0.810295L11.2125 4.66954Z" fill="#F9F9F9"/>
<path fill-rule="evenodd" clip-rule="evenodd" d="M11.2125 4.66954L12.5514 -0.813416L12.6609 -0.797044L11.2125 4.66954Z" fill="#F8F8F8"/>
<path fill-rule="evenodd" clip-rule="evenodd" d="M11.2125 4.66958L12.639 -0.800232L12.7483 -0.782823L11.2125 4.66958Z" fill="#F7F7F7"/>
<path fill-rule="evenodd" clip-rule="evenodd" d="M11.2125 4.66954L12.7264 -0.786316L12.8355 -0.767869L11.2125 4.66954Z" fill="#F6F6F6"/>
<path fill-rule="evenodd" clip-rule="evenodd" d="M11.2125 4.66956L12.8137 -0.771545L12.9223 -0.752061L11.2125 4.66956Z" fill="#F5F5F5"/>
<path fill-rule="evenodd" clip-rule="evenodd" d="M11.2125 4.66955L12.9006 -0.755981L13.009 -0.735459L11.2125 4.66955Z" fill="#F4F4F4"/>
<path fill-rule="evenodd" clip-rule="evenodd" d="M11.2125 4.66955L12.9873 -0.739502L13.0954 -0.717942L11.2125 4.66955Z" fill="#F3F3F3"/>
<path fill-rule="evenodd" clip-rule="evenodd" d="M11.2125 4.66958L13.0737 -0.72229L13.1814 -0.699693L11.2125 4.66958Z" fill="#F2F2F2"/>
<path fill-rule="evenodd" clip-rule="evenodd" d="M11.2125 4.66955L13.1598 -0.704224L13.2671 -0.680704L11.2125 4.66955Z" fill="#F1F1F1"/>
<path fill-rule="evenodd" clip-rule="evenodd" d="M11.2125 4.66956L13.2457 -0.685303L13.3526 -0.660746L11.2125 4.66956Z" fill="#F0F0F0"/>
<path fill-rule="evenodd" clip-rule="evenodd" d="M11.2125 4.66955L13.3312 -0.66571L13.4378 -0.64L11.2125 4.66955Z" fill="#EFEFEF"/>
<path fill-rule="evenodd" clip-rule="evenodd" d="M11.2125 4.66954L13.4164 -0.645203L13.5225 -0.61857L11.2125 4.66954Z" fill="#EEEEEE"/>
<path fill-rule="evenodd" clip-rule="evenodd" d="M11.2125 4.66957L13.5013 -0.62384L13.607 -0.59617L11.2125 4.66957Z" fill="#EDEDED"/>
<path fill-rule="evenodd" clip-rule="evenodd" d="M11.2125 4.66959L13.5858 -0.601685L13.6911 -0.573092L11.2125 4.66959Z" fill="#ECECEC"/>
<path fill-rule="evenodd" clip-rule="evenodd" d="M11.2125 4.66959L13.67 -0.578857L13.7748 -0.549227L11.2125 4.66959Z" fill="#EAEAEA"/>
<path fill-rule="evenodd" clip-rule="evenodd" d="M11.2125 4.66958L13.7538 -0.555115L13.858 -0.524447L11.2125 4.66958Z" fill="#E9E9E9"/>
<path fill-rule="evenodd" clip-rule="evenodd" d="M11.2125 4.66956L13.8373 -0.530579L13.941 -0.498989L11.2125 4.66956Z" fill="#E8E8E8"/>
<path fill-rule="evenodd" clip-rule="evenodd" d="M11.2125 4.66952L13.9203 -0.505371L14.0235 -0.472743L11.2125 4.66952Z" fill="#E7E7E7"/>
<path fill-rule="evenodd" clip-rule="evenodd" d="M11.2125 4.66959L14.0028 -0.479248L14.1056 -0.445698L11.2125 4.66959Z" fill="#E5E5E5"/>
<path fill-rule="evenodd" clip-rule="evenodd" d="M11.2125 4.66958L14.085 -0.452393L14.1872 -0.417805L11.2125 4.66958Z" fill="#E4E4E4"/>
<path fill-rule="evenodd" clip-rule="evenodd" d="M11.2125 4.66956L14.1668 -0.424744L14.2683 -0.389234L11.2125 4.66956Z" fill="#E2E2E2"/>
<path fill-rule="evenodd" clip-rule="evenodd" d="M11.2125 4.66958L14.2481 -0.396362L14.349 -0.35993L11.2125 4.66958Z" fill="#E1E1E1"/>
<path fill-rule="evenodd" clip-rule="evenodd" d="M11.2125 4.66958L14.3289 -0.367188L14.4293 -0.329718L11.2125 4.66958Z" fill="#E0E0E0"/>
<path fill-rule="evenodd" clip-rule="evenodd" d="M11.2125 4.66957L14.4092 -0.337219L14.5091 -0.298827L11.2125 4.66957Z" fill="#DEDEDE"/>
<path fill-rule="evenodd" clip-rule="evenodd" d="M11.2125 4.66955L14.4891 -0.30658L14.5884 -0.267265L11.2125 4.66955Z" fill="#DDDDDD"/>
<path fill-rule="evenodd" clip-rule="evenodd" d="M11.2125 4.66957L14.5685 -0.275085L14.6671 -0.234848L11.2125 4.66957Z" fill="#DBDBDB"/>
<path fill-rule="evenodd" clip-rule="evenodd" d="M11.2125 4.66957L14.6474 -0.24292L14.7453 -0.201645L11.2125 4.66957Z" fill="#D9D9D9"/>
<path fill-rule="evenodd" clip-rule="evenodd" d="M11.2125 4.66955L14.7257 -0.209961L14.823 -0.167879L11.2125 4.66955Z" fill="#D8D8D8"/>
<path fill-rule="evenodd" clip-rule="evenodd" d="M11.2125 4.66958L14.8035 -0.17627L14.9001 -0.13315L11.2125 4.66958Z" fill="#D6D6D6"/>
<path fill-rule="evenodd" clip-rule="evenodd" d="M11.2125 4.66953L14.8808 -0.141846L14.9767 -0.0979194L11.2125 4.66953Z" fill="#D5D5D5"/>
<path fill-rule="evenodd" clip-rule="evenodd" d="M11.2125 4.66958L14.9576 -0.106628L15.0527 -0.0617797L11.2125 4.66958Z" fill="#D3D3D3"/>
<path fill-rule="evenodd" clip-rule="evenodd" d="M11.2125 4.66955L15.0337 -0.0708008L15.1281 -0.0250298L11.2125 4.66955Z" fill="#D1D1D1"/>
<path fill-rule="evenodd" clip-rule="evenodd" d="M11.2125 4.66957L15.1092 -0.0341187L15.2029 0.0124594L11.2125 4.66957Z" fill="#D0D0D0"/>
<path fill-rule="evenodd" clip-rule="evenodd" d="M11.2125 4.66956L15.1842 0.00311279L15.2772 0.0507285L11.2125 4.66956Z" fill="#CECECE"/>
<path fill-rule="evenodd" clip-rule="evenodd" d="M11.2125 4.66954L15.2586 0.0411377L15.3507 0.0895604L11.2125 4.66954Z" fill="#CCCCCC"/>
<path fill-rule="evenodd" clip-rule="evenodd" d="M11.2125 4.66956L15.3323 0.079895L15.4237 0.129125L11.2125 4.66956Z" fill="#CBCBCB"/>
<path fill-rule="evenodd" clip-rule="evenodd" d="M11.2125 4.66956L15.4055 0.119324L15.4961 0.169476L11.2125 4.66956Z" fill="#C9C9C9"/>
<path fill-rule="evenodd" clip-rule="evenodd" d="M11.2125 4.66954L15.478 0.159424L15.5678 0.210383L11.2125 4.66954Z" fill="#C7C7C7"/>
<path fill-rule="evenodd" clip-rule="evenodd" d="M11.2125 4.66956L15.5498 0.200256L15.6388 0.252023L11.2125 4.66956Z" fill="#C6C6C6"/>
<path fill-rule="evenodd" clip-rule="evenodd" d="M11.2125 4.66955L15.621 0.241638L15.7092 0.294327L11.2125 4.66955Z" fill="#C4C4C4"/>
<path fill-rule="evenodd" clip-rule="evenodd" d="M11.2125 4.66953L15.6915 0.283813L15.7788 0.337309L11.2125 4.66953Z" fill="#C2C2C2"/>
<path fill-rule="evenodd" clip-rule="evenodd" d="M11.2125 4.66954L15.7614 0.326599L15.8477 0.381017L11.2125 4.66954Z" fill="#C0C0C0"/>
<path fill-rule="evenodd" clip-rule="evenodd" d="M11.2125 4.66954L15.8304 0.370178L15.9161 0.425288L11.2125 4.66954Z" fill="#BFBFBF"/>
<path fill-rule="evenodd" clip-rule="evenodd" d="M11.2125 4.66957L15.8989 0.414246L15.9835 0.470278L11.2125 4.66957Z" fill="#BDBDBD"/>
<path fill-rule="evenodd" clip-rule="evenodd" d="M11.2125 4.66958L15.9667 0.459106L16.0504 0.51583L11.2125 4.66958Z" fill="#BBBBBB"/>
<path fill-rule="evenodd" clip-rule="evenodd" d="M11.2125 4.66956L16.0337 0.504395L16.1166 0.562041L11.2125 4.66956Z" fill="#B9B9B9"/>
<path fill-rule="evenodd" clip-rule="evenodd" d="M11.2125 4.66958L16.1 0.550537L16.1818 0.608875L11.2125 4.66958Z" fill="#B7B7B7"/>
<path fill-rule="evenodd" clip-rule="evenodd" d="M11.2125 4.66958L16.1655 0.597229L16.2465 0.656259L11.2125 4.66958Z" fill="#B6B6B6"/>
<path fill-rule="evenodd" clip-rule="evenodd" d="M11.2125 4.66955L16.2303 0.64447L16.3103 0.704307L11.2125 4.66955Z" fill="#B4B4B4"/>
<path fill-rule="evenodd" clip-rule="evenodd" d="M11.2125 4.66956L16.2944 0.692322L16.3734 0.752965L11.2125 4.66956Z" fill="#B2B2B2"/>
<path fill-rule="evenodd" clip-rule="evenodd" d="M11.2125 4.66954L16.3576 0.740845L16.4357 0.80218L11.2125 4.66954Z" fill="#B0B0B0"/>
<path fill-rule="evenodd" clip-rule="evenodd" d="M11.2125 4.66956L16.42 0.789978L16.4972 0.852005L11.2125 4.66956Z" fill="#ADADAD"/>
<path fill-rule="evenodd" clip-rule="evenodd" d="M11.2125 4.66955L16.4817 0.839661L16.5578 0.902495L11.2125 4.66955Z" fill="#ABABAB"/>
<path fill-rule="evenodd" clip-rule="evenodd" d="M11.2125 4.66958L16.5426 0.889954L16.6178 0.95348L11.2125 4.66958Z" fill="#A8A8A8"/>
<path fill-rule="evenodd" clip-rule="evenodd" d="M11.2125 4.66958L16.6027 0.940796L16.6768 1.00501L11.2125 4.66958Z" fill="#A5A5A5"/>
<path fill-rule="evenodd" clip-rule="evenodd" d="M11.2125 4.66955L16.6619 0.992188L16.735 1.0571L11.2125 4.66955Z" fill="#A1A1A1"/>
<path fill-rule="evenodd" clip-rule="evenodd" d="M11.2125 4.66955L16.7204 1.04407L16.7924 1.10978L11.2125 4.66955Z" fill="#9E9E9E"/>
<path fill-rule="evenodd" clip-rule="evenodd" d="M11.2125 4.66958L16.778 1.09668L16.8489 1.16297L11.2125 4.66958Z" fill="#9A9A9A"/>
<path fill-rule="evenodd" clip-rule="evenodd" d="M11.2125 4.66953L16.8347 1.14966L16.9046 1.21664L11.2125 4.66953Z" fill="#959595"/>
<path fill-rule="evenodd" clip-rule="evenodd" d="M11.2125 4.66957L16.8907 1.20331L16.9594 1.27098L11.2125 4.66957Z" fill="#909090"/>
<path fill-rule="evenodd" clip-rule="evenodd" d="M11.2125 4.66957L16.9457 1.25739L17.0133 1.32575L11.2125 4.66957Z" fill="#8B8B8B"/>
<path fill-rule="evenodd" clip-rule="evenodd" d="M11.2125 4.66955L16.9998 1.31201L17.0665 1.38096L11.2125 4.66955Z" fill="#858585"/>
<path fill-rule="evenodd" clip-rule="evenodd" d="M11.2125 4.66956L17.0531 1.36725L17.1186 1.43677L11.2125 4.66956Z" fill="#7F7F7F"/>
<path fill-rule="evenodd" clip-rule="evenodd" d="M11.2125 4.66953L17.1056 1.42279L17.1699 1.493L11.2125 4.66953Z" fill="#797979"/>
<path fill-rule="evenodd" clip-rule="evenodd" d="M11.2125 4.66954L17.157 1.47894L17.2203 1.54973L11.2125 4.66954Z" fill="#737373"/>
<path fill-rule="evenodd" clip-rule="evenodd" d="M11.2125 4.66957L17.2076 1.53558L17.2697 1.60695L11.2125 4.66957Z" fill="#6E6E6E"/>
<path fill-rule="evenodd" clip-rule="evenodd" d="M11.2125 4.66958L17.2573 1.59277L17.3183 1.66472L11.2125 4.66958Z" fill="#6D6D6D"/>
<path fill-rule="evenodd" clip-rule="evenodd" d="M11.2125 4.66954L17.3061 1.65027L17.3659 1.72279L11.2125 4.66954Z" fill="#6D6D6D"/>
<path fill-rule="evenodd" clip-rule="evenodd" d="M11.2125 4.66953L17.3539 1.70825L17.4126 1.78135L11.2125 4.66953Z" fill="#6E6E6E"/>
<path fill-rule="evenodd" clip-rule="evenodd" d="M11.2125 4.66955L17.4008 1.76672L17.4584 1.8404L11.2125 4.66955Z" fill="#6E6E6E"/>
<path fill-rule="evenodd" clip-rule="evenodd" d="M11.2125 4.66954L17.4468 1.82562L17.5032 1.89987L11.2125 4.66954Z" fill="#6F6F6F"/>
<path fill-rule="evenodd" clip-rule="evenodd" d="M11.2125 4.66955L17.4919 1.88501L17.547 1.95972L11.2125 4.66955Z" fill="#706F6F"/>
<path fill-rule="evenodd" clip-rule="evenodd" d="M11.2125 4.66959L17.536 1.94489L17.5899 2.02006L11.2125 4.66959Z" fill="#707070"/>
<path fill-rule="evenodd" clip-rule="evenodd" d="M11.2125 4.66952L17.5791 2.005L17.6318 2.08064L11.2125 4.66952Z" fill="#717171"/>
<path fill-rule="evenodd" clip-rule="evenodd" d="M11.2125 4.66954L17.6213 2.06555L17.6727 2.14176L11.2125 4.66954Z" fill="#727272"/>
<path fill-rule="evenodd" clip-rule="evenodd" d="M11.2125 4.66959L17.6624 2.12659L17.7127 2.20326L11.2125 4.66959Z" fill="#737373"/>
<path fill-rule="evenodd" clip-rule="evenodd" d="M11.2125 4.66953L17.7027 2.18787L17.7517 2.26511L11.2125 4.66953Z" fill="#747474"/>
<path fill-rule="evenodd" clip-rule="evenodd" d="M11.2125 4.66956L17.7419 2.24969L17.7896 2.32729L11.2125 4.66956Z" fill="#757575"/>
<path fill-rule="evenodd" clip-rule="evenodd" d="M11.2125 4.66955L17.78 2.31183L17.8266 2.38988L11.2125 4.66955Z" fill="#767676"/>
<path fill-rule="evenodd" clip-rule="evenodd" d="M11.2125 4.66957L17.8173 2.37433L17.8626 2.45284L11.2125 4.66957Z" fill="#777777"/>
<path fill-rule="evenodd" clip-rule="evenodd" d="M11.2125 4.66953L17.8536 2.43701L17.8975 2.51599L11.2125 4.66953Z" fill="#787878"/>
<path fill-rule="evenodd" clip-rule="evenodd" d="M11.2125 4.66958L17.8888 2.50024L17.9315 2.57968L11.2125 4.66958Z" fill="#797979"/>
<path fill-rule="evenodd" clip-rule="evenodd" d="M11.2125 4.66959L17.923 2.56378L17.9645 2.64356L11.2125 4.66959Z" fill="#7B7A7A"/>
<path fill-rule="evenodd" clip-rule="evenodd" d="M11.2125 4.66956L17.9562 2.6275L17.9963 2.70763L11.2125 4.66956Z" fill="#7C7B7B"/>
<path fill-rule="evenodd" clip-rule="evenodd" d="M11.2125 4.66954L17.9884 2.69159L18.0272 2.77218L11.2125 4.66954Z" fill="#7D7C7C"/>
<path fill-rule="evenodd" clip-rule="evenodd" d="M11.2125 4.66955L18.0195 2.75604L18.0571 2.83698L11.2125 4.66955Z" fill="#7E7D7D"/>
<path fill-rule="evenodd" clip-rule="evenodd" d="M11.2125 4.66957L18.0496 2.82074L18.0859 2.90202L11.2125 4.66957Z" fill="#7F7E7E"/>
<path fill-rule="evenodd" clip-rule="evenodd" d="M11.2125 4.66954L18.0786 2.88574L18.1137 2.96737L11.2125 4.66954Z" fill="#807F7F"/>
<path fill-rule="evenodd" clip-rule="evenodd" d="M11.2125 4.66953L18.1067 2.95099L18.1403 3.03296L11.2125 4.66953Z" fill="#818080"/>
<path fill-rule="evenodd" clip-rule="evenodd" d="M11.2125 4.66954L18.1336 3.01648L18.166 3.0988L11.2125 4.66954Z" fill="#828080"/>
<path fill-rule="evenodd" clip-rule="evenodd" d="M11.2125 4.66956L18.1596 3.08234L18.1907 3.16489L11.2125 4.66956Z" fill="#828181"/>
<path fill-rule="evenodd" clip-rule="evenodd" d="M11.2125 4.66953L18.1845 3.14825L18.2142 3.23115L11.2125 4.66953Z" fill="#838282"/>
<path fill-rule="evenodd" clip-rule="evenodd" d="M11.2125 4.66959L18.2082 3.2146L18.2367 3.29773L11.2125 4.66959Z" fill="#848383"/>
<path fill-rule="evenodd" clip-rule="evenodd" d="M11.2125 4.66959L18.2309 3.28113L18.2581 3.36437L11.2125 4.66959Z" fill="#858484"/>
<path fill-rule="evenodd" clip-rule="evenodd" d="M11.2125 4.66954L18.2527 3.34772L18.2784 3.4313L11.2125 4.66954Z" fill="#868585"/>
<path fill-rule="evenodd" clip-rule="evenodd" d="M11.2125 4.66957L18.2732 3.41461L18.2977 3.49843L11.2125 4.66957Z" fill="#878686"/>
<path fill-rule="evenodd" clip-rule="evenodd" d="M11.2125 4.66955L18.2928 3.48169L18.3159 3.56574L11.2125 4.66955Z" fill="#888686"/>
<path fill-rule="evenodd" clip-rule="evenodd" d="M11.2125 4.66953L18.3113 3.54889L18.3331 3.63317L11.2125 4.66953Z" fill="#898787"/>
<path fill-rule="evenodd" clip-rule="evenodd" d="M11.2125 4.66959L18.3287 3.61639L18.3491 3.70079L11.2125 4.66959Z" fill="#898888"/>
<path fill-rule="evenodd" clip-rule="evenodd" d="M11.2125 4.66959L18.3451 3.68396L18.3641 3.76858L11.2125 4.66959Z" fill="#8A8989"/>
<path fill-rule="evenodd" clip-rule="evenodd" d="M11.2125 4.66954L18.3603 3.75159L18.3779 3.83644L11.2125 4.66954Z" fill="#8B8989"/>
<path fill-rule="evenodd" clip-rule="evenodd" d="M11.2125 4.66957L18.3744 3.81952L18.3907 3.90449L11.2125 4.66957Z" fill="#8C8A8A"/>
<path fill-rule="evenodd" clip-rule="evenodd" d="M11.2125 4.66954L18.3875 3.88751L18.4024 3.9726L11.2125 4.66954Z" fill="#8C8B8B"/>
<path fill-rule="evenodd" clip-rule="evenodd" d="M11.2125 4.66957L18.3994 3.95557L18.413 4.04088L11.2125 4.66957Z" fill="#8D8B8B"/>
<path fill-rule="evenodd" clip-rule="evenodd" d="M11.2125 4.66956L18.4103 4.0238L18.4226 4.10924L11.2125 4.66956Z" fill="#8E8C8C"/>
<path fill-rule="evenodd" clip-rule="evenodd" d="M11.2125 4.66955L18.4201 4.09216L18.431 4.17759L11.2125 4.66955Z" fill="#8E8D8D"/>
<path fill-rule="evenodd" clip-rule="evenodd" d="M11.2125 4.66954L18.4288 4.16052L18.4383 4.24607L11.2125 4.66954Z" fill="#8F8D8D"/>
<path fill-rule="evenodd" clip-rule="evenodd" d="M11.2125 4.66954L18.4364 4.229L18.4446 4.31467L11.2125 4.66954Z" fill="#908E8E"/>
<path fill-rule="evenodd" clip-rule="evenodd" d="M11.2125 4.66959L18.4428 4.29755L18.4496 4.38332L11.2125 4.66959Z" fill="#908F8F"/>
<path fill-rule="evenodd" clip-rule="evenodd" d="M11.2125 4.66954L18.4483 4.36621L18.4537 4.45199L11.2125 4.66954Z" fill="#918F8F"/>
<path fill-rule="evenodd" clip-rule="evenodd" d="M11.2125 4.66955L18.4526 4.43481L18.4566 4.52071L11.2125 4.66955Z" fill="#929090"/>
<path fill-rule="evenodd" clip-rule="evenodd" d="M11.2125 4.66956L18.4558 4.50354L18.4584 4.58943L11.2125 4.66956Z" fill="#929090"/>
<path fill-rule="evenodd" clip-rule="evenodd" d="M11.2125 4.66957L18.4579 4.57227L18.4592 4.65816L11.2125 4.66957Z" fill="#939191"/>
<path fill-rule="evenodd" clip-rule="evenodd" d="M11.2125 4.66958L18.4589 4.64099V4.72688L11.2125 4.66958Z" fill="#939191"/>
<path fill-rule="evenodd" clip-rule="evenodd" d="M11.2125 4.66956L18.4589 4.70968L18.4574 4.79557L11.2125 4.66956Z" fill="#949292"/>
<path fill-rule="evenodd" clip-rule="evenodd" d="M11.2125 4.66956L18.4576 4.77839L18.4548 4.86428L11.2125 4.66956Z" fill="#959292"/>
<path fill-rule="evenodd" clip-rule="evenodd" d="M11.2125 4.66956L18.4553 4.84711L18.4511 4.933L11.2125 4.66956Z" fill="#959393"/>
<path fill-rule="evenodd" clip-rule="evenodd" d="M11.2125 4.66956L18.452 4.91582L18.4463 5.0016L11.2125 4.66956Z" fill="#969494"/>
<path fill-rule="evenodd" clip-rule="evenodd" d="M11.2125 4.66956L18.4475 4.98442L18.4405 5.0702L11.2125 4.66956Z" fill="#979494"/>
<path fill-rule="evenodd" clip-rule="evenodd" d="M11.2125 4.66956L18.4419 5.05302L18.4335 5.13868L11.2125 4.66956Z" fill="#979595"/>
<path fill-rule="evenodd" clip-rule="evenodd" d="M11.2125 4.66956L18.4352 5.12162L18.4254 5.20716L11.2125 4.66956Z" fill="#989696"/>
<path fill-rule="evenodd" clip-rule="evenodd" d="M11.2125 4.66956L18.4274 5.1901L18.4163 5.27553L11.2125 4.66956Z" fill="#999696"/>
<path fill-rule="evenodd" clip-rule="evenodd" d="M11.2125 4.66956L18.4185 5.25847L18.4061 5.34378L11.2125 4.66956Z" fill="#999797"/>
<path fill-rule="evenodd" clip-rule="evenodd" d="M11.2125 4.66956L18.4086 5.32672L18.3948 5.41204L11.2125 4.66956Z" fill="#9A9898"/>
<path fill-rule="evenodd" clip-rule="evenodd" d="M11.2125 4.66956L18.3975 5.39497L18.3823 5.48006L11.2125 4.66956Z" fill="#9B9898"/>
<path fill-rule="evenodd" clip-rule="evenodd" d="M11.2125 4.66956L18.3853 5.46311L18.3688 5.54808L11.2125 4.66956Z" fill="#9C9999"/>
<path fill-rule="evenodd" clip-rule="evenodd" d="M11.2125 4.66956L18.3722 5.53102L18.3542 5.61587L11.2125 4.66956Z" fill="#9C9A9A"/>
<path fill-rule="evenodd" clip-rule="evenodd" d="M11.2125 4.66956L18.3578 5.59893L18.3385 5.68355L11.2125 4.66956Z" fill="#9D9B9B"/>
<path fill-rule="evenodd" clip-rule="evenodd" d="M11.2125 4.66956L18.3424 5.6666L18.3218 5.751L11.2125 4.66956Z" fill="#9E9B9B"/>
<path fill-rule="evenodd" clip-rule="evenodd" d="M11.2125 4.66956L18.3259 5.73416L18.3039 5.81833L11.2125 4.66956Z" fill="#9F9C9C"/>
<path fill-rule="evenodd" clip-rule="evenodd" d="M11.2125 4.66956L18.3083 5.80149L18.285 5.88554L11.2125 4.66956Z" fill="#A09D9D"/>
<path fill-rule="evenodd" clip-rule="evenodd" d="M11.2125 4.66956L18.2896 5.86871L18.2649 5.95253L11.2125 4.66956Z" fill="#A19E9E"/>
<path fill-rule="evenodd" clip-rule="evenodd" d="M11.2125 4.66956L18.2699 5.93581L18.244 6.01928L11.2125 4.66956Z" fill="#A29F9F"/>
<path fill-rule="evenodd" clip-rule="evenodd" d="M11.2125 4.66956L18.2492 6.00256L18.2218 6.08592L11.2125 4.66956Z" fill="#A3A0A0"/>
<path fill-rule="evenodd" clip-rule="evenodd" d="M11.2125 4.66956L18.2272 6.0692L18.1987 6.15233L11.2125 4.66956Z" fill="#A3A1A1"/>
<path fill-rule="evenodd" clip-rule="evenodd" d="M11.2125 4.66956L18.2043 6.13573L18.1743 6.21839L11.2125 4.66956Z" fill="#A4A1A1"/>
<path fill-rule="evenodd" clip-rule="evenodd" d="M11.2125 4.66956L18.1803 6.2019L18.1491 6.28434L11.2125 4.66956Z" fill="#A5A2A2"/>
<path fill-rule="evenodd" clip-rule="evenodd" d="M11.2125 4.66956L18.1553 6.26785L18.1227 6.35006L11.2125 4.66956Z" fill="#A6A3A3"/>
<path fill-rule="evenodd" clip-rule="evenodd" d="M11.2125 4.66956L18.1292 6.33357L18.0952 6.41543L11.2125 4.66956Z" fill="#A7A4A4"/>
<path fill-rule="evenodd" clip-rule="evenodd" d="M11.2125 4.66956L18.102 6.39905L18.0668 6.48057L11.2125 4.66956Z" fill="#A8A5A5"/>
<path fill-rule="evenodd" clip-rule="evenodd" d="M11.2125 4.66956L18.0739 6.46431L18.0374 6.54548L11.2125 4.66956Z" fill="#A9A6A6"/>
<path fill-rule="evenodd" clip-rule="evenodd" d="M11.2125 4.66956L18.0446 6.52922L18.0068 6.61004L11.2125 4.66956Z" fill="#AAA7A7"/>
<path fill-rule="evenodd" clip-rule="evenodd" d="M11.2125 4.66956L18.0143 6.5939L17.9752 6.67437L11.2125 4.66956Z" fill="#ACA8A8"/>
<path fill-rule="evenodd" clip-rule="evenodd" d="M11.2125 4.66956L17.9831 6.65823L17.9426 6.73836L11.2125 4.66956Z" fill="#ADA9A9"/>
<path fill-rule="evenodd" clip-rule="evenodd" d="M11.2125 4.66956L17.9507 6.72233L17.909 6.802L11.2125 4.66956Z" fill="#AEAAAA"/>
<path fill-rule="evenodd" clip-rule="evenodd" d="M11.2125 4.66956L17.9173 6.78609L17.8743 6.86541L11.2125 4.66956Z" fill="#AFABAB"/>
<path fill-rule="evenodd" clip-rule="evenodd" d="M11.2125 4.66956L17.883 6.8495L17.8387 6.92836L11.2125 4.66956Z" fill="#B0ACAC"/>
<path fill-rule="evenodd" clip-rule="evenodd" d="M11.2125 4.66956L17.8476 6.91257L17.8021 6.99108L11.2125 4.66956Z" fill="#B1ADAD"/>
<path fill-rule="evenodd" clip-rule="evenodd" d="M11.2125 4.66956L17.8112 6.9754L17.7645 7.05334L11.2125 4.66956Z" fill="#B2AEAE"/>
<path fill-rule="evenodd" clip-rule="evenodd" d="M11.2125 4.66956L17.7738 7.03777L17.7258 7.11536L11.2125 4.66956Z" fill="#B3AFAF"/>
<path fill-rule="evenodd" clip-rule="evenodd" d="M11.2125 4.66956L17.7354 7.0998L17.6862 7.17693L11.2125 4.66956Z" fill="#B4B0B0"/>
<path fill-rule="evenodd" clip-rule="evenodd" d="M11.2125 4.66956L17.696 7.16148L17.6456 7.23815L11.2125 4.66956Z" fill="#B5B1B1"/>
<path fill-rule="evenodd" clip-rule="evenodd" d="M11.2125 4.66956L17.6556 7.22282L17.604 7.29903L11.2125 4.66956Z" fill="#B5B2B2"/>
<path fill-rule="evenodd" clip-rule="evenodd" d="M11.2125 4.66956L17.6142 7.28369L17.5614 7.35944L11.2125 4.66956Z" fill="#B6B2B2"/>
<path fill-rule="evenodd" clip-rule="evenodd" d="M11.2125 4.66956L17.5719 7.34422L17.5179 7.41939L11.2125 4.66956Z" fill="#B7B3B3"/>
<path fill-rule="evenodd" clip-rule="evenodd" d="M11.2125 4.66956L17.5287 7.4044L17.4734 7.479L11.2125 4.66956Z" fill="#B7B3B3"/>
<path fill-rule="evenodd" clip-rule="evenodd" d="M11.2125 4.66956L17.4844 7.46412L17.4279 7.53814L11.2125 4.66956Z" fill="#B8B4B4"/>
<path fill-rule="evenodd" clip-rule="evenodd" d="M11.2125 4.66956L17.4392 7.52338L17.3816 7.59694L11.2125 4.66956Z" fill="#B8B4B4"/>
<path fill-rule="evenodd" clip-rule="evenodd" d="M11.2125 4.66956L17.3931 7.58218L17.3343 7.65516L11.2125 4.66956Z" fill="#B8B4B4"/>
<path fill-rule="evenodd" clip-rule="evenodd" d="M11.2125 4.66956L17.3461 7.64064L17.286 7.71304L11.2125 4.66956Z" fill="#B8B4B4"/>
<path fill-rule="evenodd" clip-rule="evenodd" d="M11.2125 4.66956L17.298 7.69851L17.2369 7.77045L11.2125 4.66956Z" fill="#B7B3B3"/>
<path fill-rule="evenodd" clip-rule="evenodd" d="M11.2125 4.66956L17.2491 7.75604L17.1869 7.82729L11.2125 4.66956Z" fill="#B6B2B2"/>
<path fill-rule="evenodd" clip-rule="evenodd" d="M11.2125 4.66956L17.1993 7.81311L17.1358 7.88379L11.2125 4.66956Z" fill="#B5B1B1"/>
<path fill-rule="evenodd" clip-rule="evenodd" d="M11.2125 4.66956L17.1485 7.86961L17.0839 7.9397L11.2125 4.66956Z" fill="#B4B0B0"/>
<path fill-rule="evenodd" clip-rule="evenodd" d="M11.2125 4.66956L17.0968 7.92564L17.0312 7.99516L11.2125 4.66956Z" fill="#B3AFAF"/>
<path fill-rule="evenodd" clip-rule="evenodd" d="M11.2125 4.66956L17.0444 7.98121L16.9775 8.05004L11.2125 4.66956Z" fill="#B2AEAE"/>
<path fill-rule="evenodd" clip-rule="evenodd" d="M11.2125 4.66956L16.9909 8.03632L16.9229 8.10446L11.2125 4.66956Z" fill="#B1ADAD"/>
<path fill-rule="evenodd" clip-rule="evenodd" d="M11.2125 4.66956L16.9366 8.09085L16.8676 8.15841L11.2125 4.66956Z" fill="#B0ACAC"/>
<path fill-rule="evenodd" clip-rule="evenodd" d="M11.2125 4.66956L16.8814 8.14492L16.8113 8.21179L11.2125 4.66956Z" fill="#AFABAB"/>
<path fill-rule="evenodd" clip-rule="evenodd" d="M11.2125 4.66956L16.8253 8.19842L16.7543 8.2646L11.2125 4.66956Z" fill="#AEAAAA"/>
<path fill-rule="evenodd" clip-rule="evenodd" d="M11.2125 4.66956L16.7685 8.25134L16.6963 8.31682L11.2125 4.66956Z" fill="#ADA9A9"/>
<path fill-rule="evenodd" clip-rule="evenodd" d="M11.2125 4.66956L16.7107 8.3038L16.6375 8.36859L11.2125 4.66956Z" fill="#ACA8A8"/>
<path fill-rule="evenodd" clip-rule="evenodd" d="M11.2125 4.66956L16.6521 8.35568L16.5779 8.41978L11.2125 4.66956Z" fill="#ABA7A7"/>
<path fill-rule="evenodd" clip-rule="evenodd" d="M11.2125 4.66956L16.5928 8.40698L16.5175 8.47039L11.2125 4.66956Z" fill="#AAA6A6"/>
<path fill-rule="evenodd" clip-rule="evenodd" d="M11.2125 4.66956L16.5326 8.45771L16.4562 8.52043L11.2125 4.66956Z" fill="#A9A5A5"/>
<path fill-rule="evenodd" clip-rule="evenodd" d="M11.2125 4.66956L16.4715 8.50786L16.3942 8.56989L11.2125 4.66956Z" fill="#A8A4A4"/>
<path fill-rule="evenodd" clip-rule="evenodd" d="M11.2125 4.66956L16.4097 8.55744L16.3315 8.61877L11.2125 4.66956Z" fill="#A7A3A3"/>
<path fill-rule="evenodd" clip-rule="evenodd" d="M11.2125 4.66956L16.3471 8.60644L16.2679 8.66697L11.2125 4.66956Z" fill="#A6A3A3"/>
<path fill-rule="evenodd" clip-rule="evenodd" d="M11.2125 4.66956L16.2837 8.65486L16.2035 8.71458L11.2125 4.66956Z" fill="#A5A2A2"/>
<path fill-rule="evenodd" clip-rule="evenodd" d="M11.2125 4.66956L16.2195 8.70271L16.1384 8.76162L11.2125 4.66956Z" fill="#A5A1A1"/>
<path fill-rule="evenodd" clip-rule="evenodd" d="M11.2125 4.66956L16.1546 8.74986L16.0726 8.80808L11.2125 4.66956Z" fill="#A4A0A0"/>
<path fill-rule="evenodd" clip-rule="evenodd" d="M11.2125 4.66956L16.0889 8.79644L16.0059 8.85386L11.2125 4.66956Z" fill="#A3A0A0"/>
<path fill-rule="evenodd" clip-rule="evenodd" d="M11.2125 4.66956L16.0225 8.84233L15.9387 8.89893L11.2125 4.66956Z" fill="#A39F9F"/>
<path fill-rule="evenodd" clip-rule="evenodd" d="M11.2125 4.66956L15.9554 8.88764L15.8706 8.94344L11.2125 4.66956Z" fill="#A29E9E"/>
<path fill-rule="evenodd" clip-rule="evenodd" d="M11.2125 4.66956L15.8876 8.93237L15.8018 8.98736L11.2125 4.66956Z" fill="#A19E9E"/>
<path fill-rule="evenodd" clip-rule="evenodd" d="M11.2125 4.66956L15.819 8.9763L15.7324 9.0306L11.2125 4.66956Z" fill="#A19D9D"/>
<path fill-rule="evenodd" clip-rule="evenodd" d="M11.2125 4.66956L15.7497 9.01976L15.6623 9.07314L11.2125 4.66956Z" fill="#A09C9C"/>
<path fill-rule="evenodd" clip-rule="evenodd" d="M11.2125 4.66956L15.6798 9.06242L15.5916 9.11499L11.2125 4.66956Z" fill="#9F9C9C"/>
<path fill-rule="evenodd" clip-rule="evenodd" d="M11.2125 4.66956L15.6092 9.1045L15.5201 9.15615L11.2125 4.66956Z" fill="#9F9B9B"/>
<path fill-rule="evenodd" clip-rule="evenodd" d="M11.2125 4.66956L15.5378 9.14578L15.4479 9.19662L11.2125 4.66956Z" fill="#9E9B9B"/>
<path fill-rule="evenodd" clip-rule="evenodd" d="M11.2125 4.66956L15.4659 9.18647L15.3751 9.23651L11.2125 4.66956Z" fill="#9E9A9A"/>
<path fill-rule="evenodd" clip-rule="evenodd" d="M11.2125 4.66956L15.3933 9.22648L15.3017 9.2756L11.2125 4.66956Z" fill="#9D9A9A"/>
<path fill-rule="evenodd" clip-rule="evenodd" d="M11.2125 4.66956L15.32 9.26579L15.2277 9.3141L11.2125 4.66956Z" fill="#9D9999"/>
<path fill-rule="evenodd" clip-rule="evenodd" d="M11.2125 4.66956L15.2463 9.30442L15.1531 9.3518L11.2125 4.66956Z" fill="#9C9999"/>
<path fill-rule="evenodd" clip-rule="evenodd" d="M11.2125 4.66956L15.1718 9.34235L15.0779 9.38881L11.2125 4.66956Z" fill="#9C9898"/>
<path fill-rule="evenodd" clip-rule="evenodd" d="M11.2125 4.66956L15.0967 9.37947L15.0021 9.42513L11.2125 4.66956Z" fill="#9B9898"/>
<path fill-rule="evenodd" clip-rule="evenodd" d="M11.2125 4.66956L15.021 9.41602L14.9257 9.46075L11.2125 4.66956Z" fill="#9B9797"/>
<path fill-rule="evenodd" clip-rule="evenodd" d="M11.2125 4.66956L14.9448 9.45176L14.8487 9.49557L11.2125 4.66956Z" fill="#9A9797"/>
<path fill-rule="evenodd" clip-rule="evenodd" d="M11.2125 4.66956L14.868 9.48681L14.7712 9.5297L11.2125 4.66956Z" fill="#9A9696"/>
<path fill-rule="evenodd" clip-rule="evenodd" d="M11.2125 4.66956L14.7906 9.52117L14.6932 9.56302L11.2125 4.66956Z" fill="#999696"/>
<path fill-rule="evenodd" clip-rule="evenodd" d="M11.2125 4.66956L14.7127 9.55472L14.6147 9.59576L11.2125 4.66956Z" fill="#999595"/>
<path fill-rule="evenodd" clip-rule="evenodd" d="M11.2125 4.66956L14.6343 9.58746L14.5356 9.62758L11.2125 4.66956Z" fill="#989595"/>
<path fill-rule="evenodd" clip-rule="evenodd" d="M11.2125 4.66956L14.5553 9.61963L14.4559 9.65871L11.2125 4.66956Z" fill="#989494"/>
<path fill-rule="evenodd" clip-rule="evenodd" d="M11.2125 4.66956L14.4759 9.65087L14.3759 9.68915L11.2125 4.66956Z" fill="#979494"/>
<path fill-rule="evenodd" clip-rule="evenodd" d="M11.2125 4.66956L14.3959 9.68154L14.2953 9.71878L11.2125 4.66956Z" fill="#969393"/>
<path fill-rule="evenodd" clip-rule="evenodd" d="M11.2125 4.66956L14.3155 9.71128L14.2143 9.7476L11.2125 4.66956Z" fill="#969292"/>
<path fill-rule="evenodd" clip-rule="evenodd" d="M11.2125 4.66956L14.2346 9.74034L14.1329 9.77573L11.2125 4.66956Z" fill="#959292"/>
<path fill-rule="evenodd" clip-rule="evenodd" d="M11.2125 4.66956L14.1532 9.76858L14.0509 9.80306L11.2125 4.66956Z" fill="#959191"/>
<path fill-rule="evenodd" clip-rule="evenodd" d="M11.2125 4.66956L14.0713 9.79614L13.9686 9.82957L11.2125 4.66956Z" fill="#949191"/>
<path fill-rule="evenodd" clip-rule="evenodd" d="M11.2125 4.66956L13.9891 9.82289L13.8858 9.85528L11.2125 4.66956Z" fill="#939090"/>
<path fill-rule="evenodd" clip-rule="evenodd" d="M11.2125 4.66956L13.9064 9.84883L13.8026 9.8803L11.2125 4.66956Z" fill="#938F8F"/>
<path fill-rule="evenodd" clip-rule="evenodd" d="M11.2125 4.66956L13.8233 9.87396L13.719 9.9044L11.2125 4.66956Z" fill="#928F8F"/>
<path fill-rule="evenodd" clip-rule="evenodd" d="M11.2125 4.66956L13.7398 9.89829L13.635 9.9278L11.2125 4.66956Z" fill="#918E8E"/>
<path fill-rule="evenodd" clip-rule="evenodd" d="M11.2125 4.66956L13.656 9.92192L13.5508 9.9504L11.2125 4.66956Z" fill="#918D8D"/>
<path fill-rule="evenodd" clip-rule="evenodd" d="M11.2125 4.66956L13.5717 9.94464L13.466 9.97219L11.2125 4.66956Z" fill="#908D8D"/>
<path fill-rule="evenodd" clip-rule="evenodd" d="M11.2125 4.66956L13.4872 9.96666L13.3811 9.99317L11.2125 4.66956Z" fill="#8F8C8C"/>
<path fill-rule="evenodd" clip-rule="evenodd" d="M11.2125 4.66956L13.4023 9.98787L13.2956 10.0134L11.2125 4.66956Z" fill="#8F8B8B"/>
<path fill-rule="evenodd" clip-rule="evenodd" d="M11.2125 4.66956L13.317 10.0082L13.21 10.0326L11.2125 4.66956Z" fill="#8E8B8B"/>
<path fill-rule="evenodd" clip-rule="evenodd" d="M11.2125 4.66956L13.2314 10.0278L13.1241 10.0512L11.2125 4.66956Z" fill="#8D8A8A"/>
<path fill-rule="evenodd" clip-rule="evenodd" d="M11.2125 4.66956L13.1455 10.0466L13.0378 10.0689L11.2125 4.66956Z" fill="#8D8989"/>
<path fill-rule="evenodd" clip-rule="evenodd" d="M11.2125 4.66956L13.0593 10.0644L12.9512 10.0858L11.2125 4.66956Z" fill="#8C8989"/>
<path fill-rule="evenodd" clip-rule="evenodd" d="M11.2125 4.66956L12.9728 10.0815L12.8644 10.1019L11.2125 4.66956Z" fill="#8B8888"/>
<path fill-rule="evenodd" clip-rule="evenodd" d="M11.2125 4.66956L12.8861 10.0979L12.7774 10.1171L11.2125 4.66956Z" fill="#8A8787"/>
<path fill-rule="evenodd" clip-rule="evenodd" d="M11.2125 4.66956L12.7992 10.1133L12.6901 10.1315L11.2125 4.66956Z" fill="#8A8787"/>
<path fill-rule="evenodd" clip-rule="evenodd" d="M11.2125 4.66956L12.7119 10.128L12.6026 10.1451L11.2125 4.66956Z" fill="#898686"/>
<path fill-rule="evenodd" clip-rule="evenodd" d="M11.2125 4.66956L12.6245 10.1417L12.5149 10.1579L11.2125 4.66956Z" fill="#888585"/>
<path fill-rule="evenodd" clip-rule="evenodd" d="M11.2125 4.66956L12.5368 10.1547L12.4269 10.1699L11.2125 4.66956Z" fill="#888585"/>
<path fill-rule="evenodd" clip-rule="evenodd" d="M11.2125 4.66956L12.4489 10.1668L12.3388 10.181L11.2125 4.66956Z" fill="#878484"/>
<path fill-rule="evenodd" clip-rule="evenodd" d="M11.2125 4.66956L12.3608 10.1781L12.2506 10.1912L11.2125 4.66956Z" fill="#868383"/>
<path fill-rule="evenodd" clip-rule="evenodd" d="M11.2125 4.66956L12.2726 10.1886L12.1621 10.2007L11.2125 4.66956Z" fill="#868383"/>
<path fill-rule="evenodd" clip-rule="evenodd" d="M11.2125 4.66956L12.1842 10.1983L12.0735 10.2092L11.2125 4.66956Z" fill="#858282"/>
<path fill-rule="evenodd" clip-rule="evenodd" d="M11.2125 4.66956L12.0957 10.207L11.9849 10.217L11.2125 4.66956Z" fill="#858282"/>
<path fill-rule="evenodd" clip-rule="evenodd" d="M11.2125 4.66956L12.007 10.215L11.896 10.2239L11.2125 4.66956Z" fill="#848181"/>
<path fill-rule="evenodd" clip-rule="evenodd" d="M11.2125 4.66956L11.9182 10.2221L11.8071 10.23L11.2125 4.66956Z" fill="#848181"/>
<path fill-rule="evenodd" clip-rule="evenodd" d="M11.2125 4.66956L11.8293 10.2284L11.7181 10.2352L11.2125 4.66956Z" fill="#838080"/>
<path fill-rule="evenodd" clip-rule="evenodd" d="M11.2125 4.66956L11.7403 10.2338L11.629 10.2396L11.2125 4.66956Z" fill="#838080"/>
<path fill-rule="evenodd" clip-rule="evenodd" d="M11.2125 4.66956L11.6512 10.2384L11.5398 10.2431L11.2125 4.66956Z" fill="#827F7F"/>
<path fill-rule="evenodd" clip-rule="evenodd" d="M11.2125 4.66956L11.5621 10.2422L11.4506 10.2458L11.2125 4.66956Z" fill="#827F7F"/>
<path fill-rule="evenodd" clip-rule="evenodd" d="M11.2125 4.66956L11.4729 10.2451L11.3614 10.2476L11.2125 4.66956Z" fill="#827F7F"/>
<path fill-rule="evenodd" clip-rule="evenodd" d="M11.2125 4.66956L11.3836 10.247L11.2944 10.2483L11.2125 4.66956Z" fill="#827F7F"/>
</g>
<path fill-rule="evenodd" clip-rule="evenodd" d="M9.0298 24.1402C8.6905 24.2563 8.71817 24.7591 9.06266 24.8481C9.25762 24.8985 12.5029 24.868 12.861 24.868C13.5932 24.868 17.544 24.9535 17.9248 24.838C18.2603 24.7362 18.2581 24.2183 17.8937 24.126C17.7247 24.0832 14.425 24.1085 14.0888 24.1085C13.4126 24.1085 9.31227 24.0435 9.0298 24.1402Z" fill="#040404"/>
<path fill-rule="evenodd" clip-rule="evenodd" d="M9.06761 10.0577C8.68888 10.1628 8.72174 10.6711 9.02011 10.7686C9.20158 10.828 17.7184 10.8214 17.894 10.7776C18.2687 10.6842 18.2494 10.1619 17.9257 10.0636C17.6979 9.99457 9.20354 10.02 9.06761 10.0577Z" fill="#040404"/>
<path fill-rule="evenodd" clip-rule="evenodd" d="M9.39661 15.4867H17.6847C18.3653 15.4867 18.3073 14.7258 17.7287 14.7258L9.26506 14.7256C8.95584 14.7256 8.76215 14.8389 8.79732 15.1602C8.83121 15.47 9.06722 15.4867 9.39661 15.4867Z" fill="#040404"/>
<path fill-rule="evenodd" clip-rule="evenodd" d="M12.8609 20.1766H17.2463C17.5475 20.1766 17.7622 19.9895 17.6617 19.6705C17.5639 19.3604 17.22 19.4173 16.8954 19.4173L9.52816 19.4172C9.1711 19.4172 8.5197 19.3234 8.36106 19.5766C8.2181 19.8046 8.24323 20.1794 8.91319 20.1778L12.8609 20.1766Z" fill="#040404"/>
<path fill-rule="evenodd" clip-rule="evenodd" d="M5.43027 24.7117L4.99285 24.3122C4.83905 24.1767 4.57953 24.0508 4.37292 24.2683C4.02266 24.6369 4.59255 24.9638 4.68398 25.0594C4.86902 25.253 5.19288 25.6288 5.48226 25.5949C5.69671 25.5699 6.27455 24.9771 6.48196 24.7977L7.64434 23.7261C7.79987 23.6033 8.31914 23.2316 7.93361 22.9029C7.62462 22.6393 7.29604 23.0108 7.09451 23.2185C7.00562 23.3102 6.95385 23.3343 6.85366 23.4164L5.43027 24.7117Z" fill="#040404"/>
<path fill-rule="evenodd" clip-rule="evenodd" d="M5.41118 10.6393C5.24631 10.4933 4.66881 9.77514 4.34438 10.2082C4.05972 10.5882 4.54683 10.871 4.70444 11.007C5.24043 11.4701 5.30903 11.8537 6.02476 11.1403C6.50461 10.6621 7.40573 9.91107 7.89342 9.45774C8.0358 9.32538 8.14683 9.01375 7.92927 8.83263C7.5691 8.53275 7.22103 9.07843 6.81509 9.38787C6.58589 9.56254 5.69964 10.4399 5.41118 10.6393Z" fill="#040404"/>
<path fill-rule="evenodd" clip-rule="evenodd" d="M5.42006 20.0191L4.96719 19.6008C4.80486 19.4663 4.5292 19.3656 4.34911 19.5974C4.05085 19.9808 4.58592 20.2657 4.70663 20.3883L5.18982 20.8266C5.50388 21.067 5.75475 20.7631 6.02304 20.5231C6.10743 20.4475 6.15124 20.3769 6.23702 20.3019C6.32683 20.2233 6.38852 20.1937 6.48444 20.1074L7.89181 18.8406C8.26905 18.4882 7.94796 17.7558 7.27004 18.3518C7.18069 18.4303 7.14172 18.4901 7.05467 18.5731L6.34782 19.1838C6.25708 19.2637 6.22042 19.3233 6.13199 19.4044L5.42006 20.0191Z" fill="#040404"/>
<path fill-rule="evenodd" clip-rule="evenodd" d="M5.41798 15.3295L4.9658 14.9096C4.47016 14.502 3.991 15.081 4.46093 15.5021C4.79447 15.8009 5.23143 16.275 5.52139 16.2112C5.62619 16.1882 6.85186 15.0973 6.96693 14.9771C7.42487 14.4988 8.41384 13.9329 7.93181 13.5225C7.58766 13.2295 7.23844 13.7186 6.81059 14.0768L5.6707 15.1284C5.58526 15.2105 5.50168 15.2567 5.41798 15.3295Z" fill="#040404"/>
<path fill-rule="evenodd" clip-rule="evenodd" d="M10.2562 5.11122C10.6283 5.10949 11.001 5.10787 11.373 5.11006C12.2631 5.11525 13.1885 5.31586 13.078 4.52115C13.0155 4.07151 12.6424 4.1408 12.2469 4.14265C11.8748 4.14426 11.5024 4.14276 11.1302 4.14276C10.2568 4.14276 9.30237 3.93478 9.42735 4.74055C9.49387 5.16967 9.865 5.11306 10.2562 5.11122Z" fill="#040404"/>
<path fill-rule="evenodd" clip-rule="evenodd" d="M15.5878 5.56709C16.1432 5.54426 19.9927 5.50171 20.2064 5.63326C20.4944 5.81058 20.4323 6.16257 20.4322 6.57624L20.4327 26.3977C20.4327 26.8635 20.5264 28.3494 20.3372 28.6111C20.1186 28.9136 18.6524 28.7872 18.1671 28.7872L2.99411 28.7868C2.60696 28.7871 2.2198 28.8229 2.0667 28.5595C1.91716 28.302 2.00502 20.3605 2.00502 19.3374C2.00502 16.2325 1.96017 13.0973 2.00271 9.99673L2.00513 6.4885C2.00467 6.0829 1.95924 5.78257 2.25716 5.62047C2.46757 5.50586 6.29677 5.55071 6.85651 5.56501C6.90563 7.32702 6.58777 7.3653 8.16877 7.3653L14.3081 7.36507C14.8086 7.36507 15.3503 7.46652 15.5325 7.05309C15.6375 6.81478 15.5831 5.89601 15.5878 5.56709ZM7.61513 3.69843C7.9285 3.67675 8.9297 3.74028 9.13734 3.64263C9.44182 3.49932 9.24986 2.80468 9.41266 2.33706C10.1418 0.243237 13.2476 0.866161 13.1292 3.06824C13.081 3.9636 13.4319 3.61853 14.8267 3.69658L14.8196 6.60956L7.60833 6.60218L7.61513 3.69843ZM8.54796 2.92101C8.0371 2.96494 7.23905 2.79258 6.97088 3.1433C6.74606 3.43729 6.89467 4.37981 6.8474 4.80915C5.97637 4.82518 2.48336 4.68787 1.95775 4.92364C1.26611 5.23378 1.25112 5.80055 1.25723 6.70779C1.30289 13.4087 1.23406 20.167 1.25608 26.8801C1.25873 27.7026 1.13122 28.6195 1.54177 29.1231C1.97688 29.6569 2.77551 29.5337 3.60804 29.5337H18.7373C19.1518 29.5337 19.5972 29.5492 20.008 29.5317C21.4469 29.4704 21.1859 27.8002 21.1858 26.9677L21.1855 6.79552C21.1855 5.84655 21.2301 5.29096 20.5093 4.93459C19.984 4.67495 16.4728 4.82898 15.5887 4.81158C15.571 4.38384 15.6851 3.41965 15.4684 3.13615C15.1972 2.78139 14.3926 2.97774 13.8878 2.91825C13.6682 -0.559196 8.78639 -0.587558 8.54796 2.92101Z" fill="#040404"/>
</g>
<defs>
<clipPath id="clip0_14619_18">
<rect width="21.9055" height="32.2818" fill="white" transform="translate(0.0472412)"/>
</clipPath>
</defs>
</svg>
