<svg width="381" height="153" viewBox="0 0 381 153" fill="none" xmlns="http://www.w3.org/2000/svg">
<rect x="364" y="44" width="11" height="3" fill="#D9D9D9"/>
<rect x="364" y="97" width="11" height="2" fill="#D9D9D9"/>
<path fill-rule="evenodd" clip-rule="evenodd" d="M62.4386 117.838C64.0456 117.838 79.8226 117.717 80.6308 117.922C82.3732 118.363 82.3839 120.84 80.7799 121.326C78.9587 121.879 60.0685 121.469 56.5676 121.469C54.8551 121.469 39.3383 121.615 38.4061 121.375C36.7589 120.949 36.6268 118.546 38.2491 117.99C39.5999 117.528 59.2054 117.838 62.4386 117.838ZM27.844 114.53C28.3228 114.137 28.5707 114.022 28.9959 113.583C29.9593 112.59 31.5301 110.814 33.0078 112.074C34.8511 113.646 32.3683 115.423 31.6243 116.01L26.0668 121.134C25.0752 121.991 22.3121 124.826 21.2867 124.946C19.9032 125.108 18.3548 123.311 17.4699 122.385C17.0328 121.928 14.3078 120.365 15.9825 118.603C16.9705 117.563 18.2113 118.165 18.9466 118.813L21.0381 120.722L27.844 114.53ZM37.6913 99.0439C34.4884 99.0513 34.3685 97.2599 35.0515 96.1697C35.8102 94.9591 38.925 95.4072 40.6321 95.4072L75.8579 95.4079C77.4098 95.4079 79.0545 95.1359 79.5216 96.6182C80.0024 98.1438 78.9762 99.0381 77.5353 99.0381H56.5676L37.6913 99.0439ZM24.3937 95.346C24.8163 94.9589 24.9921 94.6736 25.4257 94.2916L28.8051 91.3714C29.2217 90.9744 29.4079 90.6884 29.8349 90.313C33.0764 87.4638 34.6118 90.965 32.8082 92.6503L26.079 98.7077C25.6202 99.1199 25.3251 99.2619 24.8958 99.6373C24.4856 99.9962 24.2763 100.334 23.873 100.695C22.5903 101.843 21.3906 103.296 19.889 102.146L17.5783 100.05C17.0013 99.4646 14.443 98.1021 15.8689 96.2687C16.7302 95.161 18.0482 95.6419 18.8245 96.2855L20.9898 98.2853L24.3937 95.346ZM40.003 76.6142C38.4284 76.6142 37.2994 76.5345 37.1376 75.0534C36.9697 73.5172 37.8958 72.9749 39.3741 72.9749L79.8419 72.9759C82.609 72.9759 82.8863 76.6145 79.6321 76.6145L40.003 76.6142ZM20.9797 75.8624C21.38 75.5149 21.7795 75.2937 22.1882 74.901L27.6383 69.8731C29.6842 68.1601 31.354 65.8215 32.9992 67.2226C35.3042 69.1852 30.5755 71.8906 28.386 74.1776C27.8359 74.7524 21.9753 79.9683 21.4745 80.0785C20.0881 80.3833 17.9985 78.1164 16.4041 76.6876C14.1567 74.6742 16.448 71.9058 18.8176 73.855L20.9797 75.8624ZM38.4297 50.6562C39.0797 50.4758 79.6946 50.3539 80.7842 50.6846C82.3313 51.154 82.4238 53.6516 80.6326 54.0981C79.7926 54.3077 39.0703 54.3389 38.2029 54.0555C36.7759 53.5891 36.6189 51.1583 38.4297 50.6562ZM20.9474 53.4367C22.3269 52.4837 26.5644 48.2884 27.6601 47.4532C29.6009 45.974 31.2654 43.3646 32.9875 44.7987C34.0274 45.6643 33.4968 47.1545 32.8158 47.7875C30.4838 49.9551 26.1755 53.5459 23.8808 55.8327C20.4587 59.2434 20.1308 57.409 17.5679 55.1954C16.8146 54.5447 14.4854 53.1926 15.8463 51.3758C17.3975 49.3049 20.1592 52.7387 20.9474 53.4367ZM69.6057 29.1848C69.5828 30.7573 69.8432 35.1502 69.341 36.2899C68.4698 38.2668 65.8797 37.7817 63.4868 37.7817L34.132 37.7825C26.5727 37.7825 28.0929 37.5998 27.8575 29.1749C25.1816 29.1066 6.87275 28.8919 5.86641 29.4398C4.44223 30.215 4.6594 31.6509 4.66143 33.5904L4.64975 50.3648C4.44655 65.1898 4.66067 80.1804 4.66067 95.0259C4.66067 99.918 4.24055 137.889 4.95582 139.12C5.6881 140.38 7.53874 140.208 9.39015 140.207L81.9386 140.209C84.2589 140.209 91.2688 140.814 92.314 139.367C93.2185 138.116 92.7712 131.012 92.7712 128.784L92.7687 34.01C92.769 32.0319 93.0661 30.3491 91.6889 29.5013C90.6671 28.8724 72.2612 29.0758 69.6057 29.1848Z" fill="white"/>
<mask id="mask0_14615_959" style="mask-type:luminance" maskUnits="userSpaceOnUse" x="30" y="6" width="37" height="29">
<path d="M40.3848 24.9656C39.8163 21.844 44.1564 22.6499 48.1284 22.6499C49.8211 22.6499 51.5145 22.6555 53.2069 22.6491C55.0047 22.6423 56.7015 22.3738 56.9859 24.1155C57.4889 27.1942 53.2803 26.4172 49.2326 26.3969C47.5407 26.3883 45.8465 26.3946 44.1541 26.4015C42.3751 26.4089 40.6875 26.6281 40.3848 24.9656ZM30.5478 19.7495L30.5135 34.37L66.8221 34.4071L66.8576 19.7398C59.8351 19.3471 58.0685 21.0843 58.3108 16.5763C58.9069 5.48891 43.2692 2.35252 39.5981 12.8948C38.7782 15.2491 39.7449 18.7469 38.2123 19.4683C37.1663 19.9603 32.1257 19.64 30.5478 19.7495Z" fill="white"/>
</mask>
<g mask="url(#mask0_14615_959)">
<path fill-rule="evenodd" clip-rule="evenodd" d="M48.6857 24.8935L49.1835 51.5668L48.5432 51.5693L48.6857 24.8935Z" fill="#827F7F"/>
<path fill-rule="evenodd" clip-rule="evenodd" d="M48.6857 24.8935L48.6501 51.5688L48.1165 51.566L48.6857 24.8935Z" fill="#827F7F"/>
<path fill-rule="evenodd" clip-rule="evenodd" d="M48.6856 24.8935L48.2231 51.5665L47.6897 51.5584L48.6856 24.8935Z" fill="#827F7F"/>
<path fill-rule="evenodd" clip-rule="evenodd" d="M48.6857 24.8935L47.7965 51.5602L47.2631 51.547L48.6857 24.8935Z" fill="#838080"/>
<path fill-rule="evenodd" clip-rule="evenodd" d="M48.6857 24.8935L47.3697 51.5495L46.8368 51.5315L48.6857 24.8935Z" fill="#838080"/>
<path fill-rule="evenodd" clip-rule="evenodd" d="M48.6856 24.8935L46.9432 51.535L46.4105 51.5119L48.6856 24.8935Z" fill="#848181"/>
<path fill-rule="evenodd" clip-rule="evenodd" d="M48.6856 24.8935L46.517 51.5165L45.9849 51.4883L48.6856 24.8935Z" fill="#848181"/>
<path fill-rule="evenodd" clip-rule="evenodd" d="M48.6857 24.8935L46.0913 51.4939L45.5594 51.4606L48.6857 24.8935Z" fill="#858282"/>
<path fill-rule="evenodd" clip-rule="evenodd" d="M48.6857 24.8935L45.6659 51.4675L45.1345 51.4291L48.6857 24.8935Z" fill="#858282"/>
<path fill-rule="evenodd" clip-rule="evenodd" d="M48.6857 24.8935L45.2409 51.4367L44.7103 51.3933L48.6857 24.8935Z" fill="#868383"/>
<path fill-rule="evenodd" clip-rule="evenodd" d="M48.6857 24.8935L44.8162 51.4019L44.2864 51.3537L48.6857 24.8935Z" fill="#868383"/>
<path fill-rule="evenodd" clip-rule="evenodd" d="M48.6856 24.8935L44.3925 51.3633L43.8634 51.31L48.6856 24.8935Z" fill="#878484"/>
<path fill-rule="evenodd" clip-rule="evenodd" d="M48.6856 24.8935L43.9691 51.3207L43.441 51.2622L48.6856 24.8935Z" fill="#888585"/>
<path fill-rule="evenodd" clip-rule="evenodd" d="M48.6856 24.8935L43.5467 51.2739L43.0194 51.2104L48.6856 24.8935Z" fill="#888585"/>
<path fill-rule="evenodd" clip-rule="evenodd" d="M48.6856 24.8935L43.1248 51.2231L42.5988 51.1546L48.6856 24.8935Z" fill="#898686"/>
<path fill-rule="evenodd" clip-rule="evenodd" d="M48.6857 24.8935L42.704 51.1683L42.179 51.0949L48.6857 24.8935Z" fill="#8A8787"/>
<path fill-rule="evenodd" clip-rule="evenodd" d="M48.6857 24.8935L42.2841 51.1096L41.7604 51.0314L48.6857 24.8935Z" fill="#8A8787"/>
<path fill-rule="evenodd" clip-rule="evenodd" d="M48.6857 24.8935L41.865 51.0469L41.3425 50.9635L48.6857 24.8935Z" fill="#8B8888"/>
<path fill-rule="evenodd" clip-rule="evenodd" d="M48.6856 24.8935L41.4471 50.9803L40.9259 50.8919L48.6856 24.8935Z" fill="#8C8989"/>
<path fill-rule="evenodd" clip-rule="evenodd" d="M48.6856 24.8935L41.0301 50.9097L40.5104 50.8165L48.6856 24.8935Z" fill="#8D8989"/>
<path fill-rule="evenodd" clip-rule="evenodd" d="M48.6857 24.8935L40.6146 50.835L40.0964 50.737L48.6857 24.8935Z" fill="#8D8A8A"/>
<path fill-rule="evenodd" clip-rule="evenodd" d="M48.6856 24.8935L40.2 50.7565L39.6833 50.6534L48.6856 24.8935Z" fill="#8E8B8B"/>
<path fill-rule="evenodd" clip-rule="evenodd" d="M48.6857 24.8935L39.7868 50.674L39.272 50.566L48.6857 24.8935Z" fill="#8F8B8B"/>
<path fill-rule="evenodd" clip-rule="evenodd" d="M48.6856 24.8935L39.3748 50.5876L38.8619 50.4749L48.6856 24.8935Z" fill="#8F8C8C"/>
<path fill-rule="evenodd" clip-rule="evenodd" d="M48.6856 24.8935L38.9645 50.4975L38.4532 50.3799L48.6856 24.8935Z" fill="#908D8D"/>
<path fill-rule="evenodd" clip-rule="evenodd" d="M48.6856 24.8935L38.5553 50.4032L38.046 50.2808L48.6856 24.8935Z" fill="#918D8D"/>
<path fill-rule="evenodd" clip-rule="evenodd" d="M48.6857 24.8935L38.148 50.3052L37.6407 50.1779L48.6857 24.8935Z" fill="#918E8E"/>
<path fill-rule="evenodd" clip-rule="evenodd" d="M48.6856 24.8935L37.7423 50.2033L37.2371 50.0712L48.6856 24.8935Z" fill="#928F8F"/>
<path fill-rule="evenodd" clip-rule="evenodd" d="M48.6857 24.8935L37.338 50.0977L36.8351 49.9608L48.6857 24.8935Z" fill="#938F8F"/>
<path fill-rule="evenodd" clip-rule="evenodd" d="M48.6856 24.8935L36.9356 49.9882L36.4347 49.8465L48.6856 24.8935Z" fill="#939090"/>
<path fill-rule="evenodd" clip-rule="evenodd" d="M48.6856 24.8935L36.5347 49.8749L36.0364 49.7283L48.6856 24.8935Z" fill="#949191"/>
<path fill-rule="evenodd" clip-rule="evenodd" d="M48.6856 24.8935L36.136 49.7576L35.6399 49.6064L48.6856 24.8935Z" fill="#959191"/>
<path fill-rule="evenodd" clip-rule="evenodd" d="M48.6856 24.8935L35.7393 49.6366L35.2455 49.4809L48.6856 24.8935Z" fill="#959292"/>
<path fill-rule="evenodd" clip-rule="evenodd" d="M48.6856 24.8935L35.3443 49.5119L34.853 49.3514L48.6856 24.8935Z" fill="#969292"/>
<path fill-rule="evenodd" clip-rule="evenodd" d="M48.6856 24.8935L34.9513 49.3837L34.4626 49.2186L48.6856 24.8935Z" fill="#969393"/>
<path fill-rule="evenodd" clip-rule="evenodd" d="M48.6857 24.8935L34.5605 49.2516L34.0746 49.0817L48.6857 24.8935Z" fill="#979494"/>
<path fill-rule="evenodd" clip-rule="evenodd" d="M48.6856 24.8935L34.1718 49.1157L33.6887 48.9412L48.6856 24.8935Z" fill="#989494"/>
<path fill-rule="evenodd" clip-rule="evenodd" d="M48.6856 24.8935L33.7852 48.9762L33.3049 48.7972L48.6856 24.8935Z" fill="#989595"/>
<path fill-rule="evenodd" clip-rule="evenodd" d="M48.6856 24.8935L33.4009 48.833L32.9236 48.6496L48.6856 24.8935Z" fill="#999595"/>
<path fill-rule="evenodd" clip-rule="evenodd" d="M48.6856 24.8935L33.0191 48.6862L32.5447 48.4982L48.6856 24.8935Z" fill="#999696"/>
<path fill-rule="evenodd" clip-rule="evenodd" d="M48.6856 24.8935L32.6396 48.5358L32.1682 48.3433L48.6856 24.8935Z" fill="#9A9696"/>
<path fill-rule="evenodd" clip-rule="evenodd" d="M48.6857 24.8935L32.2626 48.3819L31.7942 48.1848L48.6857 24.8935Z" fill="#9A9797"/>
<path fill-rule="evenodd" clip-rule="evenodd" d="M48.6856 24.8935L31.8878 48.2244L31.4227 48.023L48.6856 24.8935Z" fill="#9B9797"/>
<path fill-rule="evenodd" clip-rule="evenodd" d="M48.6856 24.8935L31.5157 48.0631L31.054 47.8574L48.6856 24.8935Z" fill="#9B9898"/>
<path fill-rule="evenodd" clip-rule="evenodd" d="M48.6857 24.8935L31.1465 47.8985L30.688 47.6885L48.6857 24.8935Z" fill="#9C9898"/>
<path fill-rule="evenodd" clip-rule="evenodd" d="M48.6856 24.8935L30.7796 47.7304L30.3245 47.516L48.6856 24.8935Z" fill="#9C9999"/>
<path fill-rule="evenodd" clip-rule="evenodd" d="M48.6857 24.8935L30.4155 47.5589L29.9639 47.3402L48.6857 24.8935Z" fill="#9D9999"/>
<path fill-rule="evenodd" clip-rule="evenodd" d="M48.6857 24.8935L30.0543 47.3839L29.6062 47.1609L48.6857 24.8935Z" fill="#9D9A9A"/>
<path fill-rule="evenodd" clip-rule="evenodd" d="M48.6856 24.8935L29.6958 47.2054L29.2513 46.9783L48.6856 24.8935Z" fill="#9E9A9A"/>
<path fill-rule="evenodd" clip-rule="evenodd" d="M48.6856 24.8935L29.3402 47.0238L28.8993 46.7921L48.6856 24.8935Z" fill="#9E9B9B"/>
<path fill-rule="evenodd" clip-rule="evenodd" d="M48.6856 24.8935L28.9874 46.8386L28.5503 46.6029L48.6856 24.8935Z" fill="#9F9B9B"/>
<path fill-rule="evenodd" clip-rule="evenodd" d="M48.6856 24.8935L28.6379 46.6501L28.2046 46.4103L48.6856 24.8935Z" fill="#9F9C9C"/>
<path fill-rule="evenodd" clip-rule="evenodd" d="M48.6856 24.8935L28.2912 46.4581L27.8617 46.2143L48.6856 24.8935Z" fill="#A09C9C"/>
<path fill-rule="evenodd" clip-rule="evenodd" d="M48.6856 24.8935L27.9475 46.263L27.5221 46.0151L48.6856 24.8935Z" fill="#A19D9D"/>
<path fill-rule="evenodd" clip-rule="evenodd" d="M48.6857 24.8935L27.6073 46.0649L27.1859 45.8129L48.6857 24.8935Z" fill="#A19E9E"/>
<path fill-rule="evenodd" clip-rule="evenodd" d="M48.6856 24.8935L27.2701 45.8632L26.8528 45.6074L48.6856 24.8935Z" fill="#A29E9E"/>
<path fill-rule="evenodd" clip-rule="evenodd" d="M48.6856 24.8935L26.9361 45.6585L26.5228 45.3987L48.6856 24.8935Z" fill="#A39F9F"/>
<path fill-rule="evenodd" clip-rule="evenodd" d="M48.6857 24.8935L26.6057 45.4507L26.1965 45.1871L48.6857 24.8935Z" fill="#A3A0A0"/>
<path fill-rule="evenodd" clip-rule="evenodd" d="M48.6857 24.8935L26.2783 45.2397L25.8734 44.9722L48.6857 24.8935Z" fill="#A4A0A0"/>
<path fill-rule="evenodd" clip-rule="evenodd" d="M48.6857 24.8935L25.9545 45.0255L25.554 44.7543L48.6857 24.8935Z" fill="#A5A1A1"/>
<path fill-rule="evenodd" clip-rule="evenodd" d="M48.6857 24.8935L25.6339 44.8086L25.2379 44.5333L48.6857 24.8935Z" fill="#A5A2A2"/>
<path fill-rule="evenodd" clip-rule="evenodd" d="M48.6856 24.8935L25.3171 44.5884L24.9252 44.3095L48.6856 24.8935Z" fill="#A6A3A3"/>
<path fill-rule="evenodd" clip-rule="evenodd" d="M48.6856 24.8935L25.0037 44.3651L24.6163 44.0827L48.6856 24.8935Z" fill="#A7A3A3"/>
<path fill-rule="evenodd" clip-rule="evenodd" d="M48.6856 24.8935L24.6938 44.1391L24.3113 43.8528L48.6856 24.8935Z" fill="#A8A4A4"/>
<path fill-rule="evenodd" clip-rule="evenodd" d="M48.6856 24.8935L24.3877 43.91L24.0098 43.6202L48.6856 24.8935Z" fill="#A9A5A5"/>
<path fill-rule="evenodd" clip-rule="evenodd" d="M48.6857 24.8935L24.0853 43.6781L23.7119 43.3847L48.6857 24.8935Z" fill="#AAA6A6"/>
<path fill-rule="evenodd" clip-rule="evenodd" d="M48.6856 24.8935L23.7865 43.4434L23.418 43.1464L48.6856 24.8935Z" fill="#ABA7A7"/>
<path fill-rule="evenodd" clip-rule="evenodd" d="M48.6857 24.8935L23.4917 43.2059L23.1277 42.9054L48.6857 24.8935Z" fill="#ACA8A8"/>
<path fill-rule="evenodd" clip-rule="evenodd" d="M48.6857 24.8935L23.2006 42.9656L22.8414 42.6616L48.6857 24.8935Z" fill="#ADA9A9"/>
<path fill-rule="evenodd" clip-rule="evenodd" d="M48.6856 24.8935L22.9133 42.7225L22.5592 42.4152L48.6856 24.8935Z" fill="#AEAAAA"/>
<path fill-rule="evenodd" clip-rule="evenodd" d="M48.6856 24.8935L22.6298 42.4766L22.2808 42.166L48.6856 24.8935Z" fill="#AFABAB"/>
<path fill-rule="evenodd" clip-rule="evenodd" d="M48.6856 24.8935L22.3506 42.2282L22.0062 41.9143L48.6856 24.8935Z" fill="#B0ACAC"/>
<path fill-rule="evenodd" clip-rule="evenodd" d="M48.6856 24.8935L22.0751 41.977L21.736 41.66L48.6856 24.8935Z" fill="#B1ADAD"/>
<path fill-rule="evenodd" clip-rule="evenodd" d="M48.6857 24.8935L21.8039 41.7233L21.4698 41.403L48.6857 24.8935Z" fill="#B2AEAE"/>
<path fill-rule="evenodd" clip-rule="evenodd" d="M48.6857 24.8935L21.5367 41.467L21.2078 41.1437L48.6857 24.8935Z" fill="#B3AFAF"/>
<path fill-rule="evenodd" clip-rule="evenodd" d="M48.6856 24.8935L21.2734 41.2084L20.9496 40.8818L48.6856 24.8935Z" fill="#B4B0B0"/>
<path fill-rule="evenodd" clip-rule="evenodd" d="M48.6857 24.8935L21.0144 40.9471L20.6959 40.6176L48.6857 24.8935Z" fill="#B5B1B1"/>
<path fill-rule="evenodd" clip-rule="evenodd" d="M48.6856 24.8935L20.7596 40.6834L20.4464 40.3509L48.6856 24.8935Z" fill="#B6B2B2"/>
<path fill-rule="evenodd" clip-rule="evenodd" d="M48.6857 24.8935L20.5093 40.4175L20.2014 40.0817L48.6857 24.8935Z" fill="#B7B3B3"/>
<path fill-rule="evenodd" clip-rule="evenodd" d="M48.6856 24.8935L20.2627 40.149L19.9602 39.8104L48.6856 24.8935Z" fill="#B8B4B4"/>
<path fill-rule="evenodd" clip-rule="evenodd" d="M48.6857 24.8935L20.0211 39.8782L19.7239 39.5368L48.6857 24.8935Z" fill="#B8B4B4"/>
<path fill-rule="evenodd" clip-rule="evenodd" d="M48.6857 24.8935L19.7833 39.6052L19.4917 39.261L48.6857 24.8935Z" fill="#B8B4B4"/>
<path fill-rule="evenodd" clip-rule="evenodd" d="M48.6856 24.8935L19.55 39.3298L19.264 38.9831L48.6856 24.8935Z" fill="#B8B4B4"/>
<path fill-rule="evenodd" clip-rule="evenodd" d="M48.6856 24.8935L19.3212 39.0525L19.0408 38.703L48.6856 24.8935Z" fill="#B7B3B3"/>
<path fill-rule="evenodd" clip-rule="evenodd" d="M48.6857 24.8935L19.097 38.7728L18.8221 38.4208L48.6857 24.8935Z" fill="#B7B3B3"/>
<path fill-rule="evenodd" clip-rule="evenodd" d="M48.6857 24.8935L18.877 38.4911L18.608 38.1365L48.6857 24.8935Z" fill="#B6B2B2"/>
<path fill-rule="evenodd" clip-rule="evenodd" d="M48.6857 24.8935L18.6618 38.2074L18.3982 37.8503L48.6857 24.8935Z" fill="#B5B2B2"/>
<path fill-rule="evenodd" clip-rule="evenodd" d="M48.6857 24.8935L18.451 37.9217L18.1932 37.562L48.6857 24.8935Z" fill="#B5B1B1"/>
<path fill-rule="evenodd" clip-rule="evenodd" d="M48.6856 24.8935L18.2448 37.6339L17.9928 37.2717L48.6856 24.8935Z" fill="#B4B0B0"/>
<path fill-rule="evenodd" clip-rule="evenodd" d="M48.6857 24.8935L18.0434 37.3441L17.797 36.9796L48.6857 24.8935Z" fill="#B3AFAF"/>
<path fill-rule="evenodd" clip-rule="evenodd" d="M48.6857 24.8935L17.8462 37.0525L17.606 36.6857L48.6857 24.8935Z" fill="#B2AEAE"/>
<path fill-rule="evenodd" clip-rule="evenodd" d="M48.6857 24.8935L17.654 36.7591L17.4198 36.39L48.6857 24.8935Z" fill="#B1ADAD"/>
<path fill-rule="evenodd" clip-rule="evenodd" d="M48.6856 24.8935L17.4665 36.464L17.2382 36.0926L48.6856 24.8935Z" fill="#B0ACAC"/>
<path fill-rule="evenodd" clip-rule="evenodd" d="M48.6857 24.8935L17.2839 36.167L17.0614 35.7936L48.6857 24.8935Z" fill="#AFABAB"/>
<path fill-rule="evenodd" clip-rule="evenodd" d="M48.6856 24.8935L17.1058 35.8683L16.8892 35.4927L48.6856 24.8935Z" fill="#AEAAAA"/>
<path fill-rule="evenodd" clip-rule="evenodd" d="M48.6857 24.8935L16.9326 35.5678L16.722 35.1904L48.6857 24.8935Z" fill="#ADA9A9"/>
<path fill-rule="evenodd" clip-rule="evenodd" d="M48.6856 24.8935L16.7642 35.2658L16.5597 34.8864L48.6856 24.8935Z" fill="#ACA8A8"/>
<path fill-rule="evenodd" clip-rule="evenodd" d="M48.6856 24.8935L16.6006 34.9623L16.4022 34.5811L48.6856 24.8935Z" fill="#AAA7A7"/>
<path fill-rule="evenodd" clip-rule="evenodd" d="M48.6857 24.8935L16.4419 34.6573L16.2496 34.274L48.6857 24.8935Z" fill="#A9A6A6"/>
<path fill-rule="evenodd" clip-rule="evenodd" d="M48.6857 24.8935L16.2882 34.3507L16.1021 33.9656L48.6857 24.8935Z" fill="#A8A5A5"/>
<path fill-rule="evenodd" clip-rule="evenodd" d="M48.6856 24.8935L16.1393 34.0426L15.9592 33.656L48.6856 24.8935Z" fill="#A7A4A4"/>
<path fill-rule="evenodd" clip-rule="evenodd" d="M48.6857 24.8935L15.9954 33.7332L15.8217 33.3448L48.6857 24.8935Z" fill="#A6A3A3"/>
<path fill-rule="evenodd" clip-rule="evenodd" d="M48.6857 24.8935L15.8565 33.4226L15.6888 33.0324L48.6857 24.8935Z" fill="#A5A2A2"/>
<path fill-rule="evenodd" clip-rule="evenodd" d="M48.6857 24.8935L15.7223 33.1104L15.561 32.719L48.6857 24.8935Z" fill="#A4A1A1"/>
<path fill-rule="evenodd" clip-rule="evenodd" d="M48.6857 24.8935L15.5933 32.7972L15.4384 32.404L48.6857 24.8935Z" fill="#A3A1A1"/>
<path fill-rule="evenodd" clip-rule="evenodd" d="M48.6856 24.8935L15.4693 32.4828L15.3207 32.0883L48.6856 24.8935Z" fill="#A3A0A0"/>
<path fill-rule="evenodd" clip-rule="evenodd" d="M48.6857 24.8935L15.3505 32.167L15.2083 31.7713L48.6857 24.8935Z" fill="#A29F9F"/>
<path fill-rule="evenodd" clip-rule="evenodd" d="M48.6856 24.8935L15.2366 31.8503L15.1007 31.453L48.6856 24.8935Z" fill="#A19E9E"/>
<path fill-rule="evenodd" clip-rule="evenodd" d="M48.6857 24.8935L15.128 31.5325L14.9982 31.134L48.6857 24.8935Z" fill="#A09D9D"/>
<path fill-rule="evenodd" clip-rule="evenodd" d="M48.6857 24.8935L15.0241 31.2138L14.9009 30.8142L48.6857 24.8935Z" fill="#9F9C9C"/>
<path fill-rule="evenodd" clip-rule="evenodd" d="M48.6856 24.8935L14.9254 30.894L14.8086 30.4932L48.6856 24.8935Z" fill="#9E9B9B"/>
<path fill-rule="evenodd" clip-rule="evenodd" d="M48.6857 24.8935L14.832 30.5734L14.7218 30.1714L48.6857 24.8935Z" fill="#9D9B9B"/>
<path fill-rule="evenodd" clip-rule="evenodd" d="M48.6857 24.8935L14.7439 30.2519L14.6398 29.849L48.6857 24.8935Z" fill="#9C9A9A"/>
<path fill-rule="evenodd" clip-rule="evenodd" d="M48.6856 24.8935L14.6605 29.9296L14.563 29.5257L48.6856 24.8935Z" fill="#9C9999"/>
<path fill-rule="evenodd" clip-rule="evenodd" d="M48.6856 24.8935L14.5825 29.6065L14.4916 29.2016L48.6856 24.8935Z" fill="#9B9898"/>
<path fill-rule="evenodd" clip-rule="evenodd" d="M48.6856 24.8935L14.5096 29.2826L14.425 28.877L48.6856 24.8935Z" fill="#9A9898"/>
<path fill-rule="evenodd" clip-rule="evenodd" d="M48.6856 24.8935L14.4421 28.958L14.3641 28.5516L48.6856 24.8935Z" fill="#999797"/>
<path fill-rule="evenodd" clip-rule="evenodd" d="M48.6856 24.8935L14.3796 28.6329L14.3082 28.226L48.6856 24.8935Z" fill="#999696"/>
<path fill-rule="evenodd" clip-rule="evenodd" d="M48.6856 24.8935L14.3225 28.3073L14.2574 27.8996L48.6856 24.8935Z" fill="#989696"/>
<path fill-rule="evenodd" clip-rule="evenodd" d="M48.6856 24.8935L14.2703 27.9811L14.2119 27.5729L48.6856 24.8935Z" fill="#979595"/>
<path fill-rule="evenodd" clip-rule="evenodd" d="M48.6857 24.8935L14.2237 27.6545L14.1716 27.2455L48.6857 24.8935Z" fill="#979494"/>
<path fill-rule="evenodd" clip-rule="evenodd" d="M48.6857 24.8935L14.1821 27.3273L14.1366 26.9181L48.6857 24.8935Z" fill="#969494"/>
<path fill-rule="evenodd" clip-rule="evenodd" d="M48.6857 24.8935L14.1458 26.9999L14.1069 26.5902L48.6857 24.8935Z" fill="#959393"/>
<path fill-rule="evenodd" clip-rule="evenodd" d="M48.6856 24.8935L14.1147 26.6723L14.0824 26.262L48.6856 24.8935Z" fill="#959292"/>
<path fill-rule="evenodd" clip-rule="evenodd" d="M48.6856 24.8935L14.0888 26.3441L14.0631 25.9339L48.6856 24.8935Z" fill="#949292"/>
<path fill-rule="evenodd" clip-rule="evenodd" d="M48.6857 24.8935L14.0683 26.0159L14.049 25.6055L48.6857 24.8935Z" fill="#939191"/>
<path fill-rule="evenodd" clip-rule="evenodd" d="M48.6856 24.8935L14.053 25.6875L14.0403 25.2768L48.6856 24.8935Z" fill="#939191"/>
<path fill-rule="evenodd" clip-rule="evenodd" d="M48.6856 24.8935L14.0428 25.3588L14.0367 24.9481L48.6856 24.8935Z" fill="#929090"/>
<path fill-rule="evenodd" clip-rule="evenodd" d="M48.6856 24.8935L14.038 25.0304L14.0385 24.6194L48.6856 24.8935Z" fill="#929090"/>
<path fill-rule="evenodd" clip-rule="evenodd" d="M48.6857 24.8935L14.0386 24.7017L14.0457 24.291L48.6857 24.8935Z" fill="#918F8F"/>
<path fill-rule="evenodd" clip-rule="evenodd" d="M48.6856 24.8935L14.0441 24.373L14.0578 23.9623L48.6856 24.8935Z" fill="#908F8F"/>
<path fill-rule="evenodd" clip-rule="evenodd" d="M48.6857 24.8935L14.0551 24.0446L14.0754 23.6339L48.6857 24.8935Z" fill="#908E8E"/>
<path fill-rule="evenodd" clip-rule="evenodd" d="M48.6856 24.8935L14.0713 23.7162L14.0982 23.3057L48.6856 24.8935Z" fill="#8F8D8D"/>
<path fill-rule="evenodd" clip-rule="evenodd" d="M48.6857 24.8935L14.0929 23.3878L14.1262 22.9778L48.6857 24.8935Z" fill="#8E8D8D"/>
<path fill-rule="evenodd" clip-rule="evenodd" d="M48.6856 24.8935L14.1195 23.0598L14.1594 22.6501L48.6856 24.8935Z" fill="#8E8C8C"/>
<path fill-rule="evenodd" clip-rule="evenodd" d="M48.6856 24.8935L14.1515 22.7322L14.198 22.323L48.6856 24.8935Z" fill="#8D8B8B"/>
<path fill-rule="evenodd" clip-rule="evenodd" d="M48.6857 24.8935L14.1887 22.4048L14.2418 21.9961L48.6857 24.8935Z" fill="#8C8B8B"/>
<path fill-rule="evenodd" clip-rule="evenodd" d="M48.6857 24.8935L14.2311 22.0779L14.2908 21.6695L48.6857 24.8935Z" fill="#8C8A8A"/>
<path fill-rule="evenodd" clip-rule="evenodd" d="M48.6856 24.8935L14.2788 21.7512L14.3448 21.3436L48.6856 24.8935Z" fill="#8B8989"/>
<path fill-rule="evenodd" clip-rule="evenodd" d="M48.6857 24.8935L14.3317 21.4251L14.4043 21.0182L48.6857 24.8935Z" fill="#8A8989"/>
<path fill-rule="evenodd" clip-rule="evenodd" d="M48.6856 24.8935L14.3898 21.0995L14.4688 20.6933L48.6856 24.8935Z" fill="#898888"/>
<path fill-rule="evenodd" clip-rule="evenodd" d="M48.6857 24.8935L14.4531 20.7746L14.5387 20.369L48.6857 24.8935Z" fill="#898787"/>
<path fill-rule="evenodd" clip-rule="evenodd" d="M48.6856 24.8935L14.5216 20.45L14.6136 20.0454L48.6856 24.8935Z" fill="#888686"/>
<path fill-rule="evenodd" clip-rule="evenodd" d="M48.6857 24.8935L14.5953 20.1264L14.6939 19.7228L48.6857 24.8935Z" fill="#878686"/>
<path fill-rule="evenodd" clip-rule="evenodd" d="M48.6856 24.8935L14.674 19.8033L14.7791 19.4007L48.6856 24.8935Z" fill="#868585"/>
<path fill-rule="evenodd" clip-rule="evenodd" d="M48.6856 24.8935L14.7581 19.4813L14.8696 19.0794L48.6856 24.8935Z" fill="#858484"/>
<path fill-rule="evenodd" clip-rule="evenodd" d="M48.6857 24.8935L14.8473 19.1599L14.9651 18.7591L48.6857 24.8935Z" fill="#848383"/>
<path fill-rule="evenodd" clip-rule="evenodd" d="M48.6857 24.8935L14.9418 18.8394L15.066 18.4398L48.6857 24.8935Z" fill="#838282"/>
<path fill-rule="evenodd" clip-rule="evenodd" d="M48.6856 24.8935L15.041 18.5196L15.1718 18.1213L48.6856 24.8935Z" fill="#828181"/>
<path fill-rule="evenodd" clip-rule="evenodd" d="M48.6857 24.8935L15.1458 18.2011L15.2827 17.8041L48.6857 24.8935Z" fill="#828080"/>
<path fill-rule="evenodd" clip-rule="evenodd" d="M48.6856 24.8935L15.2551 17.8836L15.3986 17.4879L48.6856 24.8935Z" fill="#818080"/>
<path fill-rule="evenodd" clip-rule="evenodd" d="M48.6857 24.8935L15.37 17.5668L15.5196 17.1726L48.6857 24.8935Z" fill="#807F7F"/>
<path fill-rule="evenodd" clip-rule="evenodd" d="M48.6856 24.8935L15.4896 17.2514L15.6458 16.8587L48.6856 24.8935Z" fill="#7F7E7E"/>
<path fill-rule="evenodd" clip-rule="evenodd" d="M48.6857 24.8935L15.6146 16.9372L15.7769 16.5458L48.6857 24.8935Z" fill="#7E7D7D"/>
<path fill-rule="evenodd" clip-rule="evenodd" d="M48.6856 24.8935L15.7444 16.6243L15.9128 16.2344L48.6856 24.8935Z" fill="#7D7C7C"/>
<path fill-rule="evenodd" clip-rule="evenodd" d="M48.6857 24.8935L15.8793 16.3123L16.054 15.9242L48.6857 24.8935Z" fill="#7C7B7B"/>
<path fill-rule="evenodd" clip-rule="evenodd" d="M48.6857 24.8935L16.019 16.0017L16.1999 15.6154L48.6857 24.8935Z" fill="#7B7A7A"/>
<path fill-rule="evenodd" clip-rule="evenodd" d="M48.6856 24.8935L16.1637 15.6926L16.3509 15.308L48.6856 24.8935Z" fill="#797979"/>
<path fill-rule="evenodd" clip-rule="evenodd" d="M48.6857 24.8935L16.3134 15.385L16.5066 15.002L48.6857 24.8935Z" fill="#787878"/>
<path fill-rule="evenodd" clip-rule="evenodd" d="M48.6856 24.8935L16.468 15.0787L16.6674 14.6974L48.6856 24.8935Z" fill="#777777"/>
<path fill-rule="evenodd" clip-rule="evenodd" d="M48.6857 24.8935L16.6276 14.7736L16.8331 14.3947L48.6857 24.8935Z" fill="#767676"/>
<path fill-rule="evenodd" clip-rule="evenodd" d="M48.6856 24.8935L16.7919 14.4703L17.0035 14.0931L48.6856 24.8935Z" fill="#757575"/>
<path fill-rule="evenodd" clip-rule="evenodd" d="M48.6857 24.8935L16.9611 14.1686L17.1787 13.7937L48.6857 24.8935Z" fill="#747474"/>
<path fill-rule="evenodd" clip-rule="evenodd" d="M48.6856 24.8935L17.135 13.8686L17.3585 13.4955L48.6856 24.8935Z" fill="#737373"/>
<path fill-rule="evenodd" clip-rule="evenodd" d="M48.6856 24.8935L17.3138 13.5701L17.5435 13.1993L48.6856 24.8935Z" fill="#727272"/>
<path fill-rule="evenodd" clip-rule="evenodd" d="M48.6857 24.8935L17.4976 13.2735L17.733 12.9049L48.6857 24.8935Z" fill="#717171"/>
<path fill-rule="evenodd" clip-rule="evenodd" d="M48.6856 24.8935L17.6857 12.9786L17.927 12.6121L48.6856 24.8935Z" fill="#707070"/>
<path fill-rule="evenodd" clip-rule="evenodd" d="M48.6857 24.8935L17.8788 12.6855L18.1259 12.3212L48.6857 24.8935Z" fill="#706F6F"/>
<path fill-rule="evenodd" clip-rule="evenodd" d="M48.6857 24.8935L18.0767 12.3941L18.3294 12.0324L48.6857 24.8935Z" fill="#6F6F6F"/>
<path fill-rule="evenodd" clip-rule="evenodd" d="M48.6857 24.8935L18.2788 12.1048L18.5376 11.7454L48.6857 24.8935Z" fill="#6E6E6E"/>
<path fill-rule="evenodd" clip-rule="evenodd" d="M48.6857 24.8935L18.4858 11.8173L18.7503 11.4604L48.6857 24.8935Z" fill="#6E6E6E"/>
<path fill-rule="evenodd" clip-rule="evenodd" d="M48.6856 24.8935L18.6974 11.5318L18.9674 11.1777L48.6856 24.8935Z" fill="#6D6D6D"/>
<path fill-rule="evenodd" clip-rule="evenodd" d="M48.6857 24.8935L18.9133 11.2486L19.1892 10.8968L48.6857 24.8935Z" fill="#6D6D6D"/>
<path fill-rule="evenodd" clip-rule="evenodd" d="M48.6857 24.8935L19.134 10.9672L19.4155 10.6182L48.6857 24.8935Z" fill="#6E6E6E"/>
<path fill-rule="evenodd" clip-rule="evenodd" d="M48.6857 24.8935L19.3591 10.6878L19.6462 10.3416L48.6857 24.8935Z" fill="#737373"/>
<path fill-rule="evenodd" clip-rule="evenodd" d="M48.6857 24.8935L19.5887 10.4109L19.8811 10.0672L48.6857 24.8935Z" fill="#797979"/>
<path fill-rule="evenodd" clip-rule="evenodd" d="M48.6857 24.8935L19.8226 10.1358L20.1206 9.79523L48.6857 24.8935Z" fill="#7F7F7F"/>
<path fill-rule="evenodd" clip-rule="evenodd" d="M48.6856 24.8935L20.0608 9.86328L20.3641 9.52521L48.6856 24.8935Z" fill="#858585"/>
<path fill-rule="evenodd" clip-rule="evenodd" d="M48.6857 24.8935L20.3037 9.59303L20.6123 9.25775L48.6857 24.8935Z" fill="#8B8B8B"/>
<path fill-rule="evenodd" clip-rule="evenodd" d="M48.6856 24.8935L20.5505 9.32481L20.8645 8.99283L48.6856 24.8935Z" fill="#909090"/>
<path fill-rule="evenodd" clip-rule="evenodd" d="M48.6856 24.8935L20.8018 9.05912L21.121 8.73019L48.6856 24.8935Z" fill="#959595"/>
<path fill-rule="evenodd" clip-rule="evenodd" d="M48.6857 24.8935L21.0574 8.79598L21.382 8.46985L48.6857 24.8935Z" fill="#9A9A9A"/>
<path fill-rule="evenodd" clip-rule="evenodd" d="M48.6857 24.8935L21.3169 8.53511L21.6468 8.21228L48.6857 24.8935Z" fill="#9E9E9E"/>
<path fill-rule="evenodd" clip-rule="evenodd" d="M48.6857 24.8935L21.5808 8.27679L21.9158 7.957L48.6857 24.8935Z" fill="#A1A1A1"/>
<path fill-rule="evenodd" clip-rule="evenodd" d="M48.6856 24.8935L21.8488 8.02102L22.1889 7.70428L48.6856 24.8935Z" fill="#A5A5A5"/>
<path fill-rule="evenodd" clip-rule="evenodd" d="M48.6856 24.8935L22.1207 7.76778L22.4657 7.45435L48.6856 24.8935Z" fill="#A8A8A8"/>
<path fill-rule="evenodd" clip-rule="evenodd" d="M48.6856 24.8935L22.3969 7.51707L22.7469 7.20694L48.6856 24.8935Z" fill="#ABABAB"/>
<path fill-rule="evenodd" clip-rule="evenodd" d="M48.6856 24.8935L22.6768 7.26892L23.0318 6.96234L48.6856 24.8935Z" fill="#ADADAD"/>
<path fill-rule="evenodd" clip-rule="evenodd" d="M48.6857 24.8935L22.9608 7.02355L23.3207 6.72028L48.6857 24.8935Z" fill="#B0B0B0"/>
<path fill-rule="evenodd" clip-rule="evenodd" d="M48.6857 24.8935L23.2489 6.78099L23.6136 6.48102L48.6857 24.8935Z" fill="#B2B2B2"/>
<path fill-rule="evenodd" clip-rule="evenodd" d="M48.6856 24.8935L23.5404 6.54098L23.91 6.24481L48.6856 24.8935Z" fill="#B4B4B4"/>
<path fill-rule="evenodd" clip-rule="evenodd" d="M48.6856 24.8935L23.8361 6.30397L24.2102 6.01111L48.6856 24.8935Z" fill="#B6B6B6"/>
<path fill-rule="evenodd" clip-rule="evenodd" d="M48.6856 24.8935L24.1355 6.06979L24.5142 5.78049L48.6856 24.8935Z" fill="#B7B7B7"/>
<path fill-rule="evenodd" clip-rule="evenodd" d="M48.6857 24.8935L24.4386 5.83839L24.8221 5.55264L48.6857 24.8935Z" fill="#B9B9B9"/>
<path fill-rule="evenodd" clip-rule="evenodd" d="M48.6856 24.8935L24.7454 5.6098L25.1332 5.32761L48.6856 24.8935Z" fill="#BBBBBB"/>
<path fill-rule="evenodd" clip-rule="evenodd" d="M48.6857 24.8935L25.0558 5.38425L25.4482 5.10587L48.6857 24.8935Z" fill="#BDBDBD"/>
<path fill-rule="evenodd" clip-rule="evenodd" d="M48.6857 24.8935L25.3698 5.16148L25.7665 4.8869L48.6857 24.8935Z" fill="#BFBFBF"/>
<path fill-rule="evenodd" clip-rule="evenodd" d="M48.6857 24.8935L25.6873 4.94178L26.0886 4.67102L48.6857 24.8935Z" fill="#C0C0C0"/>
<path fill-rule="evenodd" clip-rule="evenodd" d="M48.6857 24.8935L26.0083 4.72511L26.4137 4.45816L48.6857 24.8935Z" fill="#C2C2C2"/>
<path fill-rule="evenodd" clip-rule="evenodd" d="M48.6857 24.8935L26.3326 4.51177L26.7423 4.24863L48.6857 24.8935Z" fill="#C4C4C4"/>
<path fill-rule="evenodd" clip-rule="evenodd" d="M48.6856 24.8935L26.6605 4.30119L27.0743 4.04211L48.6856 24.8935Z" fill="#C6C6C6"/>
<path fill-rule="evenodd" clip-rule="evenodd" d="M48.6856 24.8935L26.9915 4.09392L27.4095 3.83865L48.6856 24.8935Z" fill="#C7C7C7"/>
<path fill-rule="evenodd" clip-rule="evenodd" d="M48.6857 24.8935L27.326 3.88973L27.7482 3.63852L48.6857 24.8935Z" fill="#C9C9C9"/>
<path fill-rule="evenodd" clip-rule="evenodd" d="M48.6857 24.8935L27.6639 3.68855L28.0902 3.44141L48.6857 24.8935Z" fill="#CBCBCB"/>
<path fill-rule="evenodd" clip-rule="evenodd" d="M48.6857 24.8935L28.0048 3.49095L28.4348 3.24762L48.6857 24.8935Z" fill="#CCCCCC"/>
<path fill-rule="evenodd" clip-rule="evenodd" d="M48.6856 24.8935L28.3489 3.29639L28.7827 3.05737L48.6856 24.8935Z" fill="#CECECE"/>
<path fill-rule="evenodd" clip-rule="evenodd" d="M48.6856 24.8935L28.6958 3.1051L29.1334 2.87015L48.6856 24.8935Z" fill="#D0D0D0"/>
<path fill-rule="evenodd" clip-rule="evenodd" d="M48.6857 24.8935L29.0461 2.91713L29.4876 2.68625L48.6857 24.8935Z" fill="#D1D1D1"/>
<path fill-rule="evenodd" clip-rule="evenodd" d="M48.6856 24.8935L29.3992 2.73249L29.8442 2.50592L48.6856 24.8935Z" fill="#D3D3D3"/>
<path fill-rule="evenodd" clip-rule="evenodd" d="M48.6857 24.8935L29.7554 2.55139L30.2039 2.32889L48.6857 24.8935Z" fill="#D5D5D5"/>
<path fill-rule="evenodd" clip-rule="evenodd" d="M48.6856 24.8935L30.1141 2.37333L30.5665 2.1554L48.6856 24.8935Z" fill="#D6D6D6"/>
<path fill-rule="evenodd" clip-rule="evenodd" d="M48.6856 24.8935L30.4758 2.19907L30.9315 1.9852L48.6856 24.8935Z" fill="#D8D8D8"/>
<path fill-rule="evenodd" clip-rule="evenodd" d="M48.6857 24.8935L30.8407 2.0279L31.2997 1.8186L48.6857 24.8935Z" fill="#D9D9D9"/>
<path fill-rule="evenodd" clip-rule="evenodd" d="M48.6856 24.8935L31.2076 1.8605L31.6702 1.65552L48.6856 24.8935Z" fill="#DBDBDB"/>
<path fill-rule="evenodd" clip-rule="evenodd" d="M48.6857 24.8935L31.5778 1.69642L32.0433 1.49576L48.6857 24.8935Z" fill="#DDDDDD"/>
<path fill-rule="evenodd" clip-rule="evenodd" d="M48.6856 24.8935L31.9501 1.5359L32.419 1.33981L48.6856 24.8935Z" fill="#DEDEDE"/>
<path fill-rule="evenodd" clip-rule="evenodd" d="M48.6857 24.8935L32.3253 1.37893L32.797 1.18716L48.6857 24.8935Z" fill="#E0E0E0"/>
<path fill-rule="evenodd" clip-rule="evenodd" d="M48.6857 24.8935L32.7028 1.2255L33.1777 1.0383L48.6857 24.8935Z" fill="#E1E1E1"/>
<path fill-rule="evenodd" clip-rule="evenodd" d="M48.6857 24.8935L33.0828 1.07589L33.5605 0.893005L48.6857 24.8935Z" fill="#E2E2E2"/>
<path fill-rule="evenodd" clip-rule="evenodd" d="M48.6857 24.8935L33.465 0.92959L33.9458 0.751282L48.6857 24.8935Z" fill="#E4E4E4"/>
<path fill-rule="evenodd" clip-rule="evenodd" d="M48.6856 24.8935L33.8495 0.787078L34.3331 0.613342L48.6856 24.8935Z" fill="#E5E5E5"/>
<path fill-rule="evenodd" clip-rule="evenodd" d="M48.6856 24.8935L34.2363 0.648158L34.7227 0.479248L48.6856 24.8935Z" fill="#E7E7E7"/>
<path fill-rule="evenodd" clip-rule="evenodd" d="M48.6857 24.8935L34.6255 0.513042L35.1144 0.34845L48.6857 24.8935Z" fill="#E8E8E8"/>
<path fill-rule="evenodd" clip-rule="evenodd" d="M48.6856 24.8935L35.0166 0.381446L35.5081 0.22168L48.6856 24.8935Z" fill="#E9E9E9"/>
<path fill-rule="evenodd" clip-rule="evenodd" d="M48.6856 24.8935L35.4098 0.253705L35.9041 0.0985107L48.6856 24.8935Z" fill="#EAEAEA"/>
<path fill-rule="evenodd" clip-rule="evenodd" d="M48.6856 24.8935L35.8053 0.129494L36.3016 -0.020874L48.6856 24.8935Z" fill="#ECECEC"/>
<path fill-rule="evenodd" clip-rule="evenodd" d="M48.6856 24.8935L36.2023 0.00935191L36.7014 -0.136444L48.6856 24.8935Z" fill="#EDEDED"/>
<path fill-rule="evenodd" clip-rule="evenodd" d="M48.6856 24.8935L36.6016 -0.107229L37.1027 -0.248199L48.6856 24.8935Z" fill="#EEEEEE"/>
<path fill-rule="evenodd" clip-rule="evenodd" d="M48.6857 24.8935L37.0024 -0.219996L37.5059 -0.35614L48.6857 24.8935Z" fill="#EFEFEF"/>
<path fill-rule="evenodd" clip-rule="evenodd" d="M48.6857 24.8935L37.4053 -0.328725L37.911 -0.460297L48.6857 24.8935Z" fill="#F0F0F0"/>
<path fill-rule="evenodd" clip-rule="evenodd" d="M48.6857 24.8935L37.8097 -0.433872L38.3174 -0.560364L48.6857 24.8935Z" fill="#F1F1F1"/>
<path fill-rule="evenodd" clip-rule="evenodd" d="M48.6857 24.8935L38.2158 -0.535225L38.7256 -0.656891L48.6857 24.8935Z" fill="#F2F2F2"/>
<path fill-rule="evenodd" clip-rule="evenodd" d="M48.6856 24.8935L38.6234 -0.632519L39.135 -0.749359L48.6856 24.8935Z" fill="#F3F3F3"/>
<path fill-rule="evenodd" clip-rule="evenodd" d="M48.6856 24.8935L39.0326 -0.725968L39.5462 -0.837982L48.6856 24.8935Z" fill="#F4F4F4"/>
<path fill-rule="evenodd" clip-rule="evenodd" d="M48.6857 24.8935L39.4434 -0.815633L39.9585 -0.922821L48.6857 24.8935Z" fill="#F5F5F5"/>
<path fill-rule="evenodd" clip-rule="evenodd" d="M48.6856 24.8935L39.8556 -0.901239L40.3722 -1.0036L48.6856 24.8935Z" fill="#F6F6F6"/>
<path fill-rule="evenodd" clip-rule="evenodd" d="M48.6856 24.8935L40.2688 -0.98303L40.7872 -1.08057L48.6856 24.8935Z" fill="#F7F7F7"/>
<path fill-rule="evenodd" clip-rule="evenodd" d="M48.6856 24.8935L40.6836 -1.06102L41.2035 -1.15347L48.6856 24.8935Z" fill="#F8F8F8"/>
<path fill-rule="evenodd" clip-rule="evenodd" d="M48.6857 24.8935L41.0997 -1.13491L41.6209 -1.22229L48.6857 24.8935Z" fill="#F9F9F9"/>
<path fill-rule="evenodd" clip-rule="evenodd" d="M48.6856 24.8935L41.5167 -1.20503L42.0392 -1.28732L48.6856 24.8935Z" fill="#F9F9F9"/>
<path fill-rule="evenodd" clip-rule="evenodd" d="M48.6856 24.8935L41.9348 -1.27079L42.4588 -1.34851L48.6856 24.8935Z" fill="#FAFAFA"/>
<path fill-rule="evenodd" clip-rule="evenodd" d="M48.6857 24.8935L42.354 -1.33304L42.8793 -1.40543L48.6857 24.8935Z" fill="#FBFBFB"/>
<path fill-rule="evenodd" clip-rule="evenodd" d="M48.6856 24.8935L42.774 -1.39096L43.3003 -1.45853L48.6856 24.8935Z" fill="#FBFBFB"/>
<path fill-rule="evenodd" clip-rule="evenodd" d="M48.6857 24.8935L43.1952 -1.44504L43.7225 -1.50778L48.6857 24.8935Z" fill="#FCFCFC"/>
<path fill-rule="evenodd" clip-rule="evenodd" d="M48.6856 24.8935L43.6171 -1.49511L44.1454 -1.55276L48.6856 24.8935Z" fill="#FCFCFC"/>
<path fill-rule="evenodd" clip-rule="evenodd" d="M48.6856 24.8935L44.0397 -1.54132L44.5688 -1.5939L48.6856 24.8935Z" fill="#FDFDFD"/>
<path fill-rule="evenodd" clip-rule="evenodd" d="M48.6856 24.8935L44.4631 -1.58323L44.993 -1.63098L48.6856 24.8935Z" fill="#FDFDFD"/>
<path fill-rule="evenodd" clip-rule="evenodd" d="M48.6857 24.8935L44.8871 -1.62134L45.4177 -1.66376L48.6857 24.8935Z" fill="#FEFEFE"/>
<path fill-rule="evenodd" clip-rule="evenodd" d="M48.6857 24.8935L45.3115 -1.65537L45.8429 -1.69296L48.6857 24.8935Z" fill="#FEFEFE"/>
<path fill-rule="evenodd" clip-rule="evenodd" d="M48.6856 24.8935L45.7367 -1.68532L46.2686 -1.71783L48.6856 24.8935Z" fill="#FEFEFE"/>
<path fill-rule="evenodd" clip-rule="evenodd" d="M48.6856 24.8935L46.1621 -1.71125L46.6945 -1.73868L48.6856 24.8935Z" fill="white"/>
<path fill-rule="evenodd" clip-rule="evenodd" d="M48.6857 24.8935L46.5881 -1.73333L47.121 -1.75543L48.6857 24.8935Z" fill="white"/>
<path fill-rule="evenodd" clip-rule="evenodd" d="M48.6857 24.8935L47.0144 -1.7511L47.5476 -1.76837L48.6857 24.8935Z" fill="white"/>
<path fill-rule="evenodd" clip-rule="evenodd" d="M48.6857 24.8935L47.4408 -1.76485L47.9742 -1.77704L48.6857 24.8935Z" fill="white"/>
<path fill-rule="evenodd" clip-rule="evenodd" d="M48.6857 24.8935L47.8676 -1.77475L48.401 -1.78186L48.6857 24.8935Z" fill="white"/>
<path fill-rule="evenodd" clip-rule="evenodd" d="M48.6856 24.8935L48.2942 -1.78034L48.8278 -1.78262L48.6856 24.8935Z" fill="white"/>
<path fill-rule="evenodd" clip-rule="evenodd" d="M48.6855 24.8935L48.7211 -1.7821L49.2545 -1.77906L48.6855 24.8935Z" fill="white"/>
<path fill-rule="evenodd" clip-rule="evenodd" d="M48.6855 24.8935L49.1478 -1.77982L49.6815 -1.77169L48.6855 24.8935Z" fill="white"/>
<path fill-rule="evenodd" clip-rule="evenodd" d="M48.6855 24.8935L49.5745 -1.77347L50.1079 -1.76026L48.6855 24.8935Z" fill="white"/>
<path fill-rule="evenodd" clip-rule="evenodd" d="M48.6855 24.8935L50.0013 -1.76282L50.5344 -1.74478L48.6855 24.8935Z" fill="#FEFEFE"/>
<path fill-rule="evenodd" clip-rule="evenodd" d="M48.6855 24.8935L50.4277 -1.74832L50.9604 -1.72521L48.6855 24.8935Z" fill="#FEFEFE"/>
<path fill-rule="evenodd" clip-rule="evenodd" d="M48.6855 24.8935L50.8539 -1.7298L51.3863 -1.7016L48.6855 24.8935Z" fill="#FEFEFE"/>
<path fill-rule="evenodd" clip-rule="evenodd" d="M48.6855 24.8935L51.2799 -1.70718L51.8115 -1.67391L48.6855 24.8935Z" fill="#FDFDFD"/>
<path fill-rule="evenodd" clip-rule="evenodd" d="M48.6855 24.8935L51.7054 -1.68076L52.2365 -1.6424L48.6855 24.8935Z" fill="#FDFDFD"/>
<path fill-rule="evenodd" clip-rule="evenodd" d="M48.6855 24.8935L52.1303 -1.65002L52.6609 -1.60659L48.6855 24.8935Z" fill="#FCFCFC"/>
<path fill-rule="evenodd" clip-rule="evenodd" d="M48.6855 24.8935L52.5547 -1.61523L53.0846 -1.56697L48.6855 24.8935Z" fill="#FCFCFC"/>
<path fill-rule="evenodd" clip-rule="evenodd" d="M48.6855 24.8935L52.9787 -1.57663L53.5077 -1.52329L48.6855 24.8935Z" fill="#FBFBFB"/>
<path fill-rule="evenodd" clip-rule="evenodd" d="M48.6855 24.8935L53.4018 -1.53394L53.9299 -1.47552L48.6855 24.8935Z" fill="#FBFBFB"/>
<path fill-rule="evenodd" clip-rule="evenodd" d="M48.6855 24.8935L53.8245 -1.48721L54.3515 -1.42371L48.6855 24.8935Z" fill="#FAFAFA"/>
<path fill-rule="evenodd" clip-rule="evenodd" d="M48.6855 24.8935L54.2461 -1.43643L54.7722 -1.36785L48.6855 24.8935Z" fill="#F9F9F9"/>
<path fill-rule="evenodd" clip-rule="evenodd" d="M48.6855 24.8935L54.667 -1.38153L55.192 -1.30812L48.6855 24.8935Z" fill="#F9F9F9"/>
<path fill-rule="evenodd" clip-rule="evenodd" d="M48.6855 24.8935L55.0871 -1.32288L55.6109 -1.24439L48.6855 24.8935Z" fill="#F8F8F8"/>
<path fill-rule="evenodd" clip-rule="evenodd" d="M48.6855 24.8935L55.506 -1.26016L56.0284 -1.17685L48.6855 24.8935Z" fill="#F7F7F7"/>
<path fill-rule="evenodd" clip-rule="evenodd" d="M48.6855 24.8935L55.924 -1.1936L56.445 -1.10521L48.6855 24.8935Z" fill="#F6F6F6"/>
<path fill-rule="evenodd" clip-rule="evenodd" d="M48.6855 24.8935L56.3409 -1.12299L56.8605 -1.02977L48.6855 24.8935Z" fill="#F5F5F5"/>
<path fill-rule="evenodd" clip-rule="evenodd" d="M48.6855 24.8935L56.7567 -1.04831L57.2748 -0.950265L48.6855 24.8935Z" fill="#F4F4F4"/>
<path fill-rule="evenodd" clip-rule="evenodd" d="M48.6855 24.8935L57.1712 -0.969818L57.6876 -0.866694L48.6855 24.8935Z" fill="#F3F3F3"/>
<path fill-rule="evenodd" clip-rule="evenodd" d="M48.6855 24.8935L57.5842 -0.887268L58.099 -0.779318L48.6855 24.8935Z" fill="#F2F2F2"/>
<path fill-rule="evenodd" clip-rule="evenodd" d="M48.6855 24.8935L57.9962 -0.800903L58.5093 -0.688127L48.6855 24.8935Z" fill="#F1F1F1"/>
<path fill-rule="evenodd" clip-rule="evenodd" d="M48.6855 24.8935L58.4066 -0.710724L58.9179 -0.593122L48.6855 24.8935Z" fill="#F0F0F0"/>
<path fill-rule="evenodd" clip-rule="evenodd" d="M48.6855 24.8935L58.8156 -0.616516L59.3248 -0.494088L48.6855 24.8935Z" fill="#EFEFEF"/>
<path fill-rule="evenodd" clip-rule="evenodd" d="M48.6855 24.8935L59.223 -0.518463L59.7302 -0.391209L48.6855 24.8935Z" fill="#EEEEEE"/>
<path fill-rule="evenodd" clip-rule="evenodd" d="M48.6855 24.8935L59.6289 -0.416595L60.1341 -0.284515L48.6855 24.8935Z" fill="#EDEDED"/>
<path fill-rule="evenodd" clip-rule="evenodd" d="M48.6855 24.8935L60.033 -0.310944L60.5362 -0.174038L48.6855 24.8935Z" fill="#ECECEC"/>
<path fill-rule="evenodd" clip-rule="evenodd" d="M48.6855 24.8935L60.4353 -0.201477L60.9362 -0.0597451L48.6855 24.8935Z" fill="#EAEAEA"/>
<path fill-rule="evenodd" clip-rule="evenodd" d="M48.6855 24.8935L60.8361 -0.0879211L61.3347 0.0583828L48.6855 24.8935Z" fill="#E9E9E9"/>
<path fill-rule="evenodd" clip-rule="evenodd" d="M48.6855 24.8935L61.2349 0.0291443L61.731 0.180274L48.6855 24.8935Z" fill="#E8E8E8"/>
<path fill-rule="evenodd" clip-rule="evenodd" d="M48.6855 24.8935L61.6319 0.150085L62.1255 0.305787L48.6855 24.8935Z" fill="#E7E7E7"/>
<path fill-rule="evenodd" clip-rule="evenodd" d="M48.6855 24.8935L62.0269 0.27478L62.5179 0.435308L48.6855 24.8935Z" fill="#E5E5E5"/>
<path fill-rule="evenodd" clip-rule="evenodd" d="M48.6855 24.8935L62.4198 0.403046L62.9083 0.568146L48.6855 24.8935Z" fill="#E4E4E4"/>
<path fill-rule="evenodd" clip-rule="evenodd" d="M48.6855 24.8935L62.8105 0.535126L63.2964 0.705052L48.6855 24.8935Z" fill="#E2E2E2"/>
<path fill-rule="evenodd" clip-rule="evenodd" d="M48.6855 24.8935L63.1994 0.671021L63.6825 0.845519L48.6855 24.8935Z" fill="#E1E1E1"/>
<path fill-rule="evenodd" clip-rule="evenodd" d="M48.6855 24.8935L63.5857 0.810455L64.066 0.989525L48.6855 24.8935Z" fill="#E0E0E0"/>
<path fill-rule="evenodd" clip-rule="evenodd" d="M48.6855 24.8935L63.97 0.953735L64.4475 1.13712L48.6855 24.8935Z" fill="#DEDEDE"/>
<path fill-rule="evenodd" clip-rule="evenodd" d="M48.6855 24.8935L64.352 1.10052L64.8262 1.28848L48.6855 24.8935Z" fill="#DDDDDD"/>
<path fill-rule="evenodd" clip-rule="evenodd" d="M48.6855 24.8935L64.7315 1.25092L65.2029 1.44345L48.6855 24.8935Z" fill="#DBDBDB"/>
<path fill-rule="evenodd" clip-rule="evenodd" d="M48.6855 24.8935L65.1087 1.40482L65.5768 1.60192L48.6855 24.8935Z" fill="#D9D9D9"/>
<path fill-rule="evenodd" clip-rule="evenodd" d="M48.6855 24.8935L65.4831 1.56256L65.9482 1.76373L48.6855 24.8935Z" fill="#D8D8D8"/>
<path fill-rule="evenodd" clip-rule="evenodd" d="M48.6855 24.8935L65.8552 1.7236L66.317 1.92934L48.6855 24.8935Z" fill="#D6D6D6"/>
<path fill-rule="evenodd" clip-rule="evenodd" d="M48.6855 24.8935L66.2248 1.88818L66.6832 2.09824L48.6855 24.8935Z" fill="#D5D5D5"/>
<path fill-rule="evenodd" clip-rule="evenodd" d="M48.6855 24.8935L66.5915 2.05634L67.0464 2.27071L48.6855 24.8935Z" fill="#D3D3D3"/>
<path fill-rule="evenodd" clip-rule="evenodd" d="M48.6855 24.8935L66.9555 2.22778L67.4071 2.44648L48.6855 24.8935Z" fill="#D1D1D1"/>
<path fill-rule="evenodd" clip-rule="evenodd" d="M48.6855 24.8935L67.317 2.4028L67.765 2.62581L48.6855 24.8935Z" fill="#D0D0D0"/>
<path fill-rule="evenodd" clip-rule="evenodd" d="M48.6855 24.8935L67.6754 2.58136L68.1199 2.80844L48.6855 24.8935Z" fill="#CECECE"/>
<path fill-rule="evenodd" clip-rule="evenodd" d="M48.6855 24.8935L68.031 2.76297L68.4716 2.99462L48.6855 24.8935Z" fill="#CCCCCC"/>
<path fill-rule="evenodd" clip-rule="evenodd" d="M48.6855 24.8935L68.3835 2.94812L68.8206 3.18383L48.6855 24.8935Z" fill="#CBCBCB"/>
<path fill-rule="evenodd" clip-rule="evenodd" d="M48.6855 24.8935L68.7333 3.13684L69.1666 3.37636L48.6855 24.8935Z" fill="#C9C9C9"/>
<path fill-rule="evenodd" clip-rule="evenodd" d="M48.6855 24.8935L69.0797 3.32861L69.5092 3.57245L48.6855 24.8935Z" fill="#C7C7C7"/>
<path fill-rule="evenodd" clip-rule="evenodd" d="M48.6855 24.8935L69.4234 3.52371L69.8488 3.77162L48.6855 24.8935Z" fill="#C6C6C6"/>
<path fill-rule="evenodd" clip-rule="evenodd" d="M48.6855 24.8935L69.7637 3.7218L70.1851 3.97377L48.6855 24.8935Z" fill="#C4C4C4"/>
<path fill-rule="evenodd" clip-rule="evenodd" d="M48.6855 24.8935L70.1008 3.92349L70.5184 4.17927L48.6855 24.8935Z" fill="#C2C2C2"/>
<path fill-rule="evenodd" clip-rule="evenodd" d="M48.6855 24.8935L70.4348 4.12823L70.8481 4.38808L48.6855 24.8935Z" fill="#C0C0C0"/>
<path fill-rule="evenodd" clip-rule="evenodd" d="M48.6855 24.8935L70.7655 4.33597L71.1744 4.59987L48.6855 24.8935Z" fill="#BFBFBF"/>
<path fill-rule="evenodd" clip-rule="evenodd" d="M48.6855 24.8935L71.0927 4.54706L71.4975 4.81452L48.6855 24.8935Z" fill="#BDBDBD"/>
<path fill-rule="evenodd" clip-rule="evenodd" d="M48.6855 24.8935L71.4165 4.76117L71.8171 5.03244L48.6855 24.8935Z" fill="#BBBBBB"/>
<path fill-rule="evenodd" clip-rule="evenodd" d="M48.6855 24.8935L71.7371 4.97833L72.1333 5.25341L48.6855 24.8935Z" fill="#B9B9B9"/>
<path fill-rule="evenodd" clip-rule="evenodd" d="M48.6855 24.8935L72.0541 5.19833L72.4457 5.47723L48.6855 24.8935Z" fill="#B7B7B7"/>
<path fill-rule="evenodd" clip-rule="evenodd" d="M48.6855 24.8935L72.3672 5.4216L72.7546 5.70405L48.6855 24.8935Z" fill="#B6B6B6"/>
<path fill-rule="evenodd" clip-rule="evenodd" d="M48.6855 24.8935L72.6771 5.64764L73.0599 5.9339L48.6855 24.8935Z" fill="#B4B4B4"/>
<path fill-rule="evenodd" clip-rule="evenodd" d="M48.6855 24.8935L72.9832 5.87674L73.3614 6.16655L48.6855 24.8935Z" fill="#B2B2B2"/>
<path fill-rule="evenodd" clip-rule="evenodd" d="M48.6855 24.8935L73.2857 6.10867L73.6591 6.40204L48.6855 24.8935Z" fill="#B0B0B0"/>
<path fill-rule="evenodd" clip-rule="evenodd" d="M48.6855 24.8935L73.5844 6.34335L73.9532 6.64028L48.6855 24.8935Z" fill="#ADADAD"/>
<path fill-rule="evenodd" clip-rule="evenodd" d="M48.6855 24.8935L73.8793 6.58084L74.2433 6.88132L48.6855 24.8935Z" fill="#ABABAB"/>
<path fill-rule="evenodd" clip-rule="evenodd" d="M48.6855 24.8935L74.1706 6.82114L74.5295 7.12517L48.6855 24.8935Z" fill="#A8A8A8"/>
<path fill-rule="evenodd" clip-rule="evenodd" d="M48.6855 24.8935L74.4577 7.06421L74.812 7.37155L48.6855 24.8935Z" fill="#A5A5A5"/>
<path fill-rule="evenodd" clip-rule="evenodd" d="M48.6855 24.8935L74.7411 7.31006L75.0904 7.6207L48.6855 24.8935Z" fill="#A1A1A1"/>
<path fill-rule="evenodd" clip-rule="evenodd" d="M48.6855 24.8935L75.0205 7.5585L75.3647 7.87245L48.6855 24.8935Z" fill="#9E9E9E"/>
<path fill-rule="evenodd" clip-rule="evenodd" d="M48.6855 24.8935L75.2959 7.80969L75.6349 8.12694L48.6855 24.8935Z" fill="#9A9A9A"/>
<path fill-rule="evenodd" clip-rule="evenodd" d="M48.6855 24.8935L75.5671 8.06345L75.9014 8.38374L48.6855 24.8935Z" fill="#959595"/>
<path fill-rule="evenodd" clip-rule="evenodd" d="M48.6855 24.8935L75.8346 8.31973L76.1635 8.64307L48.6855 24.8935Z" fill="#909090"/>
<path fill-rule="evenodd" clip-rule="evenodd" d="M48.6855 24.8935L76.0977 8.57831L76.4213 8.90495L48.6855 24.8935Z" fill="#8B8B8B"/>
<path fill-rule="evenodd" clip-rule="evenodd" d="M48.6855 24.8935L76.3566 8.83966L76.6751 9.16935L48.6855 24.8935Z" fill="#858585"/>
<path fill-rule="evenodd" clip-rule="evenodd" d="M48.6855 24.8935L76.6113 9.10333L76.9245 9.43582L48.6855 24.8935Z" fill="#7F7F7F"/>
<path fill-rule="evenodd" clip-rule="evenodd" d="M48.6855 24.8935L76.862 9.36951L77.1699 9.70504L48.6855 24.8935Z" fill="#797979"/>
<path fill-rule="evenodd" clip-rule="evenodd" d="M48.6855 24.8935L77.1081 9.63773L77.4107 9.97631L48.6855 24.8935Z" fill="#737373"/>
<path fill-rule="evenodd" clip-rule="evenodd" d="M48.6855 24.8935L77.3502 9.90851L77.6471 10.2499L48.6855 24.8935Z" fill="#6E6E6E"/>
<path fill-rule="evenodd" clip-rule="evenodd" d="M48.6855 24.8935L77.5877 10.1815L77.8793 10.5257L48.6855 24.8935Z" fill="#6D6D6D"/>
<path fill-rule="evenodd" clip-rule="evenodd" d="M48.6855 24.8935L77.8211 10.4569L78.1071 10.8036L48.6855 24.8935Z" fill="#6D6D6D"/>
<path fill-rule="evenodd" clip-rule="evenodd" d="M48.6855 24.8935L78.0497 10.7343L78.3301 11.0838L48.6855 24.8935Z" fill="#6E6E6E"/>
<path fill-rule="evenodd" clip-rule="evenodd" d="M48.6855 24.8935L78.2743 11.0139L78.5488 11.366L48.6855 24.8935Z" fill="#6E6E6E"/>
<path fill-rule="evenodd" clip-rule="evenodd" d="M48.6855 24.8935L78.494 11.2956L78.7632 11.6502L48.6855 24.8935Z" fill="#6F6F6F"/>
<path fill-rule="evenodd" clip-rule="evenodd" d="M48.6855 24.8935L78.7094 11.5793L78.9728 11.9367L48.6855 24.8935Z" fill="#706F6F"/>
<path fill-rule="evenodd" clip-rule="evenodd" d="M48.6855 24.8935L78.9202 11.8651L79.1777 12.2247L48.6855 24.8935Z" fill="#707070"/>
<path fill-rule="evenodd" clip-rule="evenodd" d="M48.6855 24.8935L79.1262 12.1528L79.3781 12.515L48.6855 24.8935Z" fill="#717171"/>
<path fill-rule="evenodd" clip-rule="evenodd" d="M48.6855 24.8935L79.3278 12.4427L79.574 12.8071L48.6855 24.8935Z" fill="#727272"/>
<path fill-rule="evenodd" clip-rule="evenodd" d="M48.6855 24.8935L79.5247 12.7343L79.765 13.101L48.6855 24.8935Z" fill="#737373"/>
<path fill-rule="evenodd" clip-rule="evenodd" d="M48.6855 24.8935L79.717 13.0276L79.9514 13.3967L48.6855 24.8935Z" fill="#747474"/>
<path fill-rule="evenodd" clip-rule="evenodd" d="M48.6855 24.8935L79.9044 13.3228L80.133 13.6941L48.6855 24.8935Z" fill="#757575"/>
<path fill-rule="evenodd" clip-rule="evenodd" d="M48.6855 24.8935L80.0873 13.6197L80.3098 13.9931L48.6855 24.8935Z" fill="#767676"/>
<path fill-rule="evenodd" clip-rule="evenodd" d="M48.6855 24.8935L80.2654 13.9184L80.4818 14.2941L48.6855 24.8935Z" fill="#777777"/>
<path fill-rule="evenodd" clip-rule="evenodd" d="M48.6855 24.8935L80.4386 14.2189L80.6489 14.5963L48.6855 24.8935Z" fill="#787878"/>
<path fill-rule="evenodd" clip-rule="evenodd" d="M48.6855 24.8935L80.607 14.5209L80.8112 14.9004L48.6855 24.8935Z" fill="#797979"/>
<path fill-rule="evenodd" clip-rule="evenodd" d="M48.6855 24.8935L80.7703 14.8244L80.9687 15.2057L48.6855 24.8935Z" fill="#7B7A7A"/>
<path fill-rule="evenodd" clip-rule="evenodd" d="M48.6855 24.8935L80.9291 15.1295L81.1213 15.5127L48.6855 24.8935Z" fill="#7C7B7B"/>
<path fill-rule="evenodd" clip-rule="evenodd" d="M48.6855 24.8935L81.083 15.436L81.2689 15.8211L48.6855 24.8935Z" fill="#7D7C7C"/>
<path fill-rule="evenodd" clip-rule="evenodd" d="M48.6855 24.8935L81.2318 15.7441L81.4117 16.1307L48.6855 24.8935Z" fill="#7E7D7D"/>
<path fill-rule="evenodd" clip-rule="evenodd" d="M48.6855 24.8935L81.3756 16.0535L81.5493 16.4419L48.6855 24.8935Z" fill="#7F7E7E"/>
<path fill-rule="evenodd" clip-rule="evenodd" d="M48.6855 24.8935L81.5148 16.3641L81.6822 16.7543L48.6855 24.8935Z" fill="#807F7F"/>
<path fill-rule="evenodd" clip-rule="evenodd" d="M48.6855 24.8935L81.6487 16.6763L81.8099 17.0677L48.6855 24.8935Z" fill="#818080"/>
<path fill-rule="evenodd" clip-rule="evenodd" d="M48.6855 24.8935L81.7777 16.9895L81.9326 17.3827L48.6855 24.8935Z" fill="#828080"/>
<path fill-rule="evenodd" clip-rule="evenodd" d="M48.6855 24.8935L81.9016 17.304L82.0502 17.6984L48.6855 24.8935Z" fill="#828181"/>
<path fill-rule="evenodd" clip-rule="evenodd" d="M48.6855 24.8935L82.0205 17.6197L82.163 18.0154L48.6855 24.8935Z" fill="#838282"/>
<path fill-rule="evenodd" clip-rule="evenodd" d="M48.6855 24.8935L82.1343 17.9364L82.2704 18.3337L48.6855 24.8935Z" fill="#848383"/>
<path fill-rule="evenodd" clip-rule="evenodd" d="M48.6855 24.8935L82.2433 18.2542L82.3728 18.6527L48.6855 24.8935Z" fill="#858484"/>
<path fill-rule="evenodd" clip-rule="evenodd" d="M48.6855 24.8935L82.3469 18.5729L82.4701 18.9727L48.6855 24.8935Z" fill="#868585"/>
<path fill-rule="evenodd" clip-rule="evenodd" d="M48.6855 24.8935L82.4454 18.8927L82.5623 19.2935L48.6855 24.8935Z" fill="#878686"/>
<path fill-rule="evenodd" clip-rule="evenodd" d="M48.6855 24.8935L82.5389 19.2133L82.6494 19.6153L48.6855 24.8935Z" fill="#888686"/>
<path fill-rule="evenodd" clip-rule="evenodd" d="M48.6855 24.8935L82.6273 19.5348L82.7312 19.9377L48.6855 24.8935Z" fill="#898787"/>
<path fill-rule="evenodd" clip-rule="evenodd" d="M48.6855 24.8935L82.7104 19.8572L82.8079 20.261L48.6855 24.8935Z" fill="#898888"/>
<path fill-rule="evenodd" clip-rule="evenodd" d="M48.6855 24.8935L82.7884 20.1803L82.8795 20.5851L48.6855 24.8935Z" fill="#8A8989"/>
<path fill-rule="evenodd" clip-rule="evenodd" d="M48.6855 24.8935L82.8612 20.5041L82.9458 20.9098L48.6855 24.8935Z" fill="#8B8989"/>
<path fill-rule="evenodd" clip-rule="evenodd" d="M48.6855 24.8935L82.9288 20.8287L83.007 21.2351L48.6855 24.8935Z" fill="#8C8A8A"/>
<path fill-rule="evenodd" clip-rule="evenodd" d="M48.6855 24.8935L82.9913 21.1538L83.0629 21.5607L48.6855 24.8935Z" fill="#8C8B8B"/>
<path fill-rule="evenodd" clip-rule="evenodd" d="M48.6855 24.8935L83.0487 21.4795L83.1137 21.8871L48.6855 24.8935Z" fill="#8D8B8B"/>
<path fill-rule="evenodd" clip-rule="evenodd" d="M48.6855 24.8935L83.1005 21.8056L83.1592 22.214L48.6855 24.8935Z" fill="#8E8C8C"/>
<path fill-rule="evenodd" clip-rule="evenodd" d="M48.6855 24.8935L83.1475 22.1322L83.1993 22.5412L48.6855 24.8935Z" fill="#8E8D8D"/>
<path fill-rule="evenodd" clip-rule="evenodd" d="M48.6855 24.8935L83.1889 22.4594L83.2344 22.8686L48.6855 24.8935Z" fill="#8F8D8D"/>
<path fill-rule="evenodd" clip-rule="evenodd" d="M48.6855 24.8935L83.2252 22.7868L83.2641 23.1965L48.6855 24.8935Z" fill="#908E8E"/>
<path fill-rule="evenodd" clip-rule="evenodd" d="M48.6855 24.8935L83.2565 23.1145L83.2887 23.5247L48.6855 24.8935Z" fill="#908F8F"/>
<path fill-rule="evenodd" clip-rule="evenodd" d="M48.6855 24.8935L83.2821 23.4426L83.308 23.8528L48.6855 24.8935Z" fill="#918F8F"/>
<path fill-rule="evenodd" clip-rule="evenodd" d="M48.6855 24.8935L83.3027 23.7708L83.322 24.1813L48.6855 24.8935Z" fill="#929090"/>
<path fill-rule="evenodd" clip-rule="evenodd" d="M48.6855 24.8935L83.3182 24.0992L83.3306 24.51L48.6855 24.8935Z" fill="#929090"/>
<path fill-rule="evenodd" clip-rule="evenodd" d="M48.6855 24.8935L83.3281 24.4279L83.3342 24.8386L48.6855 24.8935Z" fill="#939191"/>
<path fill-rule="evenodd" clip-rule="evenodd" d="M48.6855 24.8935L83.3329 24.7563L83.3324 25.1673L48.6855 24.8935Z" fill="#939191"/>
<path fill-rule="evenodd" clip-rule="evenodd" d="M48.6855 24.8935L83.3327 25.085L83.3256 25.4957L48.6855 24.8935Z" fill="#949292"/>
<path fill-rule="evenodd" clip-rule="evenodd" d="M48.6855 24.8935L83.3268 25.4137L83.3131 25.8244L48.6855 24.8935Z" fill="#959292"/>
<path fill-rule="evenodd" clip-rule="evenodd" d="M48.6855 24.8935L83.3159 25.7421L83.2956 26.1528L48.6855 24.8935Z" fill="#959393"/>
<path fill-rule="evenodd" clip-rule="evenodd" d="M48.6855 24.8935L83.2997 26.0705L83.273 26.481L48.6855 24.8935Z" fill="#969494"/>
<path fill-rule="evenodd" clip-rule="evenodd" d="M48.6855 24.8935L83.2783 26.399L83.2448 26.8089L48.6855 24.8935Z" fill="#979494"/>
<path fill-rule="evenodd" clip-rule="evenodd" d="M48.6855 24.8935L83.2516 26.7269L83.2115 27.1366L48.6855 24.8935Z" fill="#979595"/>
<path fill-rule="evenodd" clip-rule="evenodd" d="M48.6855 24.8935L83.2196 27.0545L83.1732 27.4637L48.6855 24.8935Z" fill="#989696"/>
<path fill-rule="evenodd" clip-rule="evenodd" d="M48.6855 24.8935L83.1823 27.3819L83.1295 27.7906L48.6855 24.8935Z" fill="#999696"/>
<path fill-rule="evenodd" clip-rule="evenodd" d="M48.6855 24.8935L83.1399 27.7091L83.0805 28.1173L48.6855 24.8935Z" fill="#999797"/>
<path fill-rule="evenodd" clip-rule="evenodd" d="M48.6855 24.8935L83.0924 28.0355L83.0261 28.4431L48.6855 24.8935Z" fill="#9A9898"/>
<path fill-rule="evenodd" clip-rule="evenodd" d="M48.6855 24.8935L83.0393 28.3616L82.9667 28.7685L48.6855 24.8935Z" fill="#9B9898"/>
<path fill-rule="evenodd" clip-rule="evenodd" d="M48.6855 24.8935L82.9814 28.6872L82.9021 29.0934L48.6855 24.8935Z" fill="#9C9999"/>
<path fill-rule="evenodd" clip-rule="evenodd" d="M48.6855 24.8935L82.9179 29.0124L82.8323 29.4177L48.6855 24.8935Z" fill="#9C9A9A"/>
<path fill-rule="evenodd" clip-rule="evenodd" d="M48.6855 24.8935L82.8496 29.3367L82.7574 29.7413L48.6855 24.8935Z" fill="#9D9B9B"/>
<path fill-rule="evenodd" clip-rule="evenodd" d="M48.6855 24.8935L82.7759 29.6603L82.6771 30.0642L48.6855 24.8935Z" fill="#9E9B9B"/>
<path fill-rule="evenodd" clip-rule="evenodd" d="M48.6855 24.8935L82.6969 29.9834L82.592 30.386L48.6855 24.8935Z" fill="#9F9C9C"/>
<path fill-rule="evenodd" clip-rule="evenodd" d="M48.6855 24.8935L82.6128 30.3055L82.5013 30.7073L48.6855 24.8935Z" fill="#A09D9D"/>
<path fill-rule="evenodd" clip-rule="evenodd" d="M48.6855 24.8935L82.5237 30.6268L82.4058 31.0276L48.6855 24.8935Z" fill="#A19E9E"/>
<path fill-rule="evenodd" clip-rule="evenodd" d="M48.6855 24.8935L82.4294 30.9473L82.305 31.3469L48.6855 24.8935Z" fill="#A29F9F"/>
<path fill-rule="evenodd" clip-rule="evenodd" d="M48.6855 24.8935L82.3299 31.2671L82.1993 31.6654L48.6855 24.8935Z" fill="#A3A0A0"/>
<path fill-rule="evenodd" clip-rule="evenodd" d="M48.6855 24.8935L82.2255 31.5856L82.0883 31.9826L48.6855 24.8935Z" fill="#A3A1A1"/>
<path fill-rule="evenodd" clip-rule="evenodd" d="M48.6855 24.8935L82.1158 31.9031L81.9725 32.2989L48.6855 24.8935Z" fill="#A4A1A1"/>
<path fill-rule="evenodd" clip-rule="evenodd" d="M48.6855 24.8935L82.0012 32.2199L81.8513 32.6141L48.6855 24.8935Z" fill="#A5A2A2"/>
<path fill-rule="evenodd" clip-rule="evenodd" d="M48.6855 24.8935L81.8813 32.5353L81.7254 32.928L48.6855 24.8935Z" fill="#A6A3A3"/>
<path fill-rule="evenodd" clip-rule="evenodd" d="M48.6855 24.8935L81.7566 32.8495L81.5943 33.2409L48.6855 24.8935Z" fill="#A7A4A4"/>
<path fill-rule="evenodd" clip-rule="evenodd" d="M48.6855 24.8935L81.6268 33.1627L81.4582 33.5524L48.6855 24.8935Z" fill="#A8A5A5"/>
<path fill-rule="evenodd" clip-rule="evenodd" d="M48.6855 24.8935L81.4919 33.4744L81.3172 33.8625L48.6855 24.8935Z" fill="#A9A6A6"/>
<path fill-rule="evenodd" clip-rule="evenodd" d="M48.6855 24.8935L81.352 33.785L81.1711 34.1714L48.6855 24.8935Z" fill="#AAA7A7"/>
<path fill-rule="evenodd" clip-rule="evenodd" d="M48.6855 24.8935L81.2072 34.0941L81.0203 34.4787L48.6855 24.8935Z" fill="#ACA8A8"/>
<path fill-rule="evenodd" clip-rule="evenodd" d="M48.6855 24.8935L81.0576 34.402L80.8643 34.7848L48.6855 24.8935Z" fill="#ADA9A9"/>
<path fill-rule="evenodd" clip-rule="evenodd" d="M48.6855 24.8935L80.9029 34.7083L80.7035 35.0893L48.6855 24.8935Z" fill="#AEAAAA"/>
<path fill-rule="evenodd" clip-rule="evenodd" d="M48.6855 24.8935L80.7434 35.0131L80.5382 35.3921L48.6855 24.8935Z" fill="#AFABAB"/>
<path fill-rule="evenodd" clip-rule="evenodd" d="M48.6855 24.8935L80.5791 35.3164L80.3677 35.6936L48.6855 24.8935Z" fill="#B0ACAC"/>
<path fill-rule="evenodd" clip-rule="evenodd" d="M48.6855 24.8935L80.4099 35.6181L80.1925 35.993L48.6855 24.8935Z" fill="#B1ADAD"/>
<path fill-rule="evenodd" clip-rule="evenodd" d="M48.6855 24.8935L80.2359 35.9181L80.0124 36.2912L48.6855 24.8935Z" fill="#B2AEAE"/>
<path fill-rule="evenodd" clip-rule="evenodd" d="M48.6855 24.8935L80.0571 36.2166L79.8277 36.5874L48.6855 24.8935Z" fill="#B3AFAF"/>
<path fill-rule="evenodd" clip-rule="evenodd" d="M48.6855 24.8935L79.8734 36.5132L79.6382 36.882L48.6855 24.8935Z" fill="#B4B0B0"/>
<path fill-rule="evenodd" clip-rule="evenodd" d="M48.6855 24.8935L79.6852 36.8081L79.4439 37.1746L48.6855 24.8935Z" fill="#B5B1B1"/>
<path fill-rule="evenodd" clip-rule="evenodd" d="M48.6855 24.8935L79.4922 37.1012L79.2451 37.4655L48.6855 24.8935Z" fill="#B5B2B2"/>
<path fill-rule="evenodd" clip-rule="evenodd" d="M48.6855 24.8935L79.2946 37.3926L79.0416 37.7543L48.6855 24.8935Z" fill="#B6B2B2"/>
<path fill-rule="evenodd" clip-rule="evenodd" d="M48.6855 24.8935L79.0921 37.6819L78.8336 38.0413L48.6855 24.8935Z" fill="#B7B3B3"/>
<path fill-rule="evenodd" clip-rule="evenodd" d="M48.6855 24.8935L78.8854 37.9694L78.621 38.3263L48.6855 24.8935Z" fill="#B7B3B3"/>
<path fill-rule="evenodd" clip-rule="evenodd" d="M48.6855 24.8935L78.6738 38.2549L78.4035 38.6092L48.6855 24.8935Z" fill="#B8B4B4"/>
<path fill-rule="evenodd" clip-rule="evenodd" d="M48.6855 24.8935L78.4577 38.5384L78.1818 38.8899L48.6855 24.8935Z" fill="#B8B4B4"/>
<path fill-rule="evenodd" clip-rule="evenodd" d="M48.6855 24.8935L78.2372 38.8196L77.9557 39.1685L48.6855 24.8935Z" fill="#B8B4B4"/>
<path fill-rule="evenodd" clip-rule="evenodd" d="M48.6855 24.8935L78.0119 39.099L77.7251 39.4452L48.6855 24.8935Z" fill="#B8B4B4"/>
<path fill-rule="evenodd" clip-rule="evenodd" d="M48.6855 24.8935L77.7825 39.3758L77.4899 39.7195L48.6855 24.8935Z" fill="#B7B3B3"/>
<path fill-rule="evenodd" clip-rule="evenodd" d="M48.6855 24.8935L77.5486 39.6509L77.2506 39.9915L48.6855 24.8935Z" fill="#B6B2B2"/>
<path fill-rule="evenodd" clip-rule="evenodd" d="M48.6855 24.8935L77.3101 39.9234L77.0068 40.2615L48.6855 24.8935Z" fill="#B5B1B1"/>
<path fill-rule="evenodd" clip-rule="evenodd" d="M48.6855 24.8935L77.0675 40.1937L76.7586 40.529L48.6855 24.8935Z" fill="#B4B0B0"/>
<path fill-rule="evenodd" clip-rule="evenodd" d="M48.6855 24.8935L76.8204 40.4619L76.5064 40.7939L48.6855 24.8935Z" fill="#B3AFAF"/>
<path fill-rule="evenodd" clip-rule="evenodd" d="M48.6855 24.8935L76.5692 40.7276L76.2499 41.0565L48.6855 24.8935Z" fill="#B2AEAE"/>
<path fill-rule="evenodd" clip-rule="evenodd" d="M48.6855 24.8935L76.3136 40.9907L75.989 41.3169L48.6855 24.8935Z" fill="#B1ADAD"/>
<path fill-rule="evenodd" clip-rule="evenodd" d="M48.6855 24.8935L76.054 41.2516L75.7244 41.5747L48.6855 24.8935Z" fill="#B0ACAC"/>
<path fill-rule="evenodd" clip-rule="evenodd" d="M48.6855 24.8935L75.7901 41.5099L75.4554 41.8297L48.6855 24.8935Z" fill="#AFABAB"/>
<path fill-rule="evenodd" clip-rule="evenodd" d="M48.6855 24.8935L75.5222 41.7657L75.1823 42.0824L48.6855 24.8935Z" fill="#AEAAAA"/>
<path fill-rule="evenodd" clip-rule="evenodd" d="M48.6855 24.8935L75.2501 42.0192L74.9052 42.3324L48.6855 24.8935Z" fill="#ADA9A9"/>
<path fill-rule="evenodd" clip-rule="evenodd" d="M48.6855 24.8935L74.9743 42.2696L74.624 42.5798L48.6855 24.8935Z" fill="#ACA8A8"/>
<path fill-rule="evenodd" clip-rule="evenodd" d="M48.6855 24.8935L74.6941 42.5178L74.339 42.8244L48.6855 24.8935Z" fill="#ABA7A7"/>
<path fill-rule="evenodd" clip-rule="evenodd" d="M48.6855 24.8935L74.4102 42.7632L74.0502 43.0664L48.6855 24.8935Z" fill="#AAA6A6"/>
<path fill-rule="evenodd" clip-rule="evenodd" d="M48.6855 24.8935L74.1224 43.0057L73.7576 43.3057L48.6855 24.8935Z" fill="#A9A5A5"/>
<path fill-rule="evenodd" clip-rule="evenodd" d="M48.6855 24.8935L73.8305 43.2458L73.461 43.5419L48.6855 24.8935Z" fill="#A8A4A4"/>
<path fill-rule="evenodd" clip-rule="evenodd" d="M48.6855 24.8935L73.5349 43.4827L73.1607 43.7756L48.6855 24.8935Z" fill="#A7A3A3"/>
<path fill-rule="evenodd" clip-rule="evenodd" d="M48.6855 24.8935L73.2357 43.7169L72.8567 44.0062L48.6855 24.8935Z" fill="#A6A3A3"/>
<path fill-rule="evenodd" clip-rule="evenodd" d="M48.6855 24.8935L72.9324 43.9486L72.5491 44.2341L48.6855 24.8935Z" fill="#A5A2A2"/>
<path fill-rule="evenodd" clip-rule="evenodd" d="M48.6855 24.8935L72.6258 44.1769L72.2377 44.4591L48.6855 24.8935Z" fill="#A5A1A1"/>
<path fill-rule="evenodd" clip-rule="evenodd" d="M48.6855 24.8935L72.3154 44.4027L71.923 44.6809L48.6855 24.8935Z" fill="#A4A0A0"/>
<path fill-rule="evenodd" clip-rule="evenodd" d="M48.6855 24.8935L72.0015 44.6252L71.6045 44.8998L48.6855 24.8935Z" fill="#A3A0A0"/>
<path fill-rule="evenodd" clip-rule="evenodd" d="M48.6855 24.8935L71.684 44.8449L71.2827 45.1157L48.6855 24.8935Z" fill="#A39F9F"/>
<path fill-rule="evenodd" clip-rule="evenodd" d="M48.6855 24.8935L71.3629 45.0616L70.9573 45.3286L48.6855 24.8935Z" fill="#A29E9E"/>
<path fill-rule="evenodd" clip-rule="evenodd" d="M48.6855 24.8935L71.0386 45.275L70.6286 45.5381L48.6855 24.8935Z" fill="#A19E9E"/>
<path fill-rule="evenodd" clip-rule="evenodd" d="M48.6855 24.8935L70.7107 45.4855L70.2966 45.7449L48.6855 24.8935Z" fill="#A19D9D"/>
<path fill-rule="evenodd" clip-rule="evenodd" d="M48.6855 24.8935L70.3794 45.6928L69.9614 45.9481L48.6855 24.8935Z" fill="#A09C9C"/>
<path fill-rule="evenodd" clip-rule="evenodd" d="M48.6855 24.8935L70.0449 45.897L69.6228 46.1482L48.6855 24.8935Z" fill="#9F9C9C"/>
<path fill-rule="evenodd" clip-rule="evenodd" d="M48.6855 24.8935L69.7074 46.0982L69.2811 46.3453L48.6855 24.8935Z" fill="#9F9B9B"/>
<path fill-rule="evenodd" clip-rule="evenodd" d="M48.6855 24.8935L69.3662 46.2958L68.9362 46.5391L48.6855 24.8935Z" fill="#9E9B9B"/>
<path fill-rule="evenodd" clip-rule="evenodd" d="M48.6855 24.8935L69.0223 46.4904L68.5885 46.7294L48.6855 24.8935Z" fill="#9E9A9A"/>
<path fill-rule="evenodd" clip-rule="evenodd" d="M48.6855 24.8935L68.6751 46.6816L68.2375 46.9166L48.6855 24.8935Z" fill="#9D9A9A"/>
<path fill-rule="evenodd" clip-rule="evenodd" d="M48.6855 24.8935L68.3251 46.8696L67.8836 47.1005L48.6855 24.8935Z" fill="#9D9999"/>
<path fill-rule="evenodd" clip-rule="evenodd" d="M48.6855 24.8935L67.9718 47.0542L67.5268 47.2808L48.6855 24.8935Z" fill="#9C9999"/>
<path fill-rule="evenodd" clip-rule="evenodd" d="M48.6855 24.8935L67.6157 47.2353L67.1671 47.4578L48.6855 24.8935Z" fill="#9C9898"/>
<path fill-rule="evenodd" clip-rule="evenodd" d="M48.6855 24.8935L67.2568 47.4134L66.8046 47.6313L48.6855 24.8935Z" fill="#9B9898"/>
<path fill-rule="evenodd" clip-rule="evenodd" d="M48.6855 24.8935L66.8951 47.5876L66.4394 47.8015L48.6855 24.8935Z" fill="#9B9797"/>
<path fill-rule="evenodd" clip-rule="evenodd" d="M48.6855 24.8935L66.5306 47.7588L66.0716 47.9681L48.6855 24.8935Z" fill="#9A9797"/>
<path fill-rule="evenodd" clip-rule="evenodd" d="M48.6855 24.8935L66.1633 47.9262L65.701 48.1312L48.6855 24.8935Z" fill="#9A9696"/>
<path fill-rule="evenodd" clip-rule="evenodd" d="M48.6855 24.8935L65.7935 48.0903L65.3279 48.291L48.6855 24.8935Z" fill="#999696"/>
<path fill-rule="evenodd" clip-rule="evenodd" d="M48.6855 24.8935L65.4208 48.2508L64.9522 48.4469L48.6855 24.8935Z" fill="#999595"/>
<path fill-rule="evenodd" clip-rule="evenodd" d="M48.6855 24.8935L65.0459 48.4078L64.574 48.5996L48.6855 24.8935Z" fill="#989595"/>
<path fill-rule="evenodd" clip-rule="evenodd" d="M48.6855 24.8935L64.6685 48.5612L64.1935 48.7484L48.6855 24.8935Z" fill="#989494"/>
<path fill-rule="evenodd" clip-rule="evenodd" d="M48.6855 24.8935L64.2885 48.7111L63.8105 48.8937L48.6855 24.8935Z" fill="#979494"/>
<path fill-rule="evenodd" clip-rule="evenodd" d="M48.6855 24.8935L63.9062 48.8571L63.4254 49.0354L48.6855 24.8935Z" fill="#969393"/>
<path fill-rule="evenodd" clip-rule="evenodd" d="M48.6855 24.8935L63.5214 48.9996L63.0378 49.1734L48.6855 24.8935Z" fill="#969292"/>
<path fill-rule="evenodd" clip-rule="evenodd" d="M48.6855 24.8935L63.1346 49.1386L62.6484 49.3075L48.6855 24.8935Z" fill="#959292"/>
<path fill-rule="evenodd" clip-rule="evenodd" d="M48.6855 24.8935L62.7457 49.2737L62.2565 49.4383L48.6855 24.8935Z" fill="#959191"/>
<path fill-rule="evenodd" clip-rule="evenodd" d="M48.6855 24.8935L62.3543 49.4053L61.8628 49.565L48.6855 24.8935Z" fill="#949191"/>
<path fill-rule="evenodd" clip-rule="evenodd" d="M48.6855 24.8935L61.9611 49.533L61.4671 49.6882L48.6855 24.8935Z" fill="#939090"/>
<path fill-rule="evenodd" clip-rule="evenodd" d="M48.6855 24.8935L61.5659 49.6572L61.0693 49.8076L48.6855 24.8935Z" fill="#938F8F"/>
<path fill-rule="evenodd" clip-rule="evenodd" d="M48.6855 24.8935L61.1686 49.7774L60.6698 49.9232L48.6855 24.8935Z" fill="#928F8F"/>
<path fill-rule="evenodd" clip-rule="evenodd" d="M48.6855 24.8935L60.7696 49.894L60.2682 50.0349L48.6855 24.8935Z" fill="#918E8E"/>
<path fill-rule="evenodd" clip-rule="evenodd" d="M48.6855 24.8935L60.3685 50.0067L59.8651 50.1429L48.6855 24.8935Z" fill="#918D8D"/>
<path fill-rule="evenodd" clip-rule="evenodd" d="M48.6855 24.8935L59.9657 50.1154L59.4602 50.247L48.6855 24.8935Z" fill="#908D8D"/>
<path fill-rule="evenodd" clip-rule="evenodd" d="M48.6855 24.8935L59.5613 50.2206L59.0536 50.3471L48.6855 24.8935Z" fill="#8F8C8C"/>
<path fill-rule="evenodd" clip-rule="evenodd" d="M48.6855 24.8935L59.1552 50.3219L58.6457 50.4436L48.6855 24.8935Z" fill="#8F8B8B"/>
<path fill-rule="evenodd" clip-rule="evenodd" d="M48.6855 24.8935L58.7475 50.4192L58.2359 50.5361L48.6855 24.8935Z" fill="#8E8B8B"/>
<path fill-rule="evenodd" clip-rule="evenodd" d="M48.6855 24.8935L58.3383 50.5127L57.825 50.6247L48.6855 24.8935Z" fill="#8D8A8A"/>
<path fill-rule="evenodd" clip-rule="evenodd" d="M48.6855 24.8935L57.9276 50.6024L57.4125 50.7095L48.6855 24.8935Z" fill="#8D8989"/>
<path fill-rule="evenodd" clip-rule="evenodd" d="M48.6855 24.8935L57.5156 50.688L56.9987 50.7903L48.6855 24.8935Z" fill="#8C8989"/>
<path fill-rule="evenodd" clip-rule="evenodd" d="M48.6855 24.8935L57.1021 50.7697L56.5837 50.8673L48.6855 24.8935Z" fill="#8B8888"/>
<path fill-rule="evenodd" clip-rule="evenodd" d="M48.6855 24.8935L56.6873 50.8477L56.1674 50.9402L48.6855 24.8935Z" fill="#8A8787"/>
<path fill-rule="evenodd" clip-rule="evenodd" d="M48.6855 24.8935L56.2715 50.9216L55.7501 51.009L48.6855 24.8935Z" fill="#8A8787"/>
<path fill-rule="evenodd" clip-rule="evenodd" d="M48.6855 24.8935L55.8544 50.9917L55.3317 51.074L48.6855 24.8935Z" fill="#898686"/>
<path fill-rule="evenodd" clip-rule="evenodd" d="M48.6855 24.8935L55.4364 51.0575L54.9124 51.1352L48.6855 24.8935Z" fill="#888585"/>
<path fill-rule="evenodd" clip-rule="evenodd" d="M48.6855 24.8935L55.017 51.1198L54.492 51.1924L48.6855 24.8935Z" fill="#888585"/>
<path fill-rule="evenodd" clip-rule="evenodd" d="M48.6855 24.8935L54.5969 51.1777L54.0706 51.2452L48.6855 24.8935Z" fill="#878484"/>
<path fill-rule="evenodd" clip-rule="evenodd" d="M48.6855 24.8935L54.1758 51.2318L53.6484 51.2945L48.6855 24.8935Z" fill="#868383"/>
<path fill-rule="evenodd" clip-rule="evenodd" d="M48.6855 24.8935L53.7541 51.2818L53.2258 51.3395L48.6855 24.8935Z" fill="#868383"/>
<path fill-rule="evenodd" clip-rule="evenodd" d="M48.6855 24.8935L53.3315 51.328L52.8021 51.3806L48.6855 24.8935Z" fill="#858282"/>
<path fill-rule="evenodd" clip-rule="evenodd" d="M48.6855 24.8935L52.908 51.3699L52.3779 51.4177L48.6855 24.8935Z" fill="#858282"/>
<path fill-rule="evenodd" clip-rule="evenodd" d="M48.6855 24.8935L52.4841 51.408L51.9533 51.4507L48.6855 24.8935Z" fill="#848181"/>
<path fill-rule="evenodd" clip-rule="evenodd" d="M48.6855 24.8935L52.0594 51.4421L51.5281 51.4797L48.6855 24.8935Z" fill="#848181"/>
<path fill-rule="evenodd" clip-rule="evenodd" d="M48.6855 24.8935L51.6345 51.4721L51.1024 51.5046L48.6855 24.8935Z" fill="#838080"/>
<path fill-rule="evenodd" clip-rule="evenodd" d="M48.6855 24.8935L51.2088 51.498L50.6764 51.5254L48.6855 24.8935Z" fill="#838080"/>
<path fill-rule="evenodd" clip-rule="evenodd" d="M48.6855 24.8935L50.7828 51.5201L50.2502 51.5424L48.6855 24.8935Z" fill="#827F7F"/>
<path fill-rule="evenodd" clip-rule="evenodd" d="M48.6855 24.8935L50.3566 51.5378L49.8235 51.5551L48.6855 24.8935Z" fill="#827F7F"/>
<path fill-rule="evenodd" clip-rule="evenodd" d="M48.6855 24.8935L49.9301 51.5516L49.397 51.564L48.6855 24.8935Z" fill="#827F7F"/>
<path fill-rule="evenodd" clip-rule="evenodd" d="M48.6855 24.8935L49.5034 51.5615L49.0767 51.567L48.6855 24.8935Z" fill="#827F7F"/>
</g>
<path fill-rule="evenodd" clip-rule="evenodd" d="M38.2491 117.99C36.6268 118.546 36.7589 120.949 38.4061 121.375C39.3382 121.615 54.8551 121.469 56.5676 121.469C60.0685 121.469 78.9587 121.879 80.7799 121.326C82.3839 120.84 82.3732 118.363 80.6308 117.922C79.8225 117.717 64.0456 117.838 62.4385 117.838C59.2054 117.838 39.5999 117.528 38.2491 117.99Z" fill="#040404"/>
<path fill-rule="evenodd" clip-rule="evenodd" d="M38.4298 50.6562C36.619 51.1583 36.776 53.5891 38.2029 54.0554C39.0703 54.3389 79.7926 54.3077 80.6326 54.0981C82.4238 53.6516 82.3314 51.154 80.7843 50.6846C79.6946 50.3539 39.0797 50.4758 38.4298 50.6562Z" fill="#040404"/>
<path fill-rule="evenodd" clip-rule="evenodd" d="M40.003 76.6142L79.6321 76.6145C82.8863 76.6145 82.609 72.9759 79.8419 72.9759L39.3741 72.9749C37.8958 72.9749 36.9697 73.5172 37.1376 75.0534C37.2994 76.5345 38.4284 76.6142 40.003 76.6142Z" fill="#040404"/>
<path fill-rule="evenodd" clip-rule="evenodd" d="M56.5675 99.0381H77.5352C78.9762 99.0381 80.0023 98.1438 79.5215 96.6183C79.0544 95.1359 77.4098 95.4079 75.8578 95.4079L40.6321 95.4072C38.925 95.4072 35.8102 94.9591 35.0515 96.1697C34.3684 97.2599 34.4883 99.0513 37.6913 99.044L56.5675 99.0381Z" fill="#040404"/>
<path fill-rule="evenodd" clip-rule="evenodd" d="M21.038 120.722L18.9466 118.813C18.2112 118.165 16.9704 117.563 15.9824 118.603C14.3078 120.365 17.0327 121.928 17.4698 122.385C18.3547 123.311 19.9031 125.108 21.2867 124.946C22.3121 124.826 25.0751 121.991 26.0667 121.134L31.6242 116.01C32.3682 115.423 34.851 113.646 33.0077 112.074C31.53 110.814 29.9592 112.59 28.9958 113.583C28.5706 114.022 28.3227 114.137 27.8439 114.53L21.038 120.722Z" fill="#040404"/>
<path fill-rule="evenodd" clip-rule="evenodd" d="M20.9473 53.4367C20.1592 52.7387 17.3974 49.3049 15.8462 51.3758C14.4853 53.1926 16.8145 54.5447 17.5678 55.1954C20.1307 57.409 20.4586 59.2434 23.8808 55.8327C26.1754 53.5459 30.4837 49.9551 32.8157 47.7875C33.4967 47.1545 34.0273 45.6643 32.9874 44.7987C31.2653 43.3646 29.6008 45.974 27.66 47.4532C26.5643 48.2884 22.3268 52.4837 20.9473 53.4367Z" fill="#040404"/>
<path fill-rule="evenodd" clip-rule="evenodd" d="M20.9898 98.2852L18.8245 96.2855C18.0483 95.6418 16.7302 95.161 15.8689 96.2687C14.443 98.1021 17.0013 99.4645 17.5784 100.05L19.889 102.146C21.3906 103.296 22.5903 101.843 23.873 100.695C24.2763 100.334 24.4856 99.9962 24.8958 99.6373C25.3251 99.2618 25.6202 99.1199 26.079 98.7076L32.8082 92.6502C34.6118 90.9649 33.0764 87.4638 29.8349 90.3129C29.4079 90.6883 29.2217 90.9743 28.8052 91.3713L25.4257 94.2916C24.9921 94.6736 24.8163 94.9588 24.3937 95.3459L20.9898 98.2852Z" fill="#040404"/>
<path fill-rule="evenodd" clip-rule="evenodd" d="M20.9797 75.8624L18.8177 73.855C16.4481 71.9058 14.1568 74.6741 16.4041 76.6876C17.9985 78.1164 20.0882 80.3833 21.4745 80.0785C21.9754 79.9683 27.8359 74.7524 28.3861 74.1776C30.5756 71.8906 35.3043 69.1852 32.9992 67.2225C31.3541 65.8215 29.6843 68.1601 27.6383 69.873L22.1882 74.901C21.7796 75.2936 21.38 75.5149 20.9797 75.8624Z" fill="#040404"/>
<path fill-rule="evenodd" clip-rule="evenodd" d="M44.1126 27.005C45.8924 26.9966 47.6737 26.9887 49.4525 26.9994C53.7085 27.0246 58.1337 27.9834 57.6049 24.1836C57.3056 22.0337 55.5218 22.3654 53.6315 22.3738C51.852 22.3817 50.0715 22.3746 48.2917 22.3746C44.1152 22.3746 39.5518 21.3799 40.1495 25.2328C40.4677 27.2846 42.2422 27.0141 44.1126 27.005Z" fill="#040404"/>
<path fill-rule="evenodd" clip-rule="evenodd" d="M69.6056 29.1848C72.2612 29.0758 90.667 28.8724 91.6889 29.5013C93.0661 30.3491 92.7689 32.0319 92.7686 34.01L92.7712 128.784C92.7712 131.012 93.2185 138.116 92.314 139.367C91.2688 140.814 84.2589 140.209 81.9386 140.209L9.39009 140.207C7.53868 140.208 5.68804 140.38 4.95576 139.12C4.24049 137.889 4.66061 99.918 4.66061 95.0259C4.66061 80.1804 4.44649 65.1898 4.64969 50.3648L4.66137 33.5904C4.65934 31.6509 4.44217 30.215 5.86635 29.4398C6.87269 28.8919 25.1815 29.1066 27.8574 29.1749C28.0929 37.5998 26.5727 37.7825 34.132 37.7825L63.4868 37.7817C65.8797 37.7817 68.4697 38.2668 69.3409 36.2899C69.8431 35.1503 69.5828 30.7573 69.6056 29.1848ZM31.4853 20.2501C32.9836 20.1462 37.7703 20.4503 38.7637 19.9829C40.2193 19.2981 39.3011 15.9763 40.0796 13.7408C43.5658 3.72944 58.4159 6.70784 57.85 17.2366C57.6196 21.5176 59.297 19.8678 65.966 20.241L65.9323 34.1693L31.4528 34.134L31.4853 20.2501ZM35.9453 16.5328C33.5026 16.7429 29.6867 15.9186 28.4048 17.5955C27.3299 19.0014 28.0403 23.5079 27.8142 25.5605C23.6494 25.6374 6.94813 24.9809 4.43455 26.1081C1.12823 27.591 1.05609 30.3011 1.08556 34.6389C1.30374 66.6785 0.974814 98.9926 1.07972 131.091C1.09242 135.023 0.48307 139.407 2.44598 141.816C4.52624 144.368 8.34513 143.779 12.3256 143.779H84.6643C86.6465 143.779 88.7765 143.853 90.7404 143.769C97.62 143.476 96.3724 135.49 96.3721 131.51L96.3704 35.0583C96.3704 30.5211 96.5835 27.8643 93.1372 26.1607C90.6256 24.9191 73.8373 25.6555 69.6099 25.5722C69.5251 23.5272 70.0712 18.9169 69.0346 17.5613C67.7382 15.8656 63.8909 16.8041 61.4774 16.5194C60.4273 -0.107233 37.0852 -0.243376 35.9453 16.5328Z" fill="#040404"/>
<path fill-rule="evenodd" clip-rule="evenodd" d="M374.538 45.9534L363.776 45.9506L363.91 97.4587L374.66 97.4463L374.538 45.9534Z" fill="#333333"/>
<path fill-rule="evenodd" clip-rule="evenodd" d="M374.637 98.8354L363.92 98.8212C364.324 100.386 368.938 113.251 369.308 113.732L374.637 98.8354Z" fill="#CFB793"/>
<path fill-rule="evenodd" clip-rule="evenodd" d="M370.411 110.489C370.64 109.849 367.846 109.922 368.099 110.583C368.309 111.084 369.076 113.216 369.287 113.717C369.288 113.721 369.332 113.717 369.334 113.713C369.513 113.212 370.232 110.991 370.411 110.489Z" fill="black" stroke="black" stroke-width="0.508" stroke-miterlimit="22.9256" stroke-linecap="round" stroke-linejoin="round"/>
<path d="M370.475 51.4271L369.374 48.6275L368.281 51.4271H367.992L369.266 48.2H369.483L370.763 51.4271H370.475Z" fill="white"/>
<path d="M370.194 57.1477V55.4847H369.212V57.1477C369.212 57.2683 369.233 57.3506 369.276 57.3948C369.318 57.4388 369.392 57.4601 369.498 57.4601H369.905C370.011 57.4601 370.085 57.4377 370.129 57.3928C370.172 57.3478 370.194 57.2665 370.194 57.1477ZM367.759 55.0021H370.557V57.3366C370.557 57.5538 370.515 57.71 370.429 57.8053C370.343 57.9008 370.205 57.9485 370.014 57.9485H369.389C369.201 57.9485 369.063 57.9008 368.977 57.8053C368.891 57.71 368.849 57.5538 368.849 57.3366V56.9112L367.759 58.2338V57.5155L368.849 56.3369V55.4847H367.759V55.0021Z" fill="white"/>
<path d="M367.759 58.7941L370.058 60.169V60.5797L367.759 61.9874V61.4999L368.296 61.1903V59.5469L367.759 59.2429V58.7941ZM368.627 59.7359V60.9985L369.721 60.3663L368.627 59.7359Z" fill="white"/>
<path d="M369.632 63.0593C369.598 63.0593 369.552 63.0613 369.494 63.0649C369.398 63.0687 369.338 63.0707 369.312 63.0707H367.759V62.7001H370.058V63.0707L368.567 64.2549L370.058 65.3435V65.7588H367.759V65.3435H369.312C369.368 65.3435 369.423 65.3453 369.475 65.3501C369.529 65.3547 369.58 65.3623 369.629 65.3707C369.556 65.3453 369.492 65.3191 369.437 65.2912C369.381 65.264 369.34 65.2389 369.312 65.2145L368.122 64.2988V64.181L369.301 63.2325C369.342 63.1998 369.389 63.1688 369.444 63.1388C369.499 63.1098 369.561 63.0837 369.632 63.0593Z" fill="white"/>
<path d="M368.106 67.2582V69.2449H369.716V67.2582H368.106ZM369.512 66.8091C369.723 66.8091 369.867 66.8502 369.944 66.9325C370.02 67.0151 370.058 67.1675 370.058 67.3928V69.1101C370.058 69.3356 370.02 69.488 369.944 69.5703C369.867 69.6526 369.723 69.6938 369.512 69.6938H368.302C368.092 69.6938 367.949 69.6536 367.873 69.5721C367.797 69.4908 367.759 69.3364 367.759 69.1101V67.3928C367.759 67.1647 367.797 67.0103 367.872 66.9297C367.947 66.8495 368.09 66.8091 368.302 66.8091H369.512Z" fill="white"/>
<path d="M369.597 71.1202C369.531 71.1316 369.463 71.139 369.393 71.1446C369.324 71.1502 369.256 71.153 369.187 71.153H367.759V70.7377H370.058V71.0801L368.556 72.8263C368.514 72.8769 368.468 72.9256 368.416 72.9724C368.365 73.0191 368.307 73.0648 368.241 73.1108C368.31 73.0976 368.38 73.0882 368.451 73.0818C368.521 73.0752 368.594 73.0724 368.67 73.0724H370.058V73.4877H367.759V73.1809L369.282 71.3991C369.339 71.3374 369.392 71.284 369.443 71.2391C369.492 71.1941 369.544 71.155 369.597 71.1202Z" fill="white"/>
<path d="M370.177 78.4143V77.3714H368.15V78.4143C368.15 78.884 368.229 79.2159 368.388 79.4095C368.546 79.603 368.809 79.7003 369.177 79.7003C369.531 79.7003 369.787 79.6013 369.944 79.4039C370.1 79.2065 370.177 78.8763 370.177 78.4143ZM370.557 78.4826C370.557 78.7491 370.54 78.9708 370.506 79.1466C370.471 79.3226 370.416 79.4722 370.34 79.5947C370.222 79.7808 370.059 79.9266 369.853 80.0343C369.646 80.141 369.42 80.1944 369.175 80.1944C368.914 80.1944 368.679 80.1418 368.469 80.0371C368.261 79.9315 368.096 79.7846 367.976 79.5947C367.902 79.476 367.848 79.3282 367.812 79.1504C367.777 78.9736 367.759 78.7511 367.759 78.4826V76.8888H370.557V78.4826Z" fill="white"/>
<path d="M367.759 81.222H370.058V83.6185H369.716V81.6711H369.126V82.8441H368.784V81.6711H368.095V83.6409H367.759V81.222Z" fill="white"/>
<path d="M367.759 85.4265L370.058 84.0562V84.5388L368.209 85.6043L370.058 86.6267V87.0699L367.759 85.7689V85.4265Z" fill="white"/>
<path d="M367.672 89.4046L370.644 90.8562V91.1442L367.672 89.6787V89.4046Z" fill="white"/>
<path d="M369.483 95.2085H369.266L367.992 91.9814H368.281L369.374 94.781L370.475 91.9814H370.763L369.483 95.2085Z" fill="white"/>
<path fill-rule="evenodd" clip-rule="evenodd" d="M374.367 44.2092C374.555 37.1086 375.246 33.6547 369.167 33.6575C363.346 33.66 363.449 34.164 363.858 44.2783L374.367 44.2092Z" fill="#E25858"/>
<path fill-rule="evenodd" clip-rule="evenodd" d="M363.92 98.8212L369.253 113.634L374.637 98.8354C374.604 77.1623 374.129 57.8771 374.096 36.2041C371.833 32.5483 367.07 31.7014 363.866 36.2135L363.92 98.8212Z" stroke="black" stroke-width="1.79222" stroke-miterlimit="22.9256" stroke-linecap="round" stroke-linejoin="round"/>
<path d="M116.8 116.938C373.502 116.938 370.592 116.938 370.592 116.938" stroke="#65A30D" stroke-width="3.59566" stroke-miterlimit="22.9256" stroke-linecap="round" stroke-linejoin="round"/>
<path d="M124.865 70.9531V103.564H120.272V70.9531H107.665V65.8347H137.525V70.9531H124.865ZM147.172 98.8847C151.409 98.8847 155.646 98.8847 159.883 98.8847C161.509 98.8847 163.064 97.8646 163.064 95.8263C163.064 90.6896 163.064 85.5527 163.064 80.4161C163.064 78.6409 161.358 77.1682 159.995 77.1682C155.796 77.1682 151.596 77.1682 147.397 77.1682C145.664 77.1682 144.154 78.0049 144.154 80.191V95.8263C144.154 97.8918 145.555 98.8847 147.172 98.8847ZM139.881 79.9223C139.881 77.0829 140.273 75.1451 141.056 74.1093C141.84 73.0735 143.291 72.5617 145.437 72.5617H161.782C163.928 72.5617 165.379 73.0735 166.163 74.1093C166.946 75.1451 167.338 77.0829 167.338 79.9223V96.2403C167.338 99.0798 166.955 101.005 166.18 102.029C165.406 103.053 163.937 103.564 161.782 103.564H145.437C143.264 103.564 141.795 103.053 141.029 102.041C140.264 101.03 139.881 99.1041 139.881 96.2403V79.9223ZM189.6 77.1682C187.395 77.1682 185.189 77.1682 182.984 77.1682C182.194 77.3798 181.312 77.7811 181.312 78.7613C181.312 84.858 181.312 90.9548 181.312 97.0516C181.312 98.0546 181.821 98.8847 182.704 98.8847H189.6C193.286 98.8847 195.903 98.0318 197.461 96.3256C199.019 94.6317 199.794 91.8286 199.794 87.917C199.794 84.1146 199.011 81.3605 197.435 79.6909C195.859 78.0089 193.25 77.1682 189.6 77.1682ZM190.072 72.5617C192.227 72.5617 194.034 72.7567 195.503 73.1466C196.972 73.5487 198.183 74.1459 199.144 74.9503C200.684 76.2909 201.895 78.1067 202.768 80.3976C203.631 82.7008 204.067 85.2236 204.067 87.9899C204.067 93.2058 202.91 97.1054 200.604 99.6891C198.289 102.273 194.782 103.564 190.072 103.564H177.038V72.5617H190.072ZM219.218 98.8847H231.69C233.729 98.8847 234.868 98.1384 234.868 95.6685C234.868 90.5563 234.868 85.4443 234.868 80.332C234.868 78.9871 233.764 77.1682 231.814 77.1682C227.674 77.1682 223.535 77.1682 219.395 77.1682C217.155 77.1682 215.958 78.2363 215.958 80.2469C215.958 85.4156 215.958 90.584 215.958 95.7524C215.958 97.9253 216.993 98.8847 219.218 98.8847ZM211.685 79.9223C211.685 77.0829 212.077 75.1451 212.86 74.1093C213.643 73.0735 215.095 72.5617 217.24 72.5617H233.586C235.732 72.5617 237.183 73.0735 237.966 74.1093C238.75 75.1451 239.141 77.0829 239.141 79.9223V96.2403C239.141 99.0798 238.758 101.005 237.984 102.029C237.209 103.053 235.74 103.564 233.586 103.564H217.24C215.068 103.564 213.599 103.053 212.833 102.041C212.068 101.03 211.685 99.1041 211.685 96.2403V79.9223ZM249.002 103.564V65.8347H253.596V98.2997H274.482V103.564H249.002ZM284.121 103.564H279.847V72.6348H284.121V103.564ZM310.958 77.1682C306.716 77.1682 302.475 77.1682 298.234 77.1682C296.864 77.1682 296.599 77.9228 296.599 78.7872C296.599 80.3407 296.599 81.8941 296.599 83.4478C296.599 84.7272 297.225 85.2114 298.678 85.2114H311.111C313.238 85.2114 314.69 85.7232 315.464 86.7346C316.239 87.7463 316.631 89.6716 316.631 92.5354V96.2403C316.631 99.1041 316.248 101.03 315.491 102.041C314.734 103.053 313.274 103.564 311.111 103.564H297.356C295.192 103.564 293.732 103.053 292.958 102.041C292.183 101.03 291.791 99.1041 291.791 96.2403V95.3871C292.91 95.0691 294.028 94.7511 295.147 94.4328C295.346 94.4862 295.691 94.2705 295.691 95.1181C295.691 95.8715 295.691 96.6249 295.691 97.3782C295.691 98.1374 296.35 98.6584 297.195 98.8847C301.912 98.8847 306.63 98.8847 311.347 98.8847C312.058 98.6942 312.43 98.3152 312.785 96.9921C312.785 95.1481 312.785 93.3041 312.785 91.46C312.692 91.1131 311.741 90.1834 310.961 90.1834H298.211C296.074 90.1834 294.614 89.6716 293.848 88.6602C293.082 87.6487 292.699 85.7232 292.699 82.8593V79.9345C292.699 77.095 293.082 75.1573 293.848 74.1215C294.614 73.0857 296.074 72.5617 298.211 72.5617H310.799C312.909 72.5617 314.36 73.0613 315.161 74.0605C315.963 75.0722 316.363 76.8271 316.363 79.3617C316.363 79.3617 316.531 80.0541 315.831 80.2833C313.049 81.1954 312.49 82.0836 312.49 80.1187C312.49 79.6503 312.49 79.1817 312.49 78.7133C312.49 77.6861 312.039 77.1682 310.958 77.1682ZM335.421 77.1682V103.564H331.148V77.1682H320.464V72.5617H346.158V77.1682H335.421Z" stroke="black" stroke-width="7.16839" stroke-miterlimit="22.9256" stroke-linecap="round" stroke-linejoin="round"/>
<path d="M124.865 70.9531V103.564H120.272V70.9531H107.665V65.8347H137.525V70.9531H124.865ZM147.172 98.8847C151.409 98.8847 155.646 98.8847 159.883 98.8847C161.509 98.8847 163.064 97.8646 163.064 95.8263C163.064 90.6896 163.064 85.5527 163.064 80.4161C163.064 78.6409 161.358 77.1682 159.995 77.1682C155.796 77.1682 151.596 77.1682 147.397 77.1682C145.664 77.1682 144.154 78.0049 144.154 80.191V95.8263C144.154 97.8918 145.555 98.8847 147.172 98.8847ZM139.881 79.9223C139.881 77.0829 140.273 75.1451 141.056 74.1093C141.84 73.0735 143.291 72.5617 145.437 72.5617H161.782C163.928 72.5617 165.379 73.0735 166.163 74.1093C166.946 75.1451 167.338 77.0829 167.338 79.9223V96.2403C167.338 99.0798 166.955 101.005 166.18 102.029C165.406 103.053 163.937 103.564 161.782 103.564H145.437C143.264 103.564 141.795 103.053 141.029 102.041C140.264 101.03 139.881 99.1041 139.881 96.2403V79.9223ZM189.6 77.1682C187.395 77.1682 185.189 77.1682 182.984 77.1682C182.194 77.3798 181.312 77.7811 181.312 78.7613C181.312 84.858 181.312 90.9548 181.312 97.0516C181.312 98.0546 181.821 98.8847 182.704 98.8847H189.6C193.286 98.8847 195.903 98.0318 197.461 96.3256C199.019 94.6317 199.794 91.8286 199.794 87.917C199.794 84.1146 199.011 81.3605 197.435 79.6909C195.859 78.0089 193.25 77.1682 189.6 77.1682ZM190.072 72.5617C192.227 72.5617 194.034 72.7567 195.503 73.1466C196.972 73.5487 198.183 74.1459 199.144 74.9503C200.684 76.2909 201.895 78.1067 202.768 80.3976C203.631 82.7008 204.067 85.2236 204.067 87.9899C204.067 93.2058 202.91 97.1054 200.604 99.6891C198.289 102.273 194.782 103.564 190.072 103.564H177.038V72.5617H190.072ZM219.218 98.8847H231.69C233.729 98.8847 234.868 98.1384 234.868 95.6685C234.868 90.5563 234.868 85.4443 234.868 80.332C234.868 78.9871 233.764 77.1682 231.814 77.1682C227.674 77.1682 223.535 77.1682 219.395 77.1682C217.155 77.1682 215.958 78.2363 215.958 80.2469C215.958 85.4156 215.958 90.584 215.958 95.7524C215.958 97.9253 216.993 98.8847 219.218 98.8847ZM211.685 79.9223C211.685 77.0829 212.077 75.1451 212.86 74.1093C213.643 73.0735 215.095 72.5617 217.24 72.5617H233.586C235.732 72.5617 237.183 73.0735 237.966 74.1093C238.75 75.1451 239.141 77.0829 239.141 79.9223V96.2403C239.141 99.0798 238.758 101.005 237.984 102.029C237.209 103.053 235.74 103.564 233.586 103.564H217.24C215.068 103.564 213.599 103.053 212.833 102.041C212.068 101.03 211.685 99.1041 211.685 96.2403V79.9223ZM249.002 103.564V65.8347H253.596V98.2997H274.482V103.564H249.002ZM284.121 103.564H279.847V72.6348H284.121V103.564ZM310.958 77.1682C306.716 77.1682 302.475 77.1682 298.234 77.1682C296.864 77.1682 296.599 77.9228 296.599 78.7872C296.599 80.3407 296.599 81.8941 296.599 83.4478C296.599 84.7272 297.225 85.2114 298.678 85.2114H311.111C313.238 85.2114 314.69 85.7232 315.464 86.7346C316.239 87.7463 316.631 89.6716 316.631 92.5354V96.2403C316.631 99.1041 316.248 101.03 315.491 102.041C314.734 103.053 313.274 103.564 311.111 103.564H297.356C295.192 103.564 293.732 103.053 292.958 102.041C292.183 101.03 291.791 99.1041 291.791 96.2403V95.3871C292.91 95.0691 294.028 94.7511 295.147 94.4328C295.346 94.4862 295.691 94.2705 295.691 95.1181C295.691 95.8715 295.691 96.6249 295.691 97.3782C295.691 98.1374 296.35 98.6584 297.195 98.8847C301.912 98.8847 306.63 98.8847 311.347 98.8847C312.058 98.6942 312.43 98.3152 312.785 96.9921C312.785 95.1481 312.785 93.3041 312.785 91.46C312.692 91.1131 311.741 90.1834 310.961 90.1834H298.211C296.074 90.1834 294.614 89.6716 293.848 88.6602C293.082 87.6487 292.699 85.7232 292.699 82.8593V79.9345C292.699 77.095 293.082 75.1573 293.848 74.1215C294.614 73.0857 296.074 72.5617 298.211 72.5617H310.799C312.909 72.5617 314.36 73.0613 315.161 74.0605C315.963 75.0722 316.363 76.8271 316.363 79.3617C316.363 79.3617 316.531 80.0541 315.831 80.2833C313.049 81.1954 312.49 82.0836 312.49 80.1187C312.49 79.6503 312.49 79.1817 312.49 78.7133C312.49 77.6861 312.039 77.1682 310.958 77.1682ZM335.421 77.1682V103.564H331.148V77.1682H320.464V72.5617H346.158V77.1682H335.421Z" fill="white"/>
</svg>
